<svg width="64" height="64" viewBox="0 0 64 64" fill="none" xmlns="http://www.w3.org/2000/svg">
<path d="M16.337 25.9486C13.3435 27.6393 10.8522 30.094 9.11749 33.0622C7.38278 36.0304 6.46677 39.4057 6.46296 42.8436C6.45609 45.3902 6.9544 47.9128 7.92903 50.2654C8.90366 52.618 10.3353 54.754 12.141 56.5496C13.9368 58.3552 16.073 59.7867 18.4258 60.7611C20.7786 61.7356 23.3013 62.2337 25.848 62.2266C34.851 62.2266 42.602 56.1206 44.698 47.3776L41.381 46.5826C40.5503 50.0746 38.5638 53.1833 35.7439 55.4041C32.924 57.6249 29.4363 58.8275 25.847 58.8166C23.7483 58.8223 21.6693 58.4117 19.7303 57.6086C17.7913 56.8054 16.0309 55.6257 14.551 54.1376C13.0632 52.658 11.8836 50.8979 11.0806 48.9592C10.2777 47.0206 9.86718 44.942 9.87296 42.8436C9.87648 40.0102 10.6317 37.2284 12.0616 34.7822C13.4915 32.336 15.5448 30.313 18.012 28.9196L16.337 25.9486ZM55.829 49.9276L52.273 51.3496L42.706 33.4636H23.18L22.54 27.5716L37.617 27.5786L37.618 24.1676L22.171 24.1616L20.764 11.1936C21.4076 11.3585 22.0761 11.4033 22.736 11.3256C23.4435 11.241 24.1275 11.0178 24.7487 10.6688C25.37 10.3197 25.9164 9.85175 26.3568 9.2915C26.7971 8.73125 27.1228 8.08974 27.3152 7.40361C27.5076 6.71747 27.5629 6.00015 27.478 5.29264C27.3933 4.58521 27.1702 3.90137 26.8213 3.28018C26.4723 2.65899 26.0045 2.1126 25.4444 1.67222C24.8843 1.23184 24.243 0.906085 23.557 0.713557C22.8711 0.52103 22.1539 0.465499 21.4465 0.550136C20.739 0.634773 20.0552 0.85792 19.434 1.20684C18.8128 1.55575 18.2664 2.02361 17.826 2.58368C17.3857 3.14376 17.0599 3.78509 16.8674 4.47106C16.6749 5.15703 16.6193 5.87421 16.704 6.58164C16.756 7.01464 16.862 7.42764 17.007 7.81864L16.969 7.82264L19.956 35.3526L20.122 36.8746H40.665L50.708 55.6486L57.098 53.0926L55.831 49.9266L55.829 49.9276Z" fill="#1dd48b"/>
</svg>
