<svg width="29" height="31" viewBox="0 0 29 31" fill="none" xmlns="http://www.w3.org/2000/svg">
<g id="Group">
<path id="Vector" fill-rule="evenodd" clip-rule="evenodd" d="M11.3359 15.1148V1.88916H13.2253V13.4465L16.5185 11.4683C16.6652 11.3804 16.833 11.3339 17.0041 11.3339C17.1751 11.3339 17.3429 11.3804 17.4896 11.4683L20.7828 13.4465V1.88916H22.6722V15.1148C22.6722 15.2819 22.6279 15.4461 22.5438 15.5905C22.4596 15.7349 22.3387 15.8545 22.1933 15.9369C22.0479 16.0193 21.8832 16.0616 21.716 16.0596C21.5489 16.0576 21.3853 16.0112 21.2419 15.9253L17.0041 13.3822L12.7662 15.9272C12.6227 16.0132 12.4589 16.0596 12.2916 16.0615C12.1243 16.0634 11.9595 16.0209 11.814 15.9383C11.6686 15.8557 11.5476 15.7359 11.4636 15.5912C11.3796 15.4465 11.3356 15.2821 11.3359 15.1148Z" fill="#1DD48B"/>
<path id="Vector_2" d="M5.66742 0H24.5612C25.5634 0 26.5245 0.398117 27.2332 1.10677C27.9418 1.81542 28.3399 2.77656 28.3399 3.77875V26.4513C28.3399 27.4534 27.9418 28.4146 27.2332 29.1232C26.5245 29.8319 25.5634 30.23 24.5612 30.23H5.66742C4.66524 30.23 3.7041 29.8319 2.99544 29.1232C2.28679 28.4146 1.88867 27.4534 1.88867 26.4513V24.5619H3.77805V26.4513C3.77805 26.9523 3.97711 27.4329 4.33143 27.7872C4.68576 28.1416 5.16633 28.3406 5.66742 28.3406H24.5612C25.0623 28.3406 25.5428 28.1416 25.8972 27.7872C26.2515 27.4329 26.4505 26.9523 26.4505 26.4513V3.77875C26.4505 3.27766 26.2515 2.79709 25.8972 2.44276C25.5428 2.08843 25.0623 1.88937 24.5612 1.88937H5.66742C5.16633 1.88937 4.68576 2.08843 4.33143 2.44276C3.97711 2.79709 3.77805 3.27766 3.77805 3.77875V5.66813H1.88867V3.77875C1.88867 2.77656 2.28679 1.81542 2.99544 1.10677C3.7041 0.398117 4.66524 0 5.66742 0Z" fill="#1DD48B"/>
<path id="Vector_3" d="M1.88938 9.44699V8.5023C1.88938 8.25176 1.9889 8.01147 2.16607 7.83431C2.34323 7.65715 2.58352 7.55762 2.83406 7.55762C3.08461 7.55762 3.32489 7.65715 3.50206 7.83431C3.67922 8.01147 3.77875 8.25176 3.77875 8.5023V9.44699H4.72344C4.97398 9.44699 5.21427 9.54652 5.39143 9.72368C5.5686 9.90085 5.66813 10.1411 5.66813 10.3917C5.66813 10.6422 5.5686 10.8825 5.39143 11.0597C5.21427 11.2368 4.97398 11.3364 4.72344 11.3364H0.944688C0.694141 11.3364 0.453856 11.2368 0.276693 11.0597C0.0995293 10.8825 0 10.6422 0 10.3917C0 10.1411 0.0995293 9.90085 0.276693 9.72368C0.453856 9.54652 0.694141 9.44699 0.944688 9.44699H1.88938ZM1.88938 15.1151V14.1704C1.88938 13.9199 1.9889 13.6796 2.16607 13.5024C2.34323 13.3253 2.58352 13.2257 2.83406 13.2257C3.08461 13.2257 3.32489 13.3253 3.50206 13.5024C3.67922 13.6796 3.77875 13.9199 3.77875 14.1704V15.1151H4.72344C4.97398 15.1151 5.21427 15.2146 5.39143 15.3918C5.5686 15.569 5.66813 15.8093 5.66813 16.0598C5.66813 16.3104 5.5686 16.5506 5.39143 16.7278C5.21427 16.905 4.97398 17.0045 4.72344 17.0045H0.944688C0.694141 17.0045 0.453856 16.905 0.276693 16.7278C0.0995293 16.5506 0 16.3104 0 16.0598C0 15.8093 0.0995293 15.569 0.276693 15.3918C0.453856 15.2146 0.694141 15.1151 0.944688 15.1151H1.88938ZM1.88938 20.7832V19.8386C1.88938 19.588 1.9889 19.3477 2.16607 19.1706C2.34323 18.9934 2.58352 18.8939 2.83406 18.8939C3.08461 18.8939 3.32489 18.9934 3.50206 19.1706C3.67922 19.3477 3.77875 19.588 3.77875 19.8386V20.7832H4.72344C4.97398 20.7832 5.21427 20.8828 5.39143 21.0599C5.5686 21.2371 5.66813 21.4774 5.66813 21.7279C5.66813 21.9785 5.5686 22.2188 5.39143 22.3959C5.21427 22.5731 4.97398 22.6726 4.72344 22.6726H0.944688C0.694141 22.6726 0.453856 22.5731 0.276693 22.3959C0.0995293 22.2188 0 21.9785 0 21.7279C0 21.4774 0.0995293 21.2371 0.276693 21.0599C0.453856 20.8828 0.694141 20.7832 0.944688 20.7832H1.88938Z" fill="#1DD48B"/>
</g>
</svg>
