<svg width="30" height="30" viewBox="0 0 30 30" fill="none" xmlns="http://www.w3.org/2000/svg">
<g id="hugeicons:checkmark-badge-03">
<g id="Group">
<path id="Vector" d="M17.8275 4.5C16.495 3.165 15.8275 2.5 15 2.5C14.1725 2.5 13.505 3.16625 12.1725 4.5C11.3725 5.3 10.58 5.67 9.44 5.67C8.445 5.67 7.0275 5.4775 6.25 6.26125C5.4775 7.04 5.67 8.45125 5.67 9.44C5.67 10.58 5.29875 11.3725 4.49875 12.1725C3.16625 13.505 2.5 14.1725 2.5 15C2.5 15.8275 3.16625 16.495 4.5 17.8275C5.395 18.7238 5.67 19.3025 5.67 20.56C5.67 21.555 5.4775 22.9725 6.26125 23.75C7.04 24.5212 8.45125 24.33 9.44 24.33C10.6538 24.33 11.24 24.5675 12.1063 25.4338C12.8438 26.1713 13.8325 27.5 15 27.5C16.1675 27.5 17.1562 26.1713 17.8937 25.4338C18.7612 24.5675 19.3462 24.33 20.56 24.33C21.5487 24.33 22.96 24.5225 23.7387 23.75M23.7387 23.75C24.5225 22.9725 24.33 21.555 24.33 20.56C24.33 19.3025 24.605 18.7238 25.5 17.8275C26.8337 16.495 27.5 15.8275 27.5 15C27.5 14.1725 26.8337 13.505 25.5012 12.1725M23.7387 23.75H23.75" stroke="#1DD48B" stroke-width="1.5" stroke-linecap="round" stroke-linejoin="round"/>
<path id="Vector_2" d="M10 12.885C10 12.885 12.8125 12.5 15 17.5C15 17.5 21.3238 5 27.5 2.5" stroke="#1DD48B" stroke-width="1.5" stroke-linecap="round" stroke-linejoin="round"/>
</g>
</g>
</svg>
