<svg width="15" height="15" viewBox="0 0 15 15" fill="none" xmlns="http://www.w3.org/2000/svg">
<g id="zondicons:checkmark-outline" clip-path="url(#clip0_1164_1552)">
<path id="Vector" d="M2.19786 12.8024C1.48154 12.1105 0.910172 11.2829 0.517104 10.3679C0.124037 9.45288 -0.0828601 8.46873 -0.0915137 7.47289C-0.100167 6.47704 0.0895954 5.48944 0.466702 4.56772C0.843809 3.646 1.40071 2.80861 2.1049 2.10441C2.8091 1.40022 3.64649 0.84332 4.56821 0.466214C5.48993 0.0891071 6.47753 -0.100656 7.47337 -0.092002C8.46922 -0.0833484 9.45337 0.123548 10.3684 0.516616C11.2834 0.909683 12.111 1.48105 12.8029 2.19738C14.1691 3.61189 14.925 5.50641 14.9079 7.47289C14.8908 9.43936 14.1021 11.3205 12.7115 12.711C11.3209 14.1016 9.43985 14.8903 7.47337 14.9074C5.5069 14.9245 3.61238 14.1686 2.19786 12.8024ZM11.7454 11.7449C12.8712 10.619 13.5037 9.09206 13.5037 7.49988C13.5037 5.90769 12.8712 4.38072 11.7454 3.25488C10.6195 2.12903 9.09255 1.49654 7.50036 1.49654C5.90818 1.49654 4.38121 2.12903 3.25536 3.25488C2.12952 4.38072 1.49703 5.90769 1.49703 7.49988C1.49703 9.09206 2.12952 10.619 3.25536 11.7449C4.38121 12.8707 5.90818 13.5032 7.50036 13.5032C9.09255 13.5032 10.6195 12.8707 11.7454 11.7449ZM5.02536 6.96738L6.75036 8.69988L9.97536 5.47488L11.0254 6.53988L6.75036 10.7999L3.97536 8.02488L5.02536 6.95988V6.96738Z" fill="#1DD48B"/>
</g>
<defs>
<clipPath id="clip0_1164_1552">
<rect width="15" height="15" fill="white"/>
</clipPath>
</defs>
</svg>
