<svg width="308" height="300" viewBox="0 0 308 300" fill="none" xmlns="http://www.w3.org/2000/svg">
<path d="M224.545 102.431H181.896C179.49 102.431 177.521 100.462 177.521 98.0563V70.3528C177.521 67.9469 179.49 65.9785 181.896 65.9785H224.545C226.95 65.9785 228.919 67.9469 228.919 70.3528V98.0563C228.919 100.462 226.95 102.431 224.545 102.431Z" fill="white"/>
<path d="M175.188 71.1186V98.4941C175.188 102.285 178.249 105.347 182.04 105.347H223.085C226.876 105.347 229.938 102.285 229.938 98.4941V71.1186C229.938 67.3276 226.876 64.2656 223.085 64.2656H182.04C178.249 64.2656 175.188 67.3276 175.188 71.1186ZM178.76 99.1866C178.723 98.9679 178.614 98.7492 178.614 98.5305V71.1551C178.614 70.7905 178.723 70.4625 178.833 70.1708L193.304 82.601L178.76 99.1866ZM223.085 67.6921C223.304 67.6921 223.523 67.765 223.742 67.8379L202.563 85.991L181.384 67.8379C181.603 67.8015 181.785 67.6921 182.04 67.6921H223.085ZM211.822 82.5281L226.293 70.0979C226.403 70.426 226.512 70.7541 226.512 71.0821V98.4576C226.512 98.7128 226.439 98.895 226.366 99.1137L211.822 82.5281ZM182.04 101.921C181.676 101.921 181.384 101.811 181.056 101.738L195.892 84.7881L201.433 89.5633C201.761 89.8549 202.162 89.9643 202.563 89.9643C202.964 89.9643 203.365 89.8185 203.693 89.5633L209.234 84.7881L224.07 101.738C223.742 101.848 223.45 101.921 223.085 101.921H182.04Z" fill="#FFBE55"/>
<path d="M245.321 180.802H213.243C210.838 180.802 208.869 178.834 208.869 176.428V156.234C208.869 153.828 210.838 151.859 213.243 151.859H245.321C247.727 151.859 249.695 153.828 249.695 156.234V176.428C249.695 178.834 247.727 180.802 245.321 180.802Z" fill="white"/>
<path d="M207.703 155.759V177.412C207.703 180.401 210.109 182.843 213.134 182.843H245.613C248.602 182.843 251.045 180.437 251.045 177.412V155.759C251.045 152.77 248.639 150.328 245.613 150.328H213.134C210.145 150.365 207.703 152.77 207.703 155.759ZM210.51 177.959C210.473 177.776 210.401 177.631 210.401 177.412V155.759C210.401 155.468 210.473 155.213 210.546 154.958L221.992 164.763L210.51 177.959ZM245.613 153.062C245.795 153.062 245.941 153.135 246.124 153.171L229.392 167.533L212.661 153.171C212.843 153.135 212.989 153.062 213.171 153.062H245.613ZM236.682 164.8L248.128 154.994C248.201 155.249 248.274 155.504 248.274 155.796V177.448C248.274 177.631 248.201 177.813 248.165 177.995L236.682 164.8ZM213.134 180.109C212.843 180.109 212.624 180.037 212.369 179.964L224.107 166.549L228.517 170.304C228.772 170.523 229.1 170.632 229.392 170.632C229.72 170.632 230.012 170.523 230.267 170.304L234.678 166.549L246.415 179.964C246.16 180.037 245.905 180.109 245.65 180.109H213.134Z" fill="#2A94F4"/>
<path d="M261.143 66.4883V81.142C261.143 83.1833 262.783 84.8236 264.824 84.8236H286.805C288.846 84.8236 290.486 83.1833 290.486 81.142V66.4883C290.486 64.447 288.846 62.8066 286.805 62.8066H264.824C262.783 62.8066 261.143 64.447 261.143 66.4883ZM263.075 81.5065C263.038 81.3972 263.002 81.2878 263.002 81.142V66.4883C263.002 66.306 263.038 66.1238 263.111 65.9415L270.875 72.5758L263.075 81.5065ZM286.805 64.6657C286.914 64.6657 287.023 64.7021 287.133 64.7386L275.796 74.4713L264.46 64.7386C264.569 64.7021 264.678 64.6657 264.788 64.6657H286.805ZM280.79 72.6122L288.554 65.978C288.591 66.1602 288.664 66.306 288.664 66.5247V81.1784C288.664 81.2878 288.627 81.4336 288.591 81.543L280.79 72.6122ZM264.824 82.9646C264.642 82.9646 264.46 82.9281 264.314 82.8552L272.26 73.7787L275.249 76.3303C275.432 76.4761 275.65 76.549 275.833 76.549C276.051 76.549 276.27 76.4761 276.416 76.3303L279.405 73.7787L287.352 82.8552C287.169 82.8917 287.024 82.9646 286.841 82.9646H264.824Z" fill="#CCE9FF"/>
<path d="M267.192 142.162H254.07C251.664 142.162 249.695 140.194 249.695 137.788V129.988C249.695 127.582 251.664 125.613 254.07 125.613H267.192C269.598 125.613 271.567 127.582 271.567 129.988V137.788C271.567 140.194 269.598 142.162 267.192 142.162Z" fill="white"/>
<path d="M249.15 128.166V139.539C249.15 141.106 250.426 142.382 251.994 142.382H269.053C270.621 142.382 271.896 141.106 271.896 139.539V128.166C271.896 126.598 270.621 125.322 269.053 125.322H251.994C250.426 125.359 249.15 126.598 249.15 128.166ZM250.645 139.83C250.608 139.721 250.572 139.648 250.572 139.539V128.166C250.572 128.02 250.608 127.874 250.645 127.765L256.659 132.904L250.645 139.83ZM269.053 126.78C269.163 126.78 269.235 126.817 269.308 126.817L260.523 134.362L251.738 126.817C251.811 126.817 251.921 126.78 251.994 126.78H269.053ZM264.351 132.904L270.365 127.765C270.402 127.91 270.438 128.02 270.438 128.166V139.539C270.438 139.648 270.402 139.721 270.365 139.83L264.351 132.904ZM251.994 140.96C251.848 140.96 251.702 140.924 251.593 140.887L257.753 133.852L260.05 135.82C260.195 135.93 260.341 136.003 260.523 136.003C260.706 136.003 260.851 135.93 260.997 135.82L263.294 133.852L269.454 140.887C269.308 140.924 269.199 140.96 269.053 140.96H251.994Z" fill="#FFBE55"/>
<path d="M223.232 34.4839V46.2943C223.232 47.9347 224.545 49.2469 226.185 49.2469H243.864C245.505 49.2469 246.817 47.9347 246.817 46.2943V34.4839C246.817 32.8435 245.505 31.5312 243.864 31.5312H226.185C224.581 31.5312 223.232 32.8435 223.232 34.4839ZM224.8 46.5859C224.763 46.4766 224.727 46.4037 224.727 46.2943V34.4839C224.727 34.3381 224.763 34.1922 224.8 34.0464L231.033 39.4049L224.8 46.5859ZM243.901 33.0258C244.01 33.0258 244.083 33.0622 244.192 33.0987L235.079 40.9359L225.966 33.0987C226.076 33.0622 226.149 33.0258 226.258 33.0258H243.901ZM239.053 39.4049L245.286 34.0464C245.322 34.1922 245.359 34.3381 245.359 34.4839V46.2943C245.359 46.4037 245.322 46.4766 245.286 46.5859L239.053 39.4049ZM226.185 47.7524C226.039 47.7524 225.893 47.7159 225.748 47.6795L232.127 40.3891L234.533 42.4304C234.678 42.5398 234.824 42.6127 235.006 42.6127C235.189 42.6127 235.334 42.5398 235.48 42.4304L237.886 40.3891L244.265 47.6795C244.119 47.7159 244.01 47.7524 243.828 47.7524H226.185Z" fill="#2A94F4"/>
<path d="M193.633 108.736C194.237 108.736 194.726 108.246 194.726 107.642C194.726 107.038 194.237 106.549 193.633 106.549C193.029 106.549 192.539 107.038 192.539 107.642C192.539 108.246 193.029 108.736 193.633 108.736Z" fill="#6B6B6B"/>
<path d="M190.17 110.595C190.774 110.595 191.263 110.106 191.263 109.502C191.263 108.898 190.774 108.408 190.17 108.408C189.566 108.408 189.076 108.898 189.076 109.502C189.076 110.106 189.566 110.595 190.17 110.595Z" fill="#6B6B6B"/>
<path d="M186.779 112.564C187.383 112.564 187.873 112.074 187.873 111.471C187.873 110.867 187.383 110.377 186.779 110.377C186.175 110.377 185.686 110.867 185.686 111.471C185.686 112.074 186.175 112.564 186.779 112.564Z" fill="#6B6B6B"/>
<path d="M184.047 115.371C184.651 115.371 185.14 114.881 185.14 114.277C185.14 113.673 184.651 113.184 184.047 113.184C183.443 113.184 182.953 113.673 182.953 114.277C182.953 114.881 183.443 115.371 184.047 115.371Z" fill="#6B6B6B"/>
<path d="M181.713 118.505C182.317 118.505 182.806 118.016 182.806 117.412C182.806 116.808 182.317 116.318 181.713 116.318C181.109 116.318 180.619 116.808 180.619 117.412C180.619 118.016 181.109 118.505 181.713 118.505Z" fill="#6B6B6B"/>
<path d="M179.928 122.005C180.532 122.005 181.021 121.516 181.021 120.912C181.021 120.308 180.532 119.818 179.928 119.818C179.324 119.818 178.834 120.308 178.834 120.912C178.834 121.516 179.324 122.005 179.928 122.005Z" fill="#6B6B6B"/>
<path d="M178.797 125.759C179.401 125.759 179.89 125.27 179.89 124.666C179.89 124.062 179.401 123.572 178.797 123.572C178.193 123.572 177.703 124.062 177.703 124.666C177.703 125.27 178.193 125.759 178.797 125.759Z" fill="#6B6B6B"/>
<path d="M199.648 141.252C200.252 141.252 200.742 140.762 200.742 140.158C200.742 139.554 200.252 139.064 199.648 139.064C199.044 139.064 198.555 139.554 198.555 140.158C198.555 140.762 199.044 141.252 199.648 141.252Z" fill="#6B6B6B"/>
<path d="M195.711 141.252C196.315 141.252 196.804 140.762 196.804 140.158C196.804 139.554 196.315 139.064 195.711 139.064C195.107 139.064 194.617 139.554 194.617 140.158C194.617 140.762 195.107 141.252 195.711 141.252Z" fill="#6B6B6B"/>
<path d="M191.773 141.252C192.377 141.252 192.867 140.762 192.867 140.158C192.867 139.554 192.377 139.064 191.773 139.064C191.169 139.064 190.68 139.554 190.68 140.158C190.68 140.762 191.169 141.252 191.773 141.252Z" fill="#6B6B6B"/>
<path d="M187.838 141.252C188.442 141.252 188.931 140.762 188.931 140.158C188.931 139.554 188.442 139.064 187.838 139.064C187.234 139.064 186.744 139.554 186.744 140.158C186.744 140.762 187.234 141.252 187.838 141.252Z" fill="#6B6B6B"/>
<path d="M183.9 141.252C184.504 141.252 184.994 140.762 184.994 140.158C184.994 139.554 184.504 139.064 183.9 139.064C183.296 139.064 182.807 139.554 182.807 140.158C182.807 140.762 183.296 141.252 183.9 141.252Z" fill="#6B6B6B"/>
<path d="M245.213 134.91C245.817 134.91 246.306 134.42 246.306 133.816C246.306 133.212 245.817 132.723 245.213 132.723C244.609 132.723 244.119 133.212 244.119 133.816C244.119 134.42 244.609 134.91 245.213 134.91Z" fill="#6B6B6B"/>
<path d="M241.275 134.8C241.879 134.8 242.369 134.311 242.369 133.707C242.369 133.103 241.879 132.613 241.275 132.613C240.671 132.613 240.182 133.103 240.182 133.707C240.182 134.311 240.671 134.8 241.275 134.8Z" fill="#6B6B6B"/>
<path d="M237.34 134.691C237.944 134.691 238.433 134.201 238.433 133.597C238.433 132.994 237.944 132.504 237.34 132.504C236.736 132.504 236.246 132.994 236.246 133.597C236.246 134.201 236.736 134.691 237.34 134.691Z" fill="#6B6B6B"/>
<path d="M233.512 135.638C234.115 135.638 234.605 135.149 234.605 134.545C234.605 133.941 234.115 133.451 233.512 133.451C232.908 133.451 232.418 133.941 232.418 134.545C232.418 135.149 232.908 135.638 233.512 135.638Z" fill="#6B6B6B"/>
<path d="M229.721 136.695C230.324 136.695 230.814 136.205 230.814 135.601C230.814 134.997 230.324 134.508 229.721 134.508C229.117 134.508 228.627 134.997 228.627 135.601C228.627 136.205 229.117 136.695 229.721 136.695Z" fill="#6B6B6B"/>
<path d="M226.476 138.882C227.08 138.882 227.57 138.393 227.57 137.789C227.57 137.185 227.08 136.695 226.476 136.695C225.872 136.695 225.383 137.185 225.383 137.789C225.383 138.393 225.872 138.882 226.476 138.882Z" fill="#6B6B6B"/>
<path d="M223.523 141.433C224.127 141.433 224.617 140.944 224.617 140.34C224.617 139.736 224.127 139.246 223.523 139.246C222.919 139.246 222.43 139.736 222.43 140.34C222.43 140.944 222.919 141.433 223.523 141.433Z" fill="#6B6B6B"/>
<path d="M221.154 144.568C221.758 144.568 222.248 144.078 222.248 143.474C222.248 142.87 221.758 142.381 221.154 142.381C220.55 142.381 220.061 142.87 220.061 143.474C220.061 144.078 220.55 144.568 221.154 144.568Z" fill="#6B6B6B"/>
<path d="M219.478 148.105C220.082 148.105 220.572 147.615 220.572 147.012C220.572 146.408 220.082 145.918 219.478 145.918C218.874 145.918 218.385 146.408 218.385 147.012C218.385 147.615 218.874 148.105 219.478 148.105Z" fill="#6B6B6B"/>
<path d="M263.549 89.3434C264.153 89.3434 264.642 88.8538 264.642 88.2498C264.642 87.6459 264.153 87.1562 263.549 87.1562C262.945 87.1562 262.455 87.6459 262.455 88.2498C262.455 88.8538 262.945 89.3434 263.549 89.3434Z" fill="#6B6B6B"/>
<path d="M260.304 91.6031C260.908 91.6031 261.398 91.1135 261.398 90.5096C261.398 89.9056 260.908 89.416 260.304 89.416C259.701 89.416 259.211 89.9056 259.211 90.5096C259.211 91.1135 259.701 91.6031 260.304 91.6031Z" fill="#6B6B6B"/>
<path d="M256.695 93.0992C257.299 93.0992 257.789 92.6096 257.789 92.0057C257.789 91.4017 257.299 90.9121 256.695 90.9121C256.091 90.9121 255.602 91.4017 255.602 92.0057C255.602 92.6096 256.091 93.0992 256.695 93.0992Z" fill="#6B6B6B"/>
<path d="M253.013 94.5191C253.617 94.5191 254.107 94.0295 254.107 93.4256C254.107 92.8216 253.617 92.332 253.013 92.332C252.41 92.332 251.92 92.8216 251.92 93.4256C251.92 94.0295 252.41 94.5191 253.013 94.5191Z" fill="#6B6B6B"/>
<path d="M249.185 95.359C249.789 95.359 250.279 94.8694 250.279 94.2654C250.279 93.6615 249.789 93.1719 249.185 93.1719C248.581 93.1719 248.092 93.6615 248.092 94.2654C248.092 94.8694 248.581 95.359 249.185 95.359Z" fill="#6B6B6B"/>
<path d="M245.322 96.1246C245.926 96.1246 246.416 95.635 246.416 95.0311C246.416 94.4271 245.926 93.9375 245.322 93.9375C244.718 93.9375 244.229 94.4271 244.229 95.0311C244.229 95.635 244.718 96.1246 245.322 96.1246Z" fill="#6B6B6B"/>
<path d="M241.385 96.4527C241.989 96.4527 242.478 95.9631 242.478 95.3592C242.478 94.7552 241.989 94.2656 241.385 94.2656C240.781 94.2656 240.291 94.7552 240.291 95.3592C240.291 95.9631 240.781 96.4527 241.385 96.4527Z" fill="#6B6B6B"/>
<path d="M237.449 96.5973C238.053 96.5973 238.543 96.1077 238.543 95.5037C238.543 94.8998 238.053 94.4102 237.449 94.4102C236.845 94.4102 236.355 94.8998 236.355 95.5037C236.355 96.1077 236.845 96.5973 237.449 96.5973Z" fill="#6B6B6B"/>
<path d="M233.512 96.4879C234.115 96.4879 234.605 95.9983 234.605 95.3943C234.605 94.7904 234.115 94.3008 233.512 94.3008C232.908 94.3008 232.418 94.7904 232.418 95.3943C232.418 95.9983 232.908 96.4879 233.512 96.4879Z" fill="#6B6B6B"/>
<path d="M218.638 43.1949C219.242 43.1949 219.732 42.7053 219.732 42.1014C219.732 41.4974 219.242 41.0078 218.638 41.0078C218.035 41.0078 217.545 41.4974 217.545 42.1014C217.545 42.7053 218.035 43.1949 218.638 43.1949Z" fill="#6B6B6B"/>
<path d="M214.847 44.2164C215.451 44.2164 215.941 43.7268 215.941 43.1229C215.941 42.5189 215.451 42.0293 214.847 42.0293C214.244 42.0293 213.754 42.5189 213.754 43.1229C213.754 43.7268 214.244 44.2164 214.847 44.2164Z" fill="#6B6B6B"/>
<path d="M211.713 46.5133C212.317 46.5133 212.806 46.0237 212.806 45.4197C212.806 44.8158 212.317 44.3262 211.713 44.3262C211.109 44.3262 210.619 44.8158 210.619 45.4197C210.619 46.0237 211.109 46.5133 211.713 46.5133Z" fill="#6B6B6B"/>
<path d="M209.381 49.5387C209.985 49.5387 210.474 49.0491 210.474 48.4451C210.474 47.8412 209.985 47.3516 209.381 47.3516C208.777 47.3516 208.287 47.8412 208.287 48.4451C208.287 49.0491 208.777 49.5387 209.381 49.5387Z" fill="#6B6B6B"/>
<path d="M207.996 53.2203C208.6 53.2203 209.089 52.7307 209.089 52.1268C209.089 51.5228 208.6 51.0332 207.996 51.0332C207.392 51.0332 206.902 51.5228 206.902 52.1268C206.902 52.7307 207.392 53.2203 207.996 53.2203Z" fill="#6B6B6B"/>
<path d="M207.558 57.1207C208.162 57.1207 208.652 56.6311 208.652 56.0272C208.652 55.4232 208.162 54.9336 207.558 54.9336C206.954 54.9336 206.465 55.4232 206.465 56.0272C206.465 56.6311 206.954 57.1207 207.558 57.1207Z" fill="#6B6B6B"/>
<path d="M207.849 61.0563C208.453 61.0563 208.943 60.5667 208.943 59.9627C208.943 59.3587 208.453 58.8691 207.849 58.8691C207.245 58.8691 206.756 59.3587 206.756 59.9627C206.756 60.5667 207.245 61.0563 207.849 61.0563Z" fill="#6B6B6B"/>
<path d="M144.277 255.894C144.568 255.785 144.824 255.712 145.115 255.602C145.115 255.602 145.006 255.384 144.824 254.946C141.835 248.749 116.974 199.758 69.0399 190.353C68.6754 190.28 68.2744 190.208 67.9099 190.135C61.8224 189.041 55.4068 188.567 48.6267 188.895C48.6267 188.895 39.1128 189.077 27.4117 197.316C27.1565 197.498 26.9014 197.68 26.6097 197.862C21.3607 201.69 15.7106 207.194 10.2792 214.995L9.95117 215.432C9.95117 215.432 10.0241 215.651 10.2063 216.052C11.8831 219.916 21.6523 240.511 44.7628 254.035C45.0545 254.217 45.3825 254.399 45.6741 254.545C66.634 266.538 98.2379 272.589 144.277 255.894Z" fill="#0B4870"/>
<path d="M145.006 256.111L145.115 255.601L145.225 255.091L144.824 254.981L10.2792 215.066L9.95117 215.504C9.95117 215.504 10.0241 215.723 10.2063 216.124L144.277 255.893L145.006 256.111Z" fill="white"/>
<path d="M45.7115 254.654L65.7966 232.126L65.1404 231.324L44.8002 254.143C45.0918 254.325 45.3835 254.471 45.7115 254.654ZM90.3652 239.38L91.4952 239.526L69.0408 190.389C68.6763 190.316 68.2753 190.243 67.9108 190.17L90.3652 239.38ZM39.9886 224.799L40.7905 224.289L27.3762 197.351C27.121 197.533 26.8658 197.715 26.5742 197.898L39.9886 224.799Z" fill="white"/>
<path d="M142.382 253.742L142.82 254.07C142.82 254.07 142.893 253.925 143.075 253.706C145.408 250.024 163.269 220.061 152.079 191.154C152.006 190.935 151.896 190.68 151.823 190.462C150.365 186.816 148.433 183.208 145.955 179.672C145.955 179.672 142.637 174.641 134.254 171.142C134.071 171.069 133.889 170.996 133.67 170.923C129.843 169.392 124.958 168.226 118.944 167.971H118.579C118.579 167.971 118.506 168.08 118.324 168.335C116.829 170.522 109.065 182.734 109.648 199.757C109.648 199.976 109.648 200.194 109.685 200.413C110.377 215.686 117.85 234.678 142.382 253.742Z" fill="#2A94F4"/>
<path d="M142.526 254.216L142.854 254.106L143.183 253.997L143.11 253.742L118.942 168.043H118.577C118.577 168.043 118.505 168.152 118.322 168.407L142.381 253.815L142.526 254.216Z" fill="white"/>
<path d="M109.684 200.412L128.566 203.584L128.749 202.964L109.611 199.756C109.648 199.975 109.648 200.193 109.684 200.412ZM133.014 219.221L133.305 219.878L152.078 191.19C152.005 190.971 151.896 190.716 151.823 190.497L133.014 219.221ZM123.755 187.253L124.301 187.508L134.216 171.178C134.034 171.105 133.852 171.032 133.633 170.959L123.755 187.253Z" fill="white"/>
<path d="M142.673 255.711C142.929 255.747 143.184 255.747 143.402 255.784V255.237C143.402 249.842 142.272 206.792 109.174 183.755C108.919 183.572 108.664 183.39 108.372 183.208C104.144 180.365 99.4049 177.813 94.1193 175.735C94.1193 175.735 86.7925 172.6 74.9091 174.423C74.654 174.459 74.3623 174.496 74.1072 174.532C68.7123 175.444 62.4061 177.376 55.4438 181.021C55.298 181.094 55.1886 181.167 55.0428 181.24C55.0428 181.24 55.0428 181.422 55.0063 181.786C54.8605 185.067 54.8241 202.928 67.5458 220.389C67.7281 220.608 67.8739 220.826 68.0562 221.082C79.6479 236.61 101.556 251.701 142.673 255.711Z" fill="#FFBE55"/>
<path d="M143.147 256.113L143.402 255.785L143.657 255.456L143.402 255.238L55.4433 181.021C55.2975 181.094 55.1881 181.167 55.0423 181.24C55.0423 181.24 55.0423 181.422 55.0059 181.787L142.636 255.712L143.147 256.113Z" fill="white"/>
<path d="M68.0552 221.045L91.5303 212.042L91.3116 211.24L67.5449 220.353C67.7272 220.608 67.873 220.827 68.0552 221.045ZM107.642 225.565L108.444 226.076L109.21 183.718C108.954 183.536 108.699 183.354 108.408 183.172L107.642 225.565ZM74.5437 198.044L75.3456 197.971L74.9082 174.387C74.6531 174.423 74.3614 174.46 74.1063 174.496L74.5437 198.044Z" fill="white"/>
<path d="M163.925 257.825L162.576 268.397L158.02 270.037L159.223 257.352L163.925 257.825ZM143.147 257.825L141.799 268.397L137.242 270.037L138.445 257.352L143.147 257.825Z" fill="#DBA17B"/>
<path d="M149.052 127.035L141.871 136.185L148.724 139.903L156.415 130.389L149.052 127.035Z" fill="#CC9271"/>
<path d="M167.461 127.691C167.242 126.305 167.096 124.884 166.987 123.462C166.914 122.332 166.95 121.202 166.987 120.072C167.096 118.942 167.096 117.812 167.023 116.755C167.023 116.791 166.987 116.828 166.987 116.864C166.914 115.917 166.768 114.969 166.513 114.058C165.784 111.761 164.289 109.61 161.956 108.808C157.29 107.241 151.604 111.615 149.235 118.614C146.865 125.613 148.724 132.575 153.39 134.143C156.707 135.273 160.535 133.377 163.305 129.695C164.399 129.659 165.492 129.586 166.549 129.294C166.914 129.185 167.278 129.039 167.461 128.711C167.57 128.383 167.533 128.019 167.461 127.691Z" fill="#DBA17B"/>
<path d="M171.324 116.172C172.819 115.662 174.094 114.386 174.386 112.855C174.678 111.288 173.803 109.538 172.308 109.028C171.178 108.627 169.829 108.955 168.809 108.372C168.189 108.007 167.788 107.387 167.351 106.841C164.945 103.779 160.972 102.029 157.108 102.321C153.244 102.612 149.562 104.909 147.63 108.262C145.99 111.106 145.589 114.496 145.881 117.74C146.172 120.984 147.156 124.155 148.104 127.254C149.708 124.082 151.312 120.911 152.916 117.776C153.28 117.084 153.645 116.355 154.301 115.954C154.957 115.553 155.978 115.589 156.342 116.245C156.597 116.683 156.524 117.229 156.524 117.703C156.524 118.214 156.597 118.797 157.035 119.016C157.509 119.271 158.128 118.979 158.566 118.651C159.514 117.958 160.352 117.12 161.117 116.209C161.591 115.626 162.065 114.897 162.758 114.605C163.523 114.277 164.179 114.641 164.872 115.042C165.82 115.589 166.804 116.099 167.898 116.318C169.028 116.537 170.23 116.537 171.324 116.172ZM166.512 182.479C167.934 191.592 169.283 207.448 170.704 216.561C172.782 229.939 166.184 249.951 163.742 263.256C161.956 263.037 160.388 262.491 158.602 262.272C159.185 239.708 158.165 210.948 156.707 188.42C159.878 188.821 163.341 182.078 166.512 182.479Z" fill="#0B4870"/>
<path d="M144.387 188.821C146.246 188.93 148.068 187.253 149.928 187.399C152.188 187.545 154.63 187.982 156.781 188.638C158.931 189.294 161.446 187.29 163.561 186.561C163.998 190.206 163.233 196.694 162.54 200.303C160.936 208.76 159.077 217.144 156.926 225.455C155.76 230.048 152.297 234.458 150.474 238.833C149.709 240.692 148.98 242.624 148.287 244.519C146.829 248.456 144.314 259.537 142.856 263.474C141.07 263.328 139.247 263.292 137.461 263.146C137.643 259.173 139.211 247.727 139.356 243.754C139.648 237.119 142.965 230.157 145.59 224.033C144.277 217.691 144.241 210.801 144.277 204.313C144.314 198.59 144.35 194.507 144.387 188.821Z" fill="#0E538C"/>
<path d="M169.574 164.325C170.23 164.434 170.996 164.398 171.506 163.961C171.761 163.742 171.943 163.414 172.126 163.159C172.745 162.43 173.803 162.065 174.714 162.284C176.609 162.758 177.521 165.163 179.416 165.564C179.708 165.637 179.999 165.637 180.291 165.747C180.583 165.856 180.838 166.038 180.874 166.33C180.947 166.694 180.692 166.986 180.437 167.278C180.109 167.642 179.744 168.007 179.416 168.371C179.27 168.517 179.088 168.699 178.906 168.772C178.505 168.954 177.994 168.772 177.666 169.027C177.375 169.246 177.302 169.683 176.974 169.902C176.5 170.194 175.844 169.756 175.297 169.975C175.005 170.084 174.823 170.34 174.604 170.485C174.203 170.741 173.657 170.704 173.183 170.558C172.709 170.376 172.308 170.084 171.907 169.866C171.36 169.574 170.777 169.355 170.194 169.173C168.59 168.772 166.877 168.882 165.2 169.027C165.127 167.715 165.09 166.403 165.018 165.091C165.018 164.872 165.018 164.617 165.127 164.398C165.346 163.997 165.929 163.997 166.403 164.106C166.986 164.252 167.278 164.216 167.824 164.106C168.371 163.997 169.027 164.252 169.574 164.325Z" fill="#DBA17B"/>
<path d="M173.877 169.355C173.694 169.064 173.767 168.663 174.059 168.48L184.557 161.554C184.849 161.372 185.25 161.445 185.432 161.737C185.614 162.028 185.541 162.429 185.25 162.612L174.752 169.537C174.46 169.72 174.059 169.647 173.877 169.355Z" fill="#0B4870"/>
<path d="M165.491 262.928C165.637 262.6 166.038 262.491 166.293 262.709C167.423 263.657 170.449 265.808 176.463 267.193C176.463 267.193 177.921 267.485 178.979 269.198H156.67V265.261C156.67 264.824 157.18 264.605 157.508 264.86L158.383 265.589C158.784 265.954 159.331 266.136 159.841 266.136L163.049 266.172C163.742 266.172 164.361 265.771 164.616 265.115L165.491 262.928Z" fill="#CCE9FF"/>
<path d="M179.004 271.504H156.695V269.207H179.004V271.504Z" fill="#0E538C"/>
<path d="M143.693 264.168C143.912 263.912 144.349 263.949 144.531 264.241C145.26 265.516 147.411 268.542 152.551 271.932C152.551 271.932 153.827 272.734 154.264 274.666L133.268 267.12L134.616 263.402C134.762 263.001 135.309 262.928 135.528 263.329L136.074 264.313C136.33 264.787 136.767 265.152 137.277 265.334L140.266 266.428C140.922 266.683 141.652 266.464 142.089 265.954L143.693 264.168Z" fill="#CCE9FF"/>
<path d="M153.445 276.84L132.455 269.284L133.233 267.123L154.223 274.679L153.445 276.84Z" fill="#0E538C"/>
<path d="M165.82 162.467C167.424 167.826 168.627 176.246 169.392 181.787C169.575 183.099 169.465 188.057 168.554 189.004C168.007 189.588 153.9 191.155 148.031 193.087C147.23 193.342 143.402 194.837 142.637 194.509C141.543 194.035 140.96 189.223 141.215 188.093C144.605 173.476 144.605 184.229 139.647 155.469C138.663 149.709 136.768 144.387 138.736 138.883C139.392 137.06 144.35 131.738 144.35 131.738C144.35 131.738 146.027 133.524 147.74 134.545C149.161 135.383 151.021 136.878 152.223 137.17C157.728 138.445 163.888 156.015 165.82 162.467Z" fill="#2A94F4"/>
<path d="M159.003 201.471C159.477 202.492 159.696 203.622 159.805 204.715C159.951 206.647 159.732 208.579 159.185 210.402C158.384 210.219 157.727 209.49 157.618 208.652C157.983 209.235 157.655 210.11 156.998 210.292C156.342 210.475 155.613 209.855 155.65 209.162C155.467 209.746 154.811 210.183 154.228 210.074C153.608 209.964 153.134 209.381 153.171 208.761C153.426 208.944 153.353 209.381 153.134 209.563C152.879 209.746 152.515 209.709 152.26 209.563C152.004 209.417 151.822 209.126 151.713 208.834C151.531 208.324 151.458 207.777 151.421 207.23C151.239 204.897 151.093 202.528 150.911 200.195C150.874 199.867 150.874 199.539 151.02 199.247C151.312 198.701 152.077 198.628 152.733 198.664L155.249 198.773C155.795 198.81 156.379 198.773 156.889 198.956C157.8 199.393 158.566 200.596 159.003 201.471Z" fill="#DBA17B"/>
<path d="M149.891 146.72C149.6 151.641 149.308 156.598 148.98 161.519C148.798 164.253 148.652 167.024 149.053 169.721C149.381 171.981 150.074 174.168 150.766 176.319C153.281 184.12 155.797 191.92 158.348 199.721C155.651 199.539 152.917 199.357 150.219 199.174C148.069 190.827 143.913 175.918 143.549 174.569C140.56 165.201 139.503 155.25 140.45 145.48L149.891 146.72Z" fill="#2A94F4"/>
<path d="M137.425 98.7841C137.425 89.1243 126.817 81.2871 113.731 81.2871C100.645 81.2871 90.0371 89.1243 90.0371 98.7841C90.0371 108.444 100.645 116.281 113.731 116.281C116.21 116.281 118.615 115.989 120.839 115.479L129.405 122.478V111.907C134.326 108.699 137.425 103.997 137.425 98.7841Z" fill="#FFBE55"/>
<path d="M123.755 81.8354C123.755 73.9982 115.152 67.6191 104.508 67.6191C93.8644 67.6191 85.2617 73.9618 85.2617 81.8354C85.2617 89.6726 93.8644 96.0517 104.508 96.0517C106.513 96.0517 108.482 95.833 110.304 95.3956L117.23 101.082V92.5159C121.24 89.8549 123.755 86.0639 123.755 81.8354Z" fill="white"/>
<path d="M114.459 76.7322H93.6815C93.3899 76.7322 93.1348 76.4771 93.1348 76.1855C93.1348 75.8938 93.3899 75.6387 93.6815 75.6387H114.459C114.751 75.6387 115.006 75.8938 115.006 76.1855C115.006 76.4771 114.751 76.7322 114.459 76.7322ZM114.459 80.6691H93.6815C93.3899 80.6691 93.1348 80.4139 93.1348 80.1223C93.1348 79.8307 93.3899 79.5755 93.6815 79.5755H114.459C114.751 79.5755 115.006 79.8307 115.006 80.1223C115.006 80.4139 114.751 80.6691 114.459 80.6691ZM114.459 84.6423H93.6815C93.3899 84.6423 93.1348 84.3872 93.1348 84.0955C93.1348 83.8039 93.3899 83.5488 93.6815 83.5488H114.459C114.751 83.5488 115.006 83.8039 115.006 84.0955C115.006 84.3872 114.751 84.6423 114.459 84.6423ZM114.459 88.5791H93.6815C93.3899 88.5791 93.1348 88.324 93.1348 88.0324C93.1348 87.7407 93.3899 87.4856 93.6815 87.4856H114.459C114.751 87.4856 115.006 87.7407 115.006 88.0324C115.006 88.324 114.751 88.5791 114.459 88.5791Z" fill="#FFBE55"/>
</svg>
