<svg width="31" height="31" viewBox="0 0 31 31" fill="none" xmlns="http://www.w3.org/2000/svg">
<g id="f7:desktopcomputer" clip-path="url(#clip0_1144_652)">
<path id="Vector" d="M3.28568 23.3705H11.2059L10.8642 25.6987H9.13141C8.54894 25.6987 8.05554 26.1791 8.05554 26.774C8.05554 27.3684 8.54894 27.8618 9.13087 27.8618H21.0998C21.6817 27.8618 22.1751 27.3684 22.1751 26.774C22.1731 26.4894 22.0592 26.2171 21.858 26.0158C21.6567 25.8146 21.3844 25.7007 21.0998 25.6987H19.367L19.0247 23.3705H26.945C29.1086 23.3705 30.1963 22.3329 30.1963 20.1191V5.61951C30.1963 3.4057 29.1086 2.36816 26.945 2.36816H3.28568C1.12207 2.36816 0.324219 3.4057 0.324219 5.61951V20.1191C0.324219 22.3329 1.12207 23.3705 3.28568 23.3705ZM2.61522 17.8038C2.23573 17.8038 2.07108 17.6516 2.07108 17.2597V5.6573C2.07108 4.75849 2.46353 4.40491 3.32347 4.40491H26.9072C27.7801 4.40491 28.1596 4.75849 28.1596 5.6573V17.2591C28.1596 17.651 27.9949 17.8033 27.6154 17.8033L2.61522 17.8038ZM15.1153 22.1181C14.4827 22.1181 13.9385 21.5863 13.9385 20.9413C13.9385 20.3215 14.4827 19.7774 15.1153 19.7774C15.748 19.7774 16.2921 20.3215 16.2921 20.9413C16.2921 21.5863 15.748 22.1181 15.1153 22.1181Z" fill="#1DD48B"/>
</g>
<defs>
<clipPath id="clip0_1144_652">
<rect width="30.23" height="30.23" fill="white"/>
</clipPath>
</defs>
</svg>
