<svg width="60" height="60" viewBox="0 0 60 60" fill="none" xmlns="http://www.w3.org/2000/svg">
<g id="uit:google">
<path id="Vector" d="M55.3291 25.0834C55.2764 24.7956 55.1245 24.5354 54.8997 24.3481C54.675 24.1608 54.3916 24.0583 54.0991 24.0584H30.5541C30.2234 24.0584 29.9062 24.1894 29.672 24.4228C29.4377 24.6561 29.3054 24.9728 29.3041 25.3034V34.9759C29.3041 35.3074 29.4358 35.6254 29.6702 35.8598C29.9046 36.0942 30.2226 36.2259 30.5541 36.2259H42.3916C41.6514 38.3783 40.2216 40.2264 38.3241 41.4834C36.0067 42.9621 33.3024 43.7191 30.5541 43.6584C27.6968 43.6297 24.9213 42.7008 22.6224 41.0038C20.3234 39.3067 18.6182 36.928 17.7491 34.2059V34.2009C16.792 31.3799 16.792 28.322 17.7491 25.5009V25.4959C18.6179 22.7746 20.3224 20.3965 22.6203 18.6995C24.9183 17.0026 27.6926 16.0732 30.5491 16.0434C33.7818 15.9894 36.9063 17.2077 39.2491 19.4359C39.485 19.6626 39.8005 19.7878 40.1277 19.7845C40.4549 19.7812 40.7677 19.6498 40.9991 19.4184L48.1691 12.2459C48.288 12.1271 48.3817 11.9856 48.4447 11.8298C48.5076 11.674 48.5385 11.507 48.5355 11.339C48.5324 11.171 48.4955 11.0053 48.427 10.8518C48.3585 10.6984 48.2597 10.5603 48.1366 10.4459C43.3761 5.98639 37.0792 3.5346 30.5566 3.60092C25.6873 3.58629 20.9109 4.93264 16.7661 7.48808C12.6213 10.0435 9.27302 13.7064 7.09908 18.0634C5.26287 21.7215 4.30664 25.7579 4.30664 29.8509C4.30664 33.9439 5.26287 37.9804 7.09908 41.6384C9.27348 45.9951 12.6218 49.6576 16.7665 52.213C20.9112 54.7684 25.6875 56.115 30.5566 56.1009C36.9515 56.2681 43.1687 53.9859 47.9366 49.7209L47.9491 49.7159C50.5315 47.2247 52.5645 44.221 53.9177 40.8978C55.2709 37.5745 55.9143 34.005 55.8066 30.4184C55.8066 28.6284 55.6441 26.8434 55.3291 25.0834ZM30.5566 6.10092C35.9992 6.04433 41.2838 7.92965 45.4616 11.4184L40.0616 16.8184C37.3707 14.6543 34.0094 13.4962 30.5566 13.5434C27.4707 13.5645 24.4566 14.4765 21.8767 16.1698C19.2968 17.8631 17.261 20.2656 16.0141 23.0884L9.81408 18.2784C11.8652 14.5782 14.872 11.4964 18.5206 9.35479C22.1693 7.2132 26.3259 6.08783 30.5566 6.10092ZM6.80658 29.8534C6.80047 26.6663 7.44089 23.511 8.68908 20.5784L15.1216 25.5634C14.3393 28.3691 14.3393 31.3353 15.1216 34.1409L8.68908 39.1259C7.44823 36.191 6.80731 33.0374 6.80408 29.8509M30.5541 53.6009C26.3228 53.6139 22.1656 52.4908 18.5165 50.3488C14.8674 48.2067 11.8603 45.1243 9.80908 41.4234L16.0116 36.6134C17.2583 39.4364 19.294 41.8391 21.8739 43.5325C24.4539 45.2258 27.4681 46.1377 30.5541 46.1584C33.4875 46.2027 36.3807 45.4723 38.9416 44.0409L39.2166 44.2534L45.1241 48.8434C40.9551 52.0502 35.8121 53.7296 30.5541 53.6009ZM47.0091 47.1409L41.0641 42.5259C43.246 40.6296 44.7175 38.0472 45.2366 35.2034C45.2695 35.0234 45.2625 34.8383 45.2161 34.6612C45.1696 34.4842 45.0849 34.3195 44.9678 34.1788C44.8507 34.0381 44.7042 33.9249 44.5385 33.847C44.3728 33.7692 44.1921 33.7287 44.0091 33.7284H31.8041V26.5559H53.0341C53.2141 27.8359 53.3041 29.1259 53.3041 30.4184C53.4846 36.6039 51.2233 42.6095 47.0091 47.1409Z" fill="#1dd48b"/>
</g>
</svg>
