<svg width="355" height="237" viewBox="0 0 355 237" fill="none" xmlns="http://www.w3.org/2000/svg">
<path d="M298.055 199.124C298.6 199.918 299.045 200.785 299.38 201.702C299.469 201.94 299.555 202.187 299.637 202.448C300.954 206.641 298.867 211.669 298.271 211.126C297.674 210.583 295.812 209.578 295.456 210.992C295.087 212.06 294.512 213.033 293.768 213.849C291.349 216.441 289.159 213.64 287.722 210.747C287.252 209.792 286.834 208.809 286.471 207.803C286.152 206.915 285.969 206.3 285.969 206.3L296.045 197.154C296.849 197.636 297.537 198.311 298.055 199.124Z" fill="#0CA9F9"/>
<path d="M282.176 204.972C282.72 205.766 283.165 206.632 283.5 207.548C283.589 207.787 283.675 208.035 283.757 208.296C285.074 212.489 282.988 217.517 282.391 216.975C281.794 216.433 279.933 215.426 279.576 216.84C279.208 217.908 278.633 218.881 277.889 219.697C275.47 222.289 273.28 219.488 271.843 216.595C271.373 215.64 270.955 214.657 270.592 213.651C270.273 212.762 270.09 212.148 270.09 212.148L280.166 203.002C280.97 203.484 281.658 204.158 282.176 204.972Z" fill="#0CA9F9"/>
<path d="M250.286 213.052C250.23 214.033 250.055 215.003 249.765 215.936C249.69 216.179 249.608 216.43 249.515 216.686C248.017 220.813 243.398 223.262 243.264 222.438C243.13 221.614 242.302 219.577 241.179 220.421C240.255 220.993 239.229 221.352 238.167 221.475C234.751 221.826 234.74 218.181 235.37 214.976C235.581 213.922 235.848 212.881 236.171 211.86C236.458 210.958 236.684 210.361 236.684 210.361L249.92 210.171C250.25 211.088 250.375 212.074 250.286 213.052Z" fill="#0CA9F9"/>
<path d="M233.187 208.457C233.131 209.438 232.956 210.408 232.665 211.342C232.591 211.584 232.509 211.835 232.416 212.092C230.918 216.218 226.299 218.667 226.165 217.844C226.031 217.021 225.202 214.983 224.079 215.827C223.155 216.399 222.129 216.758 221.067 216.881C217.652 217.232 217.64 213.587 218.271 210.382C218.481 209.328 218.748 208.287 219.071 207.266C219.358 206.365 219.585 205.767 219.585 205.767L232.821 205.576C233.15 206.493 233.275 207.479 233.187 208.457Z" fill="#0CA9F9"/>
<path d="M324.933 146.658C324.933 184.32 312.974 214.852 257.783 214.852C220.696 214.852 192.004 205.035 190.632 146.658C189.747 109.007 220.696 78.4639 257.783 78.4639C294.869 78.4639 324.933 108.995 324.933 146.658Z" fill="#0CA9F9"/>
<path opacity="0.2" d="M294.935 107.496L290.033 109.376C287.535 105.807 284.846 102.392 281.981 99.1502C278.854 95.597 275.442 92.341 271.784 89.4192C259.234 79.5104 249.528 79.2612 246.322 79.5128L253.691 78.5898C260.654 79.8666 267.351 82.4458 273.471 86.2083C277.753 88.8377 281.741 91.9761 285.358 95.5632C289.013 99.0919 292.231 103.102 294.935 107.496Z" fill="black"/>
<path opacity="0.2" d="M250.627 111.048C250.627 111.048 244.157 88.0724 249.647 81.807C249.647 81.807 258.273 78.6739 264.743 96.4273L250.627 111.048Z" fill="black"/>
<path d="M283.389 89.5886C283.389 89.5886 300.546 74.0556 308.136 76.8983C308.136 76.8983 314.292 84.0588 301.623 97.4959L283.389 89.5886Z" fill="#0CA9F9"/>
<path opacity="0.2" d="M283.389 89.5886C283.389 89.5886 300.546 74.0556 308.136 76.8983C308.136 76.8983 314.292 84.0588 301.623 97.4959L283.389 89.5886Z" fill="black"/>
<path d="M336.894 163.994C336.894 184.239 323.257 200.232 310.426 200.232C297.594 200.232 290.428 184.239 290.428 163.994C290.428 143.75 300.851 128.13 313.661 127.339C333.953 126.085 336.894 143.75 336.894 163.994Z" fill="#0CA9F9"/>
<path opacity="0.2" d="M336.894 163.994C336.894 184.239 323.257 200.232 310.426 200.232C297.594 200.232 290.428 184.239 290.428 163.994C290.428 143.75 300.851 128.13 313.661 127.339C333.953 126.085 336.894 143.75 336.894 163.994Z" fill="black"/>
<path d="M309.641 172.871C312.023 172.871 313.955 170.253 313.955 167.023C313.955 163.793 312.023 161.175 309.641 161.175C307.259 161.175 305.328 163.793 305.328 167.023C305.328 170.253 307.259 172.871 309.641 172.871Z" fill="#0CA9F9"/>
<path d="M324.934 167.857C327.316 167.857 329.248 165.239 329.248 162.009C329.248 158.779 327.316 156.161 324.934 156.161C322.552 156.161 320.621 158.779 320.621 162.009C320.621 165.239 322.552 167.857 324.934 167.857Z" fill="#0CA9F9"/>
<path d="M286.195 91.7899C286.198 93.0998 285.911 94.392 285.358 95.5618C284.628 97.1164 283.443 98.3759 281.982 99.1504C278.855 95.5973 275.443 92.3413 271.785 89.4194C272.111 88.2262 272.687 87.1276 273.471 86.207C274.147 85.404 274.974 84.7614 275.898 84.3206C276.822 83.8798 277.822 83.6508 278.835 83.6484C280.824 83.6895 282.716 84.57 284.096 86.0966C285.477 87.6231 286.231 89.6708 286.195 91.7899Z" fill="#FAD46F"/>
<path d="M27.7269 103.861C27.7269 103.861 41.6968 118.744 33.8116 140.836C25.9263 162.929 47.3308 199.641 47.3308 199.641C47.3308 199.641 47.1006 199.607 46.6768 199.525C17.9852 194.124 3.72622 159.167 19.6822 133.194C25.6142 123.54 30.4705 112.215 27.7269 103.861Z" fill="#6C63FF"/>
<path d="M27.7245 103.861C27.7245 103.861 35.6098 122.103 27.7245 136.985C19.8393 151.867 26.3717 193.635 47.3285 199.637" stroke="#535461" stroke-width="2" stroke-miterlimit="10"/>
<path d="M2.84375 164.067C2.84375 164.067 18.7856 161.361 20.2293 176.583C21.673 191.805 50.8741 193.911 50.8741 193.911C50.8741 193.911 50.6826 194.049 50.3258 194.3C26.2343 211.153 3.18568 205.029 6.65936 182.641C7.94662 174.315 7.8468 165.95 2.84375 164.067Z" fill="#6C63FF"/>
<path opacity="0.2" d="M2.84375 164.067C2.84375 164.067 18.7856 161.361 20.2293 176.583C21.673 191.805 50.8741 193.911 50.8741 193.911C50.8741 193.911 50.6826 194.049 50.3258 194.3C26.2343 211.153 3.18568 205.029 6.65936 182.641C7.94662 174.315 7.8468 165.95 2.84375 164.067Z" fill="#F5F5F5"/>
<path d="M2.84375 164.065C2.84375 164.065 15.2195 166.96 14.2004 178.944C13.1814 190.929 32.576 205.312 50.889 193.908" stroke="#535461" stroke-width="2" stroke-miterlimit="10"/>
<path opacity="0.1" d="M326.487 113.274C324.439 123.966 313.926 129.327 308.036 137.303C296.936 152.336 301.257 174.294 308.301 191.879C310.658 197.769 313.334 203.999 312.335 210.312C311.118 218.035 304.65 223.679 297.858 226.673C291.626 229.351 284.892 230.44 278.194 229.851C271.496 229.263 265.02 227.015 259.284 223.286C249.45 216.772 242.411 206.174 232.413 199.954C215.68 189.548 194.381 193.479 176.209 200.648C163.356 205.717 149.3 212.314 136.526 207.014C127.539 203.284 121.324 194.206 117.939 184.586C116.307 179.94 115.12 174.911 111.999 171.229C110.066 169.106 107.773 167.391 105.242 166.175C82.5886 154.209 53.9708 160.62 31.98 147.341C17.1213 138.38 7.6069 121.476 3.39572 103.847C-0.815451 86.2185 -0.329 67.7476 0.74372 49.5792C1.50431 36.6809 2.8683 22.8971 10.606 12.9462C18.7915 2.42084 32.827 -1.49711 45.5387 0.505908C58.2505 2.50893 69.7457 9.6441 79.8733 18.0443C92.544 28.5506 104.266 41.6282 119.802 45.885C130.381 48.7824 141.513 47.1968 152.431 46.6476C170.677 45.731 188.928 47.7714 207.07 50.0061C215.911 51.0957 224.78 52.2377 233.543 53.8947C235.507 54.2651 237.472 54.6637 239.436 55.0907C240.418 55.3023 241.401 55.5261 242.383 55.762C243.149 55.9406 243.912 56.1295 244.675 56.3176C245.88 56.6191 247.08 56.9331 248.276 57.2595C251.712 58.2013 255.114 59.2843 258.482 60.5085C270.192 64.7685 279.58 72.4996 290.639 77.9024C297.846 81.4244 305.706 82.3973 312.53 86.8803C320.935 92.418 328.641 102.029 326.487 113.274Z" fill="#0CA9F9"/>
<path d="M93.5054 222.399C93.5054 222.399 82.671 223.149 82.5235 232.514C82.5026 233.769 93.8094 234.133 107.231 226.446C120.653 218.758 121.567 217.948 121.567 217.948C121.567 217.948 116.382 209.046 112.725 207.832C109.068 206.619 93.5054 222.399 93.5054 222.399Z" fill="#CBCDDA"/>
<path d="M123.982 231.243C124.522 230.774 124.915 230.141 125.11 229.429C125.198 229.071 125.168 228.691 125.024 228.355C124.88 228.018 124.632 227.744 124.321 227.579C123.596 227.284 122.821 227.818 122.235 228.361C121.649 228.905 120.974 229.52 120.205 229.403C120.6 229.021 120.896 228.537 121.063 227.998C121.231 227.458 121.264 226.881 121.16 226.324C121.127 226.093 121.035 225.876 120.895 225.696C120.491 225.238 119.763 225.436 119.28 225.797C117.747 226.946 117.321 229.162 117.312 231.159C117.228 230.429 117.218 229.693 117.282 228.961C117.311 228.593 117.256 228.222 117.12 227.882C116.985 227.542 116.773 227.242 116.504 227.009C116.142 226.802 115.736 226.699 115.326 226.71C114.984 226.658 114.636 226.683 114.303 226.783C113.971 226.884 113.663 227.058 113.398 227.295C113.143 227.66 113.011 228.108 113.024 228.564C113.038 229.02 113.196 229.457 113.473 229.805C114.044 230.488 114.718 231.063 115.468 231.507C116.039 231.869 116.527 232.364 116.894 232.954C116.937 233.036 116.972 233.122 116.999 233.212H121.31C122.28 232.687 123.179 232.025 123.982 231.243Z" fill="#6C63FF"/>
<path d="M116.914 208.765C116.914 208.765 123.429 208.214 125.304 210.602C127.179 212.99 133.871 218.465 131.111 219.684C128.351 220.903 113.516 216.033 113.516 216.033L116.914 208.765Z" fill="#FFB9B9"/>
<path d="M90.1299 125.646C90.0744 124.848 89.7723 124.093 89.2709 123.497C88.7695 122.902 88.0971 122.5 87.3587 122.355C86.3664 122.186 85.258 122.485 84.4057 121.916C84.0443 121.623 83.7189 121.283 83.4373 120.903C82.1481 119.559 80.4137 118.811 78.6101 118.82C76.8254 118.839 75.0543 119.153 73.3597 119.749C69.9419 120.797 66.3311 122.336 64.5127 125.592C61.7482 130.548 64.2989 137.229 62.1125 142.503C61.1612 144.804 59.348 146.687 58.7602 149.126C57.9676 152.38 59.5305 155.688 60.7336 158.799C61.813 161.59 62.6327 164.488 63.1808 167.449C63.7631 170.051 63.8338 172.753 63.3886 175.385C63.1495 176.525 62.7546 177.687 62.967 178.83C63.2843 180.563 64.8562 181.655 66.2864 182.545L66.6589 182.778C68.7194 184.061 70.8388 185.372 73.1995 185.69C74.6718 185.924 76.1756 185.637 77.4792 184.871C78.1231 184.481 78.6711 183.934 79.0781 183.275C79.4851 182.615 79.7395 181.863 79.8206 181.078C79.9413 179.304 79.0138 177.642 78.8142 175.874C78.7688 175.609 78.7878 175.336 78.8693 175.08C79.0367 174.758 79.2861 174.493 79.5889 174.315C81.6071 172.768 83.1778 170.65 84.1226 168.199C85.0674 165.749 85.3484 163.066 84.9339 160.455C84.3223 156.918 82.4197 153.403 83.3405 149.943C83.8493 148.031 85.1604 146.483 85.8956 144.657C86.6728 142.708 86.7695 140.526 86.1683 138.507C85.7481 137.112 84.9875 135.719 85.249 134.285C85.7101 131.738 88.8948 130.927 90.0979 128.67C90.5198 127.814 90.6367 126.824 90.4269 125.883C90.2172 124.942 89.6949 124.113 88.9566 123.55" fill="#B96B6B"/>
<path opacity="0.1" d="M90.1299 125.646C90.0744 124.848 89.7723 124.093 89.2709 123.497C88.7695 122.902 88.0971 122.5 87.3587 122.355C86.3664 122.186 85.258 122.485 84.4057 121.916C84.0443 121.623 83.7189 121.283 83.4373 120.903C82.1481 119.559 80.4137 118.811 78.6101 118.82C76.8254 118.839 75.0543 119.153 73.3597 119.749C69.9419 120.797 66.3311 122.336 64.5127 125.592C61.7482 130.548 64.2989 137.229 62.1125 142.503C61.1612 144.804 59.348 146.687 58.7602 149.126C57.9676 152.38 59.5305 155.688 60.7336 158.799C61.813 161.59 62.6327 164.488 63.1808 167.449C63.7631 170.051 63.8338 172.753 63.3886 175.385C63.1495 176.525 62.7546 177.687 62.967 178.83C63.2843 180.563 64.8562 181.655 66.2864 182.545L66.6589 182.778C68.7194 184.061 70.8388 185.372 73.1995 185.69C74.6718 185.924 76.1756 185.637 77.4792 184.871C78.1231 184.481 78.6711 183.934 79.0781 183.275C79.4851 182.615 79.7395 181.863 79.8206 181.078C79.9413 179.304 79.0138 177.642 78.8142 175.874C78.7688 175.609 78.7878 175.336 78.8693 175.08C79.0367 174.758 79.2861 174.493 79.5889 174.315C81.6071 172.768 83.1778 170.65 84.1226 168.199C85.0674 165.749 85.3484 163.066 84.9339 160.455C84.3223 156.918 82.4197 153.403 83.3405 149.943C83.8493 148.031 85.1604 146.483 85.8956 144.657C86.6728 142.708 86.7695 140.526 86.1683 138.507C85.7481 137.112 84.9875 135.719 85.249 134.285C85.7101 131.738 88.8948 130.927 90.0979 128.67C90.5198 127.814 90.6367 126.824 90.4269 125.883C90.2172 124.942 89.6949 124.113 88.9566 123.55" fill="black"/>
<path d="M96.6808 214.159H62.5996V194.74L81.6218 202.508L96.6808 194.74V214.159Z" fill="#777B9B"/>
<path opacity="0.1" d="M96.6808 214.159H62.5996V194.74L81.6218 202.508L96.6808 194.74V214.159Z" fill="black"/>
<path d="M92.5599 216.026C92.5599 216.026 86.3768 217.599 85.7436 220.484C85.1104 223.369 89.3894 223.103 89.3894 223.103C89.3894 223.103 95.413 221.791 96.2056 216.546C96.9982 211.3 92.5599 216.026 92.5599 216.026Z" fill="#FFB9B9"/>
<path opacity="0.1" d="M92.5599 216.026C92.5599 216.026 86.3768 217.599 85.7436 220.484C85.1104 223.369 89.3894 223.103 89.3894 223.103C89.3894 223.103 95.413 221.791 96.2056 216.546C96.9982 211.3 92.5599 216.026 92.5599 216.026Z" fill="black"/>
<path d="M41.8329 205.546C41.8329 205.546 35.1753 211.457 47.5399 219.732C59.9045 228.006 71.7931 226.487 71.7931 226.487C71.7931 226.487 84.6903 224.861 86.6428 218.411C88.5953 211.962 77.0241 206.56 77.0241 206.56C77.0241 206.56 64.3429 206.56 58.6358 202.676C52.9288 198.792 41.8329 205.546 41.8329 205.546Z" fill="#777B9B"/>
<path d="M77.8188 195.414C77.8188 195.414 83.5259 198.96 91.2927 195.414C97.2686 192.685 110.378 193.755 116.106 194.4C117.422 194.537 118.67 195.089 119.69 195.987C120.709 196.885 121.453 198.086 121.826 199.438C122.422 201.696 121.984 204.47 118.399 207.071C110.473 212.812 104.925 214.501 102.864 216.865C100.803 219.229 94.9377 220.412 94.9377 220.412C94.9377 220.412 87.4882 219.229 87.4882 217.541C87.4882 215.854 94.3045 207.578 94.3045 207.578C94.3045 207.578 84.3177 217.372 74.0137 204.2C63.7096 191.028 77.8188 195.414 77.8188 195.414Z" fill="#777B9B"/>
<path d="M74.9642 171.604L54.832 156.912C54.832 156.912 64.4887 149.937 65.3179 143.701C65.5062 142.486 65.2724 141.239 64.6601 140.194C60.697 133.439 78.6099 140.194 78.6099 140.194C78.7245 141.953 78.9484 143.703 79.2804 145.431C80.0588 149.544 81.7007 155.02 85.1059 157.759C90.9745 162.482 74.9642 171.604 74.9642 171.604Z" fill="#FFB9B9"/>
<path opacity="0.1" d="M79.2836 145.42C77.0933 146.777 74.5495 147.343 72.0324 147.033C69.5152 146.723 67.1599 145.553 65.3181 143.699C65.5065 142.484 65.2727 141.237 64.6603 140.192C60.6972 133.437 78.6102 140.192 78.6102 140.192C78.7251 141.948 78.9491 143.695 79.2806 145.42H79.2836Z" fill="black"/>
<path d="M73.3791 146.782C79.8577 146.782 85.1097 141.187 85.1097 134.286C85.1097 127.384 79.8577 121.789 73.3791 121.789C66.9004 121.789 61.6484 127.384 61.6484 134.286C61.6484 141.187 66.9004 146.782 73.3791 146.782Z" fill="#FFB9B9"/>
<path opacity="0.1" d="M80.6695 150.832C80.6695 150.832 78.2917 165.693 74.3285 164.849C70.3654 164.004 58.0008 149.144 58.0008 149.144C58.0008 149.144 45.161 153.703 47.2215 164.849C49.282 175.995 51.3433 185.451 47.0628 188.997C42.7824 192.543 40.0879 209.092 40.0879 209.092C40.0879 209.092 53.7204 203.012 60.854 205.377C67.9876 207.742 75.2791 206.56 77.0193 204.364C78.5887 202.16 80.0185 199.847 81.299 197.441C81.299 197.441 77.6532 191.699 79.3964 188.829C81.1396 185.958 83.3595 185.789 84.6274 177.683C85.8953 169.578 95.8873 166.706 93.9854 162.151C92.0836 157.595 88.4371 150.832 80.6695 150.832Z" fill="black"/>
<path d="M80.6695 150.158C80.6695 150.158 78.2917 165.018 74.3285 164.174C70.3654 163.33 58.0008 148.469 58.0008 148.469C58.0008 148.469 45.161 153.028 47.2215 164.174C49.282 175.32 51.3433 184.776 47.0628 188.322C42.7824 191.868 40.0879 208.417 40.0879 208.417C40.0879 208.417 53.7204 202.338 60.854 204.703C67.9876 207.067 75.2791 205.885 77.0193 203.689C78.5887 201.485 80.0185 199.172 81.299 196.766C81.299 196.766 77.6532 191.024 79.3964 188.154C81.1396 185.283 83.3595 185.114 84.6274 177.009C85.8953 168.903 95.8873 166.031 93.9854 161.476C92.0836 156.921 88.4371 150.158 80.6695 150.158Z" fill="#CBCDDA"/>
<path d="M90.1821 211.12C90.1821 211.12 96.5231 209.431 98.7422 211.458C100.961 213.484 108.412 217.706 105.876 219.394C103.34 221.081 87.9629 218.887 87.9629 218.887L90.1821 211.12Z" fill="#FFB9B9"/>
<g opacity="0.05">
<path d="M72.746 164.174C73.1166 164.248 73.4999 164.189 73.8351 164.005C69.4317 162.195 58.0036 148.469 58.0036 148.469C58.0036 148.469 57.5566 148.627 56.834 148.962C59.0182 151.547 69.215 163.422 72.746 164.174Z" fill="black"/>
<path d="M92.4037 161.472C96.7758 159.68 84.3195 168.902 83.0509 177.008C81.7822 185.114 79.5638 185.283 77.8199 188.153C76.076 191.023 79.7217 196.765 79.7217 196.765C78.4412 199.172 77.0115 201.485 75.442 203.688C74.4431 204.946 71.6234 205.868 68.0566 205.985C72.3587 206.13 75.8845 205.126 77.0273 203.688C78.5967 201.485 80.0264 199.172 81.307 196.765C81.307 196.765 77.6612 191.023 79.4051 188.153C81.149 185.283 83.3682 185.114 84.6361 177.008C85.904 168.902 91.3734 161.894 92.4037 161.472Z" fill="black"/>
<path d="M40.212 207.714C40.1308 208.165 40.0898 208.419 40.0898 208.419C40.0898 208.419 48.9547 204.466 56.1285 204.175C50.5921 203.928 43.4361 206.441 40.212 207.714Z" fill="black"/>
</g>
<path d="M92.8776 160.627C92.8776 160.627 94.3042 160.796 95.7308 168.733C97.1573 176.669 102.706 184.269 102.706 184.269C104.899 187.394 106.611 190.871 107.778 194.57C109.681 200.649 118.161 208.67 121.173 209.008C121.173 209.008 115.387 215.172 116.021 216.861C116.655 218.55 115.387 216.861 115.387 216.861C115.387 216.861 107.461 213.652 105.717 208.417C103.974 203.182 96.3647 194.739 96.3647 194.739C96.3647 194.739 86.2193 173.799 85.744 170.421C85.2688 167.044 92.8776 160.627 92.8776 160.627Z" fill="#CBCDDA"/>
<path opacity="0.1" d="M49.2031 189.081C49.2031 189.081 61.409 190.601 64.102 194.654C66.795 198.706 79.2803 192.3 79.2803 192.3" fill="black"/>
<path opacity="0.1" d="M61.1716 166.031C61.1716 166.031 66.4026 186.465 68.3052 188.998C70.2078 191.531 84.9495 212.301 91.9244 210.951C91.9244 210.951 89.8639 220.407 88.4373 220.745C88.4373 220.745 74.0122 205.547 69.0978 205.715C69.0978 205.715 60.0624 197.78 59.1111 193.891C58.1598 190.002 50.5509 177.341 50.5509 177.341C50.5509 177.341 46.7465 168.391 48.3317 164.507C49.917 160.624 58.3185 162.316 61.1716 166.031Z" fill="black"/>
<path d="M61.3298 165.693C61.3298 165.693 66.5608 186.127 68.4634 188.66C70.366 191.193 85.1077 211.964 92.0826 210.613C92.0826 210.613 90.0221 220.069 88.5955 220.407C88.5955 220.407 74.1704 205.209 69.256 205.378C69.256 205.378 60.2206 197.442 59.2693 193.553C58.318 189.664 50.7091 177.004 50.7091 177.004C50.7091 177.004 46.9047 168.053 48.4899 164.17C50.0752 160.286 58.4767 161.978 61.3298 165.693Z" fill="#CBCDDA"/>
<path opacity="0.1" d="M81.8877 122.437C81.8322 121.639 81.5301 120.884 81.0287 120.288C80.5273 119.693 79.8549 119.291 79.1165 119.146C78.1242 118.977 77.0157 119.276 76.1635 118.707C75.802 118.414 75.4767 118.074 75.1951 117.694C73.9059 116.35 72.1715 115.602 70.3679 115.611C68.5832 115.63 66.8121 115.944 65.1175 116.54C61.6997 117.588 58.0889 119.127 56.2705 122.383C53.506 127.339 56.0567 134.02 53.8703 139.294C52.919 141.595 51.1058 143.478 50.5181 145.917C49.7254 149.171 51.2883 152.479 52.4914 155.59C53.5711 158.381 54.391 161.279 54.9393 164.24C55.5216 166.842 55.5924 169.544 55.1472 172.176C54.908 173.316 54.5132 174.478 54.7255 175.621C55.0429 177.354 56.6147 178.446 58.045 179.336L58.4175 179.569C60.478 180.853 62.5973 182.163 64.9581 182.481C66.4304 182.715 67.9342 182.428 69.2378 181.662C69.8817 181.272 70.4296 180.725 70.8366 180.066C71.2436 179.406 71.4981 178.654 71.5791 177.869C71.6998 176.095 70.7724 174.433 70.5727 172.665C70.5273 172.4 70.5463 172.127 70.6278 171.871C70.7952 171.549 71.0447 171.284 71.3475 171.106C73.3657 169.559 74.9363 167.441 75.8811 164.99C76.8259 162.54 77.107 159.857 76.6924 157.246C76.0808 153.709 74.1782 150.194 75.099 146.734C75.6078 144.822 76.9189 143.274 77.6542 141.448C78.4313 139.499 78.528 137.317 77.9268 135.298C77.5067 133.903 76.7461 132.51 77.0076 131.076C77.4687 128.529 80.6533 127.718 81.8564 125.461C82.2783 124.605 82.3952 123.615 82.1855 122.674C81.9757 121.733 81.4535 120.904 80.7151 120.341" fill="black"/>
<path d="M81.5693 122.268C81.5138 121.47 81.2117 120.715 80.7103 120.119C80.209 119.524 79.5365 119.122 78.7981 118.977C77.8059 118.808 76.6974 119.107 75.8452 118.538C75.4837 118.245 75.1583 117.905 74.8768 117.525C73.5876 116.181 71.8531 115.433 70.0495 115.442C68.2649 115.461 66.4938 115.775 64.7991 116.371C61.3813 117.419 57.7706 118.958 55.9522 122.214C53.1877 127.17 55.7384 133.851 53.552 139.125C52.6007 141.426 50.7875 143.309 50.1997 145.748C49.4071 149.002 50.97 152.31 52.1731 155.421C53.2525 158.211 54.0724 161.107 54.6209 164.067C55.2032 166.669 55.274 169.371 54.8288 172.003C54.5897 173.143 54.1948 174.305 54.4071 175.448C54.7245 177.181 56.2971 178.273 57.7266 179.163L58.0991 179.396C60.1596 180.68 62.279 181.991 64.6397 182.308C66.112 182.543 67.6158 182.255 68.9194 181.489C69.5633 181.099 70.1113 180.552 70.5183 179.893C70.9253 179.233 71.1797 178.481 71.2608 177.696C71.3815 175.922 70.454 174.26 70.2544 172.492C70.209 172.227 70.228 171.954 70.3095 171.699C70.4769 171.376 70.7263 171.111 71.0291 170.933C73.0473 169.386 74.618 167.268 75.5628 164.818C76.5075 162.367 76.7886 159.684 76.3741 157.073C75.7625 153.536 73.8599 150.021 74.7806 146.561C75.2894 144.649 76.6005 143.101 77.3358 141.275C78.1129 139.326 78.2097 137.144 77.6085 135.125C77.1883 133.73 76.4277 132.337 76.6892 130.903C77.1503 128.357 80.335 127.545 81.538 125.289C81.96 124.432 82.0769 123.442 81.8671 122.501C81.6573 121.56 81.1351 120.731 80.3968 120.168" fill="#B96B6B"/>
<path d="M112.356 220.839H96.3715C95.6453 220.839 95.0566 221.466 95.0566 222.24C95.0566 223.013 95.6453 223.64 96.3715 223.64H112.356C113.083 223.64 113.671 223.013 113.671 222.24C113.671 221.466 113.083 220.839 112.356 220.839Z" fill="#535461"/>
<g opacity="0.7">
<path d="M136.658 189.601H122.383C113.55 189.601 106.389 197.229 106.389 206.64C106.389 216.05 113.55 223.679 122.383 223.679H136.658C145.492 223.679 152.653 216.05 152.653 206.64C152.653 197.229 145.492 189.601 136.658 189.601Z" fill="url(#paint0_linear_1148_1260)"/>
</g>
<path d="M135.34 190.229H122.912C114.242 190.229 107.213 197.716 107.213 206.953C107.213 216.189 114.242 223.677 122.912 223.677H135.34C144.01 223.677 151.039 216.189 151.039 206.953C151.039 197.716 144.01 190.229 135.34 190.229Z" fill="#3E3F49"/>
<path d="M135.945 190.229H123.517C114.847 190.229 107.818 197.716 107.818 206.953C107.818 216.189 114.847 223.677 123.517 223.677H135.945C144.616 223.677 151.644 216.189 151.644 206.953C151.644 197.716 144.616 190.229 135.945 190.229Z" fill="#535461"/>
<path opacity="0.1" d="M187.915 236.874C280.194 236.874 355.001 227.764 355.001 216.525C355.001 205.286 280.194 196.176 187.915 196.176C95.6367 196.176 20.8301 205.286 20.8301 216.525C20.8301 227.764 95.6367 236.874 187.915 236.874Z" fill="#6C63FF"/>
<path d="M131.781 208.23C132.562 208.23 133.196 207.554 133.196 206.722C133.196 205.889 132.562 205.214 131.781 205.214C130.999 205.214 130.365 205.889 130.365 206.722C130.365 207.554 130.999 208.23 131.781 208.23Z" fill="#E0E0E0"/>
<path d="M56.6117 216.526C56.6117 216.526 51.9327 214.838 49.6837 219.229C49.09 220.42 48.788 221.751 48.8054 223.099C48.8229 224.448 49.1593 225.769 49.7835 226.942C51.257 229.79 54.3098 233.487 60.0966 233.158C64.9938 232.878 66.623 228.898 67.0655 225.194C67.235 223.805 67.0669 222.393 66.5775 221.094C66.088 219.794 65.2935 218.65 64.27 217.771C63.2465 216.892 62.0284 216.307 60.7322 216.074C59.436 215.84 58.1052 215.965 56.8672 216.436L56.6117 216.526Z" fill="#6C63FF"/>
<path opacity="0.1" d="M50.772 227.336C50.1477 226.163 49.8113 224.842 49.7938 223.494C49.7764 222.145 50.0785 220.814 50.6722 219.623C52.9234 215.229 57.6001 216.92 57.6001 216.92L57.8385 216.829C59.6227 216.142 61.5836 216.189 63.337 216.961C62.3696 216.347 61.2866 215.97 60.166 215.856C59.0453 215.742 57.9148 215.894 56.8559 216.302L56.6176 216.393C56.6176 216.393 51.9386 214.704 49.6896 219.096C49.0959 220.287 48.7938 221.618 48.8113 222.966C48.8287 224.314 49.1651 225.636 49.7894 226.809C50.948 229.169 52.8154 231.047 55.0934 232.145C53.267 230.993 51.7723 229.33 50.772 227.336Z" fill="white"/>
<path opacity="0.2" d="M54.1953 218.639C54.1953 218.639 55.931 220.092 60.1415 218.639H54.1953Z" fill="black"/>
<path d="M53.8262 208.079C53.8262 208.079 56.7993 216.658 56.5519 218.903L58.9089 218.639C58.9089 218.639 54.9428 211.106 55.9359 208.08L53.8262 208.079Z" fill="#6C63FF"/>
<path opacity="0.2" d="M53.8262 208.079C53.8262 208.079 56.7993 216.658 56.5519 218.903L58.9089 218.639C58.9089 218.639 54.9428 211.106 55.9359 208.08L53.8262 208.079Z" fill="black"/>
<path d="M65.9624 208.797C65.9624 208.797 61.2834 206.248 59.1834 208.354C57.0834 210.46 56.7676 215.844 56.7676 215.844C56.7676 215.844 64.4048 216.962 65.9624 208.797Z" fill="#6C63FF"/>
<path opacity="0.1" d="M65.9624 208.797C65.9624 208.797 61.2834 206.248 59.1834 208.354C57.0834 210.46 56.7676 215.844 56.7676 215.844C56.7676 215.844 64.4048 216.962 65.9624 208.797Z" fill="white"/>
<path d="M56.7715 215.844C56.7715 215.844 57.9999 209.594 65.9619 208.797" stroke="#6C63FF" stroke-miterlimit="10"/>
<path d="M133.732 175.051C137.405 175.051 140.383 171.683 140.383 167.53C140.383 163.376 137.405 160.009 133.732 160.009C130.058 160.009 127.08 163.376 127.08 167.53C127.08 171.683 130.058 175.051 133.732 175.051Z" fill="#FBD56F"/>
<path opacity="0.1" d="M133.732 175.051C137.405 175.051 140.383 171.683 140.383 167.53C140.383 163.376 137.405 160.009 133.732 160.009C130.058 160.009 127.08 163.376 127.08 167.53C127.08 171.683 130.058 175.051 133.732 175.051Z" fill="black"/>
<path d="M134.88 175.051C138.554 175.051 141.532 171.758 141.532 167.697C141.532 163.636 138.554 160.344 134.88 160.344C131.207 160.344 128.229 163.636 128.229 167.697C128.229 171.758 131.207 175.051 134.88 175.051Z" fill="#FBD56F"/>
<path d="M137.574 174.364L136.882 173.954C136.703 174.759 136.63 175.587 136.665 176.414C136.675 176.518 136.715 176.616 136.78 176.695C136.844 176.774 136.93 176.83 137.025 176.855C138.616 177.276 146.202 179.07 151.419 176.543C151.495 176.506 151.56 176.449 151.609 176.378C151.657 176.306 151.687 176.222 151.696 176.134C151.711 175.397 151.626 174.661 151.443 173.951C151.248 173.406 137.574 174.364 137.574 174.364Z" fill="#FBD56F"/>
<path opacity="0.1" d="M137.574 174.364L136.882 173.954C136.703 174.759 136.63 175.587 136.665 176.414C136.675 176.518 136.715 176.616 136.78 176.695C136.844 176.774 136.93 176.83 137.025 176.855C138.616 177.276 146.202 179.07 151.419 176.543C151.495 176.506 151.56 176.449 151.609 176.378C151.657 176.306 151.687 176.222 151.696 176.134C151.711 175.397 151.626 174.661 151.443 173.951C151.248 173.406 137.574 174.364 137.574 174.364Z" fill="black"/>
<path d="M144.161 175.7C148.182 175.7 151.442 174.917 151.442 173.951C151.442 172.986 148.182 172.203 144.161 172.203C140.14 172.203 136.881 172.986 136.881 173.951C136.881 174.917 140.14 175.7 144.161 175.7Z" fill="#FBD56F"/>
<path d="M140.356 171.783L139.663 171.373C139.484 172.178 139.411 173.006 139.446 173.833C139.456 173.937 139.497 174.035 139.561 174.114C139.626 174.193 139.711 174.249 139.807 174.274C141.398 174.695 148.983 176.489 154.2 173.962C154.276 173.925 154.341 173.868 154.39 173.797C154.438 173.725 154.469 173.641 154.477 173.553C154.492 172.816 154.407 172.08 154.224 171.37C154.03 170.828 140.356 171.783 140.356 171.783Z" fill="#FBD56F"/>
<path opacity="0.1" d="M140.356 171.783L139.663 171.373C139.484 172.178 139.411 173.006 139.446 173.833C139.456 173.937 139.497 174.035 139.561 174.114C139.626 174.193 139.711 174.249 139.807 174.274C141.398 174.695 148.983 176.489 154.2 173.962C154.276 173.925 154.341 173.868 154.39 173.797C154.438 173.725 154.469 173.641 154.477 173.553C154.492 172.816 154.407 172.08 154.224 171.37C154.03 170.828 140.356 171.783 140.356 171.783Z" fill="black"/>
<path d="M146.944 173.121C150.965 173.121 154.225 172.338 154.225 171.372C154.225 170.407 150.965 169.624 146.944 169.624C142.924 169.624 139.664 170.407 139.664 171.372C139.664 172.338 142.924 173.121 146.944 173.121Z" fill="#FBD56F"/>
<path d="M142.813 168.392L142.121 167.982C141.941 168.787 141.868 169.615 141.903 170.442C141.913 170.546 141.954 170.644 142.018 170.723C142.083 170.802 142.168 170.858 142.264 170.883C143.855 171.305 151.441 173.098 156.657 170.572C156.733 170.535 156.798 170.478 156.847 170.406C156.895 170.334 156.926 170.25 156.934 170.162C156.949 169.425 156.864 168.69 156.681 167.979C156.49 167.437 142.813 168.392 142.813 168.392Z" fill="#FBD56F"/>
<path opacity="0.1" d="M142.813 168.392L142.121 167.982C141.941 168.787 141.868 169.615 141.903 170.442C141.913 170.546 141.954 170.644 142.018 170.723C142.083 170.802 142.168 170.858 142.264 170.883C143.855 171.305 151.441 173.098 156.657 170.572C156.733 170.535 156.798 170.478 156.847 170.406C156.895 170.334 156.926 170.25 156.934 170.162C156.949 169.425 156.864 168.69 156.681 167.979C156.49 167.437 142.813 168.392 142.813 168.392Z" fill="black"/>
<path d="M149.403 169.73C153.424 169.73 156.684 168.947 156.684 167.982C156.684 167.016 153.424 166.233 149.403 166.233C145.383 166.233 142.123 167.016 142.123 167.982C142.123 168.947 145.383 169.73 149.403 169.73Z" fill="#FBD56F"/>
<path d="M140.09 164.863L139.398 164.453C139.219 165.258 139.145 166.086 139.18 166.913C139.191 167.017 139.231 167.115 139.295 167.194C139.36 167.273 139.446 167.329 139.541 167.354C141.132 167.776 148.719 169.569 153.935 167.042C154.01 167.005 154.076 166.948 154.124 166.877C154.173 166.805 154.203 166.721 154.212 166.633C154.227 165.896 154.141 165.161 153.959 164.45C153.764 163.908 140.09 164.863 140.09 164.863Z" fill="#FBD56F"/>
<path opacity="0.1" d="M140.09 164.863L139.398 164.453C139.219 165.258 139.145 166.086 139.18 166.913C139.191 167.017 139.231 167.115 139.295 167.194C139.36 167.273 139.446 167.329 139.541 167.354C141.132 167.776 148.719 169.569 153.935 167.042C154.01 167.005 154.076 166.948 154.124 166.877C154.173 166.805 154.203 166.721 154.212 166.633C154.227 165.896 154.141 165.161 153.959 164.45C153.764 163.908 140.09 164.863 140.09 164.863Z" fill="black"/>
<path d="M146.679 166.202C150.7 166.202 153.959 165.419 153.959 164.453C153.959 163.488 150.7 162.705 146.679 162.705C142.658 162.705 139.398 163.488 139.398 164.453C139.398 165.419 142.658 166.202 146.679 166.202Z" fill="#FBD56F"/>
<path d="M146.217 162.031L145.525 161.621C145.346 162.426 145.272 163.254 145.307 164.081C145.318 164.185 145.358 164.283 145.422 164.362C145.487 164.441 145.573 164.497 145.668 164.522C147.26 164.944 154.846 166.737 160.062 164.21C160.137 164.173 160.203 164.116 160.251 164.045C160.3 163.973 160.33 163.889 160.339 163.801C160.354 163.064 160.268 162.328 160.086 161.618C159.891 161.076 146.217 162.031 146.217 162.031Z" fill="#FBD56F"/>
<path opacity="0.1" d="M146.217 162.031L145.525 161.621C145.346 162.426 145.272 163.254 145.307 164.081C145.318 164.185 145.358 164.283 145.422 164.362C145.487 164.441 145.573 164.497 145.668 164.522C147.26 164.944 154.846 166.737 160.062 164.21C160.137 164.173 160.203 164.116 160.251 164.045C160.3 163.973 160.33 163.889 160.339 163.801C160.354 163.064 160.268 162.328 160.086 161.618C159.891 161.076 146.217 162.031 146.217 162.031Z" fill="black"/>
<path d="M152.806 163.369C156.827 163.369 160.086 162.586 160.086 161.62C160.086 160.655 156.827 159.872 152.806 159.872C148.785 159.872 145.525 160.655 145.525 161.62C145.525 162.586 148.785 163.369 152.806 163.369Z" fill="#FBD56F"/>
<path d="M142.076 160.128L141.384 159.717C141.205 160.523 141.132 161.351 141.167 162.178C141.177 162.282 141.217 162.38 141.282 162.459C141.346 162.538 141.432 162.594 141.527 162.619C143.119 163.04 150.705 164.834 155.921 162.307C155.997 162.27 156.062 162.213 156.11 162.141C156.159 162.069 156.189 161.985 156.198 161.897C156.213 161.161 156.128 160.425 155.945 159.714C155.75 159.172 142.076 160.128 142.076 160.128Z" fill="#FBD56F"/>
<path opacity="0.1" d="M142.076 160.128L141.384 159.717C141.205 160.523 141.132 161.351 141.167 162.178C141.177 162.282 141.217 162.38 141.282 162.459C141.346 162.538 141.432 162.594 141.527 162.619C143.119 163.04 150.705 164.834 155.921 162.307C155.997 162.27 156.062 162.213 156.11 162.141C156.159 162.069 156.189 161.985 156.198 161.897C156.213 161.161 156.128 160.425 155.945 159.714C155.75 159.172 142.076 160.128 142.076 160.128Z" fill="black"/>
<path d="M148.667 161.466C152.688 161.466 155.947 160.684 155.947 159.718C155.947 158.752 152.688 157.97 148.667 157.97C144.646 157.97 141.387 158.752 141.387 159.718C141.387 160.684 144.646 161.466 148.667 161.466Z" fill="#FBD56F"/>
<path d="M144.84 156.453L144.148 156.043C143.969 156.848 143.895 157.676 143.93 158.503C143.941 158.607 143.981 158.705 144.045 158.784C144.11 158.863 144.196 158.919 144.291 158.944C145.883 159.365 153.469 161.159 158.685 158.632C158.76 158.595 158.826 158.538 158.874 158.466C158.923 158.395 158.953 158.311 158.962 158.223C158.977 157.486 158.891 156.75 158.709 156.039C158.514 155.497 144.84 156.453 144.84 156.453Z" fill="#FBD56F"/>
<path opacity="0.1" d="M144.84 156.453L144.148 156.043C143.969 156.848 143.895 157.676 143.93 158.503C143.941 158.607 143.981 158.705 144.045 158.784C144.11 158.863 144.196 158.919 144.291 158.944C145.883 159.365 153.469 161.159 158.685 158.632C158.76 158.595 158.826 158.538 158.874 158.466C158.923 158.395 158.953 158.311 158.962 158.223C158.977 157.486 158.891 156.75 158.709 156.039C158.514 155.497 144.84 156.453 144.84 156.453Z" fill="black"/>
<path d="M151.429 157.791C155.45 157.791 158.709 157.008 158.709 156.042C158.709 155.077 155.45 154.294 151.429 154.294C147.408 154.294 144.148 155.077 144.148 156.042C144.148 157.008 147.408 157.791 151.429 157.791Z" fill="#FBD56F"/>
<path d="M146.203 152.092L145.511 151.681C145.332 152.487 145.259 153.315 145.294 154.141C145.304 154.245 145.344 154.344 145.409 154.422C145.473 154.501 145.559 154.557 145.654 154.583C147.245 155.004 154.831 156.798 160.048 154.271C160.124 154.234 160.189 154.177 160.237 154.105C160.286 154.033 160.316 153.949 160.325 153.861C160.34 153.124 160.255 152.389 160.072 151.678C159.877 151.136 146.203 152.092 146.203 152.092Z" fill="#FBD56F"/>
<path opacity="0.1" d="M146.203 152.092L145.511 151.681C145.332 152.487 145.259 153.315 145.294 154.141C145.304 154.245 145.344 154.344 145.409 154.422C145.473 154.501 145.559 154.557 145.654 154.583C147.245 155.004 154.831 156.798 160.048 154.271C160.124 154.234 160.189 154.177 160.237 154.105C160.286 154.033 160.316 153.949 160.325 153.861C160.34 153.124 160.255 152.389 160.072 151.678C159.877 151.136 146.203 152.092 146.203 152.092Z" fill="black"/>
<path d="M152.794 153.429C156.815 153.429 160.074 152.646 160.074 151.681C160.074 150.715 156.815 149.933 152.794 149.933C148.773 149.933 145.514 150.715 145.514 151.681C145.514 152.646 148.773 153.429 152.794 153.429Z" fill="#FBD56F"/>
<path d="M158.492 175.374L157.8 174.964C157.621 175.769 157.548 176.597 157.583 177.424C157.593 177.528 157.633 177.626 157.698 177.705C157.762 177.784 157.848 177.839 157.943 177.865C159.535 178.286 167.121 180.08 172.337 177.553C172.413 177.516 172.478 177.459 172.526 177.387C172.575 177.316 172.605 177.232 172.614 177.144C172.629 176.407 172.544 175.671 172.361 174.96C172.166 174.418 158.492 175.374 158.492 175.374Z" fill="#FBD56F"/>
<path opacity="0.1" d="M158.492 175.374L157.8 174.964C157.621 175.769 157.548 176.597 157.583 177.424C157.593 177.528 157.633 177.626 157.698 177.705C157.762 177.784 157.848 177.839 157.943 177.865C159.535 178.286 167.121 180.08 172.337 177.553C172.413 177.516 172.478 177.459 172.526 177.387C172.575 177.316 172.605 177.232 172.614 177.144C172.629 176.407 172.544 175.671 172.361 174.96C172.166 174.418 158.492 175.374 158.492 175.374Z" fill="black"/>
<path d="M165.081 176.711C169.102 176.711 172.361 175.929 172.361 174.963C172.361 173.998 169.102 173.215 165.081 173.215C161.06 173.215 157.801 173.998 157.801 174.963C157.801 175.929 161.06 176.711 165.081 176.711Z" fill="#FBD56F"/>
<path d="M160.953 171.983L160.261 171.573C160.082 172.378 160.009 173.206 160.044 174.033C160.054 174.137 160.094 174.235 160.159 174.314C160.223 174.393 160.309 174.449 160.404 174.474C161.996 174.896 169.582 176.689 174.798 174.162C174.874 174.126 174.939 174.069 174.987 173.997C175.036 173.925 175.066 173.841 175.075 173.753C175.09 173.016 175.005 172.281 174.822 171.57C174.627 171.028 160.953 171.983 160.953 171.983Z" fill="#FBD56F"/>
<path opacity="0.1" d="M160.953 171.983L160.261 171.573C160.082 172.378 160.009 173.206 160.044 174.033C160.054 174.137 160.094 174.235 160.159 174.314C160.223 174.393 160.309 174.449 160.404 174.474C161.996 174.896 169.582 176.689 174.798 174.162C174.874 174.126 174.939 174.069 174.987 173.997C175.036 173.925 175.066 173.841 175.075 173.753C175.09 173.016 175.005 172.281 174.822 171.57C174.627 171.028 160.953 171.983 160.953 171.983Z" fill="black"/>
<path d="M167.54 173.322C171.561 173.322 174.82 172.539 174.82 171.573C174.82 170.608 171.561 169.825 167.54 169.825C163.519 169.825 160.26 170.608 160.26 171.573C160.26 172.539 163.519 173.322 167.54 173.322Z" fill="#FBD56F"/>
<path d="M158.231 168.454L157.538 168.044C157.359 168.849 157.286 169.677 157.321 170.504C157.331 170.608 157.372 170.706 157.436 170.785C157.5 170.864 157.586 170.92 157.682 170.945C159.273 171.366 166.859 173.16 172.075 170.633C172.151 170.596 172.216 170.539 172.265 170.467C172.313 170.396 172.344 170.312 172.352 170.224C172.367 169.487 172.282 168.751 172.099 168.04C171.905 167.498 158.231 168.454 158.231 168.454Z" fill="#FBD56F"/>
<path opacity="0.1" d="M158.231 168.454L157.538 168.044C157.359 168.849 157.286 169.677 157.321 170.504C157.331 170.608 157.372 170.706 157.436 170.785C157.5 170.864 157.586 170.92 157.682 170.945C159.273 171.366 166.859 173.16 172.075 170.633C172.151 170.596 172.216 170.539 172.265 170.467C172.313 170.396 172.344 170.312 172.352 170.224C172.367 169.487 172.282 168.751 172.099 168.04C171.905 167.498 158.231 168.454 158.231 168.454Z" fill="black"/>
<path d="M164.819 169.792C168.84 169.792 172.1 169.01 172.1 168.044C172.1 167.079 168.84 166.296 164.819 166.296C160.799 166.296 157.539 167.079 157.539 168.044C157.539 169.01 160.799 169.792 164.819 169.792Z" fill="#FBD56F"/>
<path d="M164.356 165.623L163.663 165.213C163.484 166.018 163.411 166.846 163.446 167.673C163.456 167.777 163.496 167.875 163.561 167.954C163.625 168.033 163.711 168.089 163.807 168.114C165.398 168.535 172.984 170.329 178.2 167.802C178.276 167.765 178.341 167.708 178.39 167.636C178.438 167.565 178.469 167.481 178.477 167.393C178.492 166.656 178.407 165.92 178.224 165.209C178.03 164.667 164.356 165.623 164.356 165.623Z" fill="#FBD56F"/>
<path opacity="0.1" d="M164.356 165.623L163.663 165.213C163.484 166.018 163.411 166.846 163.446 167.673C163.456 167.777 163.496 167.875 163.561 167.954C163.625 168.033 163.711 168.089 163.807 168.114C165.398 168.535 172.984 170.329 178.2 167.802C178.276 167.765 178.341 167.708 178.39 167.636C178.438 167.565 178.469 167.481 178.477 167.393C178.492 166.656 178.407 165.92 178.224 165.209C178.03 164.667 164.356 165.623 164.356 165.623Z" fill="black"/>
<path d="M170.944 166.959C174.965 166.959 178.225 166.177 178.225 165.211C178.225 164.246 174.965 163.463 170.944 163.463C166.924 163.463 163.664 164.246 163.664 165.211C163.664 166.177 166.924 166.959 170.944 166.959Z" fill="#FBD56F"/>
<path d="M160.219 163.718L159.527 163.308C159.348 164.113 159.274 164.941 159.309 165.768C159.32 165.872 159.36 165.97 159.424 166.049C159.489 166.128 159.574 166.184 159.67 166.209C161.262 166.631 168.848 168.424 174.064 165.897C174.139 165.861 174.204 165.804 174.253 165.732C174.302 165.66 174.332 165.576 174.341 165.488C174.356 164.751 174.27 164.016 174.087 163.305C173.893 162.764 160.219 163.718 160.219 163.718Z" fill="#FBD56F"/>
<path opacity="0.1" d="M160.219 163.718L159.527 163.308C159.348 164.113 159.274 164.941 159.309 165.768C159.32 165.872 159.36 165.97 159.424 166.049C159.489 166.128 159.574 166.184 159.67 166.209C161.262 166.631 168.848 168.424 174.064 165.897C174.139 165.861 174.204 165.804 174.253 165.732C174.302 165.66 174.332 165.576 174.341 165.488C174.356 164.751 174.27 164.016 174.087 163.305C173.893 162.764 160.219 163.718 160.219 163.718Z" fill="black"/>
<path d="M166.806 165.057C170.827 165.057 174.086 164.274 174.086 163.309C174.086 162.343 170.827 161.561 166.806 161.561C162.785 161.561 159.525 162.343 159.525 163.309C159.525 164.274 162.785 165.057 166.806 165.057Z" fill="#FBD56F"/>
<path d="M162.981 160.043L162.288 159.633C162.109 160.438 162.036 161.266 162.071 162.093C162.081 162.197 162.121 162.295 162.186 162.374C162.25 162.453 162.336 162.509 162.432 162.534C164.023 162.956 171.608 164.749 176.825 162.223C176.901 162.186 176.966 162.129 177.015 162.057C177.063 161.985 177.094 161.901 177.102 161.813C177.117 161.076 177.032 160.341 176.849 159.63C176.655 159.086 162.981 160.043 162.981 160.043Z" fill="#FBD56F"/>
<path opacity="0.1" d="M162.981 160.043L162.288 159.633C162.109 160.438 162.036 161.266 162.071 162.093C162.081 162.197 162.121 162.295 162.186 162.374C162.25 162.453 162.336 162.509 162.432 162.534C164.023 162.956 171.608 164.749 176.825 162.223C176.901 162.186 176.966 162.129 177.015 162.057C177.063 161.985 177.094 161.901 177.102 161.813C177.117 161.076 177.032 160.341 176.849 159.63C176.655 159.086 162.981 160.043 162.981 160.043Z" fill="black"/>
<path d="M169.567 161.381C173.588 161.381 176.848 160.599 176.848 159.633C176.848 158.667 173.588 157.885 169.567 157.885C165.547 157.885 162.287 158.667 162.287 159.633C162.287 160.599 165.547 161.381 169.567 161.381Z" fill="#FBD56F"/>
<path d="M164.342 155.682L163.65 155.272C163.471 156.077 163.397 156.905 163.432 157.732C163.443 157.836 163.483 157.934 163.547 158.013C163.612 158.092 163.698 158.148 163.793 158.173C165.385 158.595 172.97 160.388 178.187 157.862C178.262 157.825 178.328 157.768 178.376 157.696C178.425 157.624 178.455 157.54 178.464 157.452C178.479 156.715 178.393 155.98 178.211 155.269C178.016 154.727 164.342 155.682 164.342 155.682Z" fill="#FBD56F"/>
<path opacity="0.1" d="M164.342 155.682L163.65 155.272C163.471 156.077 163.397 156.905 163.432 157.732C163.443 157.836 163.483 157.934 163.547 158.013C163.612 158.092 163.698 158.148 163.793 158.173C165.385 158.595 172.97 160.388 178.187 157.862C178.262 157.825 178.328 157.768 178.376 157.696C178.425 157.624 178.455 157.54 178.464 157.452C178.479 156.715 178.393 155.98 178.211 155.269C178.016 154.727 164.342 155.682 164.342 155.682Z" fill="black"/>
<path d="M170.931 157.02C174.952 157.02 178.211 156.237 178.211 155.272C178.211 154.306 174.952 153.523 170.931 153.523C166.91 153.523 163.65 154.306 163.65 155.272C163.65 156.237 166.91 157.02 170.931 157.02Z" fill="#FBD56F"/>
<path d="M148.841 185.782C152.515 185.782 155.493 182.415 155.493 178.261C155.493 174.107 152.515 170.74 148.841 170.74C145.167 170.74 142.189 174.107 142.189 178.261C142.189 182.415 145.167 185.782 148.841 185.782Z" fill="#FBD56F"/>
<path opacity="0.1" d="M148.841 185.782C152.515 185.782 155.493 182.415 155.493 178.261C155.493 174.107 152.515 170.74 148.841 170.74C145.167 170.74 142.189 174.107 142.189 178.261C142.189 182.415 145.167 185.782 148.841 185.782Z" fill="black"/>
<path d="M149.988 185.781C153.661 185.781 156.639 182.489 156.639 178.428C156.639 174.366 153.661 171.074 149.988 171.074C146.314 171.074 143.336 174.366 143.336 178.428C143.336 182.489 146.314 185.781 149.988 185.781Z" fill="#FBD56F"/>
<defs>
<linearGradient id="paint0_linear_1148_1260" x1="129.521" y1="223.679" x2="129.521" y2="189.601" gradientUnits="userSpaceOnUse">
<stop stop-color="#808080" stop-opacity="0.251"/>
<stop offset="0.54" stop-color="#808080" stop-opacity="0.122"/>
<stop offset="1" stop-color="#808080" stop-opacity="0.102"/>
</linearGradient>
</defs>
</svg>
