<svg width="31" height="31" viewBox="0 0 31 31" fill="none" xmlns="http://www.w3.org/2000/svg">
<path id="Vector" d="M4.91237 2.26725C4.21084 2.26725 3.53805 2.54593 3.04199 3.04199C2.54593 3.53805 2.26725 4.21084 2.26725 4.91237V9.44687C2.26725 9.74753 2.14781 10.0359 1.93522 10.2485C1.72262 10.4611 1.43428 10.5805 1.13363 10.5805C0.832969 10.5805 0.544627 10.4611 0.332031 10.2485C0.119435 10.0359 6.33585e-09 9.74753 0 9.44687V4.91237C0 3.60953 0.517552 2.36005 1.4388 1.4388C2.36005 0.517552 3.60953 0 4.91237 0H9.44687C9.74753 6.33585e-09 10.0359 0.119435 10.2485 0.332031C10.4611 0.544627 10.5805 0.832969 10.5805 1.13363C10.5805 1.43428 10.4611 1.72262 10.2485 1.93522C10.0359 2.14781 9.74753 2.26725 9.44687 2.26725H4.91237ZM4.91237 27.9627C4.21084 27.9627 3.53805 27.6841 3.04199 27.188C2.54593 26.692 2.26725 26.0192 2.26725 25.3176V20.7831C2.26725 20.4825 2.14781 20.1941 1.93522 19.9815C1.72262 19.7689 1.43428 19.6495 1.13363 19.6495C0.832969 19.6495 0.544627 19.7689 0.332031 19.9815C0.119435 20.1941 6.33585e-09 20.4825 0 20.7831V25.3176C0 25.9627 0.127062 26.6015 0.373932 27.1975C0.620802 27.7935 0.982645 28.335 1.4388 28.7912C1.89496 29.2474 2.43649 29.6092 3.03249 29.8561C3.62849 30.1029 4.26727 30.23 4.91237 30.23H9.44687C9.62822 30.23 9.80691 30.1864 9.96795 30.1031C10.129 30.0197 10.2677 29.8989 10.3724 29.7508C10.477 29.6027 10.5447 29.4317 10.5696 29.2521C10.5945 29.0725 10.576 28.8895 10.5155 28.7185L10.5079 28.6958C10.4265 28.4803 10.2814 28.2947 10.0918 28.1637C9.90225 28.0327 9.67728 27.9626 9.44687 27.9627H4.91237ZM27.9627 4.91237C27.9627 4.21084 27.6841 3.53805 27.188 3.04199C26.692 2.54593 26.0192 2.26725 25.3176 2.26725H20.7831C20.4825 2.26725 20.1941 2.14781 19.9815 1.93522C19.7689 1.72262 19.6495 1.43428 19.6495 1.13363C19.6495 0.832969 19.7689 0.544627 19.9815 0.332031C20.1941 0.119435 20.4825 6.33585e-09 20.7831 0H25.3176C25.9627 0 26.6015 0.127062 27.1975 0.373932C27.7935 0.620802 28.335 0.982645 28.7912 1.4388C29.2474 1.89496 29.6092 2.43649 29.8561 3.03249C30.1029 3.62849 30.23 4.26727 30.23 4.91237V9.44687C30.23 9.74753 30.1106 10.0359 29.898 10.2485C29.6854 10.4611 29.397 10.5805 29.0964 10.5805C28.7957 10.5805 28.5074 10.4611 28.2948 10.2485C28.0822 10.0359 27.9627 9.74753 27.9627 9.44687V4.91237ZM25.3176 27.9627C26.0192 27.9627 26.692 27.6841 27.188 27.188C27.6841 26.692 27.9627 26.0192 27.9627 25.3176V20.7831C27.9627 20.4825 28.0822 20.1941 28.2948 19.9815C28.5074 19.7689 28.7957 19.6495 29.0964 19.6495C29.397 19.6495 29.6854 19.7689 29.898 19.9815C30.1106 20.1941 30.23 20.4825 30.23 20.7831V25.3176C30.23 25.9627 30.1029 26.6015 29.8561 27.1975C29.6092 27.7935 29.2474 28.335 28.7912 28.7912C28.335 29.2474 27.7935 29.6092 27.1975 29.8561C26.6015 30.1029 25.9627 30.23 25.3176 30.23H20.7831C20.4825 30.23 20.1941 30.1106 19.9815 29.898C19.7689 29.6854 19.6495 29.397 19.6495 29.0964C19.6495 28.7957 19.7689 28.5074 19.9815 28.2948C20.1941 28.0822 20.4825 27.9627 20.7831 27.9627H25.3176ZM6.80175 25.1151C6.80175 25.5836 6.93174 26.029 7.19172 26.4513H4.91237C4.84709 26.4499 4.78196 26.4444 4.71739 26.4346C4.59389 26.0057 4.53231 25.5614 4.5345 25.1151V24.5619C4.5345 23.6599 4.89281 22.7949 5.53059 22.1571C6.16838 21.5193 7.03341 21.161 7.93538 21.161H22.2946C22.7412 21.161 23.1835 21.249 23.5961 21.4199C24.0087 21.5908 24.3836 21.8413 24.6994 22.1571C25.0152 22.4729 25.2657 22.8478 25.4366 23.2604C25.6075 23.673 25.6955 24.1153 25.6955 24.5619V25.1151C25.6955 25.5836 25.6245 26.0235 25.496 26.4376C25.4368 26.4457 25.3773 26.4502 25.3176 26.4513H22.9854C23.2656 26.0613 23.4201 25.5952 23.4282 25.1151V24.5619C23.4282 24.2612 23.3088 23.9729 23.0962 23.7603C22.8836 23.5477 22.5953 23.4282 22.2946 23.4282H7.93538C7.63472 23.4282 7.34638 23.5477 7.13378 23.7603C6.92119 23.9729 6.80175 24.2612 6.80175 24.5619V25.1151ZM19.2716 11.7141C19.2716 10.6117 18.8337 9.55447 18.0542 8.77495C17.2747 7.99543 16.2174 7.5575 15.115 7.5575C14.0126 7.5575 12.9553 7.99543 12.1758 8.77495C11.3963 9.55447 10.9584 10.6117 10.9584 11.7141C10.9584 12.8165 11.3963 13.8738 12.1758 14.6533C12.9553 15.4328 14.0126 15.8708 15.115 15.8708C16.2174 15.8708 17.2747 15.4328 18.0542 14.6533C18.8337 13.8738 19.2716 12.8165 19.2716 11.7141ZM21.5389 11.7141C21.5389 12.5577 21.3727 13.3931 21.0499 14.1724C20.7271 14.9518 20.2539 15.66 19.6574 16.2565C19.0609 16.853 18.3527 17.3262 17.5733 17.649C16.7939 17.9718 15.9586 18.138 15.115 18.138C14.2714 18.138 13.4361 17.9718 12.6567 17.649C11.8773 17.3262 11.1691 16.853 10.5726 16.2565C9.97612 15.66 9.50294 14.9518 9.18011 14.1724C8.85728 13.3931 8.69112 12.5577 8.69112 11.7141C8.69112 10.0104 9.36792 8.37647 10.5726 7.17176C11.7773 5.96705 13.4113 5.29025 15.115 5.29025C16.8187 5.29025 18.4527 5.96705 19.6574 7.17176C20.8621 8.37647 21.5389 10.0104 21.5389 11.7141Z" fill="#1DD48B"/>
</svg>
