<svg width="24" height="31" viewBox="0 0 24 31" fill="none" xmlns="http://www.w3.org/2000/svg">
<path d="M9.29379 10.6679C9.38676 10.5801 9.49714 10.5104 9.61862 10.4629C9.7401 10.4153 9.8703 10.3909 10.0018 10.3909C10.1333 10.3909 10.2635 10.4153 10.385 10.4629C10.5064 10.5104 10.6168 10.5801 10.7098 10.6679C10.8028 10.7558 10.8765 10.86 10.9268 10.9748C10.9772 11.0896 11.0031 11.2126 11.0031 11.3368C11.0031 11.461 10.9772 11.584 10.9268 11.6988C10.8765 11.8135 10.8028 11.9178 10.7098 12.0057L7.41579 15.1157L10.7098 18.2258C10.8976 18.4032 11.0031 18.6438 11.0031 18.8946C11.0031 19.1455 10.8976 19.3861 10.7098 19.5635C10.522 19.7409 10.2673 19.8406 10.0018 19.8406C9.73624 19.8406 9.48156 19.7409 9.29379 19.5635L5.29379 15.7846C5.20066 15.6968 5.12677 15.5926 5.07636 15.4778C5.02595 15.363 5 15.24 5 15.1157C5 14.9914 5.02595 14.8684 5.07636 14.7536C5.12677 14.6389 5.20066 14.5346 5.29379 14.4468L9.29379 10.6679ZM14.7098 10.6679C14.6168 10.5801 14.5064 10.5104 14.385 10.4629C14.2635 10.4153 14.1333 10.3909 14.0018 10.3909C13.8703 10.3909 13.7401 10.4153 13.6186 10.4629C13.4971 10.5104 13.3868 10.5801 13.2938 10.6679C13.2008 10.7558 13.1271 10.86 13.0767 10.9748C13.0264 11.0896 13.0005 11.2126 13.0005 11.3368C13.0005 11.461 13.0264 11.584 13.0767 11.6988C13.1271 11.8135 13.2008 11.9178 13.2938 12.0057L16.5878 15.1157L13.2938 18.2258C13.106 18.4032 13.0005 18.6438 13.0005 18.8946C13.0005 19.1455 13.106 19.3861 13.2938 19.5635C13.4816 19.7409 13.7362 19.8406 14.0018 19.8406C14.2673 19.8406 14.522 19.7409 14.7098 19.5635L18.7098 15.7846C18.8029 15.6968 18.8768 15.5926 18.9272 15.4778C18.9776 15.363 19.0036 15.24 19.0036 15.1157C19.0036 14.9914 18.9776 14.8684 18.9272 14.7536C18.8768 14.6389 18.8029 14.5346 18.7098 14.4468L14.7098 10.6679Z" fill="#1DD48B"/>
<path d="M0 3.77892C0 2.77669 0.421427 1.8155 1.17157 1.10682C1.92172 0.398135 2.93913 0 4 0L20 0C21.0609 0 22.0783 0.398135 22.8284 1.10682C23.5786 1.8155 24 2.77669 24 3.77892V26.4524C24 27.4547 23.5786 28.4158 22.8284 29.1245C22.0783 29.8332 21.0609 30.2313 20 30.2313H4C2.93913 30.2313 1.92172 29.8332 1.17157 29.1245C0.421427 28.4158 0 27.4547 0 26.4524V3.77892ZM20 1.88946H4C3.46957 1.88946 2.96086 2.08853 2.58579 2.44287C2.21071 2.79721 2 3.2778 2 3.77892V26.4524C2 26.9535 2.21071 27.4341 2.58579 27.7885C2.96086 28.1428 3.46957 28.3419 4 28.3419H20C20.5304 28.3419 21.0391 28.1428 21.4142 27.7885C21.7893 27.4341 22 26.9535 22 26.4524V3.77892C22 3.2778 21.7893 2.79721 21.4142 2.44287C21.0391 2.08853 20.5304 1.88946 20 1.88946Z" fill="#1DD48B"/>
</svg>
