<svg width="547" height="414" viewBox="0 0 547 414" fill="none" xmlns="http://www.w3.org/2000/svg">
<g clip-path="url(#clip0_1468_528)">
<path opacity="0.096" d="M263.685 362.433C146.447 353.59 6.63571 263.54 13.7532 170.818C20.8715 78.0976 156.28 -8.21819 273.518 0.625647C390.756 9.47019 458.242 182.75 451.124 275.471C444.006 368.192 380.922 371.278 263.685 362.433Z" fill="#1DD48B"/>
<path opacity="0.1" d="M274.107 383.466C409.412 383.466 519.098 376.789 519.098 368.553C519.098 360.317 409.412 353.641 274.107 353.641C138.802 353.641 29.1152 360.317 29.1152 368.553C29.1152 376.789 138.802 383.466 274.107 383.466Z" fill="#1DD48B"/>
<path opacity="0.05" d="M274.461 378.495C389.569 378.495 482.882 374.044 482.882 368.553C482.882 363.062 389.569 358.611 274.461 358.611C159.354 358.611 66.041 363.062 66.041 368.553C66.041 374.044 159.354 378.495 274.461 378.495Z" fill="black"/>
<path opacity="0.1" d="M103.323 413.999C159.995 413.999 205.936 410.025 205.936 405.123C205.936 400.22 159.995 396.246 103.323 396.246C46.6521 396.246 0.710938 400.22 0.710938 405.123C0.710938 410.025 46.6521 413.999 103.323 413.999Z" fill="#1DD48B"/>
<path d="M89.8301 73.5918H464.774V369.524H89.8301V73.5918Z" fill="#E6E6E6"/>
<path d="M95.1562 78.8242H459.448V364.292H95.1562V78.8242Z" fill="white"/>
<path d="M273.726 117.169H183.598C183.407 117.171 183.219 117.122 183.053 117.029C182.886 116.935 182.747 116.8 182.649 116.637C182.553 116.476 182.502 116.292 182.502 116.104C182.502 115.917 182.553 115.733 182.649 115.572C182.845 115.241 183.207 115.038 183.598 115.039H273.727C274.33 115.04 274.818 115.517 274.818 116.104C274.818 116.692 274.33 117.168 273.726 117.169ZM371.724 129.241H230.46C229.858 129.241 229.37 128.764 229.37 128.176C229.37 127.588 229.858 127.111 230.46 127.111H371.724C372.114 127.111 372.474 127.314 372.669 127.644C372.764 127.805 372.815 127.989 372.815 128.176C372.815 128.364 372.764 128.548 372.669 128.709C372.474 129.038 372.114 129.241 371.724 129.241ZM274.363 142.024H184.235C183.631 142.024 183.141 141.546 183.141 140.958C183.141 140.37 183.631 139.893 184.235 139.893H274.363C274.967 139.893 275.457 140.37 275.457 140.958C275.457 141.546 274.967 142.024 274.363 142.024ZM371.65 142.024H281.521C280.917 142.024 280.428 141.546 280.428 140.958C280.428 140.37 280.917 139.893 281.521 139.893H371.65C372.253 139.893 372.743 140.37 372.743 140.958C372.743 141.546 372.253 142.024 371.65 142.024ZM274.434 154.096H184.306C183.702 154.096 183.212 153.618 183.212 153.03C183.212 152.443 183.702 151.965 184.306 151.965H274.434C275.038 151.965 275.528 152.443 275.528 153.03C275.528 153.618 275.038 154.096 274.434 154.096ZM274.363 165.458H184.235C183.631 165.458 183.141 164.98 183.141 164.392C183.141 163.804 183.631 163.327 184.235 163.327H274.363C274.967 163.327 275.457 163.804 275.457 164.392C275.457 164.98 274.967 165.458 274.363 165.458ZM314.895 117.169H288.71C288.097 117.169 287.6 116.692 287.6 116.104C287.6 115.516 288.097 115.039 288.71 115.039H314.895C315.508 115.039 316.005 115.516 316.005 116.104C316.005 116.692 315.507 117.169 314.895 117.169ZM314.895 154.096H288.71C288.097 154.096 287.6 153.618 287.6 153.03C287.6 152.443 288.097 151.965 288.71 151.965H314.895C315.508 151.965 316.005 152.443 316.005 153.03C316.005 153.618 315.507 154.096 314.895 154.096ZM314.821 165.458H288.641C288.448 165.459 288.258 165.411 288.089 165.318C287.921 165.225 287.779 165.089 287.678 164.925C287.581 164.764 287.529 164.58 287.529 164.392C287.529 164.205 287.581 164.02 287.678 163.86C287.877 163.53 288.244 163.327 288.641 163.327H314.821C315.014 163.325 315.204 163.374 315.373 163.467C315.542 163.56 315.683 163.696 315.784 163.86C315.983 164.189 315.983 164.596 315.784 164.925C315.586 165.255 315.218 165.458 314.821 165.458ZM358.139 165.458H331.954C331.342 165.456 330.847 164.98 330.847 164.392C330.847 163.805 331.342 163.329 331.955 163.327H358.139C358.332 163.326 358.522 163.374 358.691 163.467C358.86 163.56 359.001 163.696 359.102 163.86C359.301 164.189 359.301 164.596 359.102 164.925C358.904 165.255 358.536 165.458 358.139 165.458H358.139ZM209.798 129.241H183.612C182.999 129.241 182.502 128.764 182.502 128.176C182.502 127.588 182.999 127.111 183.612 127.111H209.798C210.41 127.111 210.907 127.588 210.907 128.176C210.907 128.764 210.41 129.241 209.798 129.241ZM273.724 293.989H183.596C182.992 293.989 182.502 293.512 182.502 292.924C182.502 292.336 182.992 291.859 183.596 291.859H273.724C274.328 291.859 274.818 292.336 274.818 292.924C274.818 293.512 274.328 293.989 273.724 293.989ZM273.724 318.133H183.596C182.992 318.133 182.502 317.656 182.502 317.068C182.502 316.48 182.992 316.003 183.596 316.003H273.724C274.328 316.003 274.818 316.48 274.818 317.068C274.818 317.656 274.328 318.133 273.724 318.133ZM273.722 330.205H183.598C183.408 330.207 183.22 330.158 183.053 330.065C182.887 329.972 182.747 329.836 182.649 329.673C182.553 329.512 182.502 329.328 182.502 329.14C182.502 328.953 182.553 328.769 182.649 328.608C182.845 328.277 183.207 328.074 183.598 328.075H273.722C273.913 328.074 274.1 328.122 274.267 328.216C274.433 328.309 274.572 328.444 274.671 328.608C274.766 328.769 274.817 328.953 274.817 329.14C274.817 329.328 274.766 329.512 274.671 329.673C274.475 330.003 274.113 330.206 273.722 330.205ZM312.054 318.133H285.869C285.256 318.133 284.759 317.656 284.759 317.068C284.759 316.48 285.256 316.003 285.869 316.003H312.055C312.668 316.003 313.164 316.48 313.164 317.068C313.164 317.656 312.667 318.133 312.055 318.133H312.054ZM312.054 330.205H285.869C285.256 330.205 284.759 329.728 284.759 329.14C284.759 328.552 285.256 328.075 285.869 328.075H312.055C312.668 328.075 313.164 328.552 313.164 329.14C313.164 329.728 312.667 330.205 312.055 330.205H312.054ZM355.371 318.133H329.186C328.574 318.133 328.077 317.656 328.077 317.068C328.077 316.48 328.574 316.003 329.186 316.003H355.372C355.985 316.003 356.481 316.48 356.481 317.068C356.481 317.656 355.984 318.133 355.372 318.133H355.371ZM371.724 306.061H230.46C229.858 306.061 229.37 305.584 229.37 304.996C229.37 304.408 229.858 303.931 230.46 303.931H371.724C372.326 303.931 372.814 304.408 372.814 304.996C372.814 305.584 372.326 306.061 371.724 306.061ZM209.798 306.061H183.612C182.999 306.061 182.502 305.584 182.502 304.996C182.502 304.408 182.999 303.931 183.612 303.931H209.798C210.41 303.931 210.907 304.408 210.907 304.996C210.907 305.584 210.41 306.061 209.798 306.061ZM371.724 341.567H230.463C230.273 341.568 230.086 341.52 229.92 341.427C229.754 341.333 229.615 341.198 229.518 341.035C229.422 340.874 229.371 340.69 229.371 340.502C229.371 340.315 229.422 340.131 229.518 339.97C229.712 339.639 230.073 339.436 230.463 339.437H371.725C372.327 339.437 372.815 339.914 372.815 340.502C372.815 341.09 372.326 341.567 371.724 341.567ZM209.795 341.567H183.613C183.421 341.569 183.231 341.521 183.062 341.428C182.894 341.334 182.752 341.199 182.651 341.035C182.554 340.874 182.502 340.69 182.502 340.502C182.502 340.314 182.554 340.13 182.651 339.97C182.85 339.639 183.217 339.436 183.614 339.437H209.795C209.988 339.435 210.178 339.483 210.347 339.577C210.516 339.67 210.657 339.805 210.758 339.97C210.957 340.299 210.957 340.705 210.758 341.035C210.559 341.365 210.192 341.568 209.795 341.567Z" fill="#E6E6E6"/>
<path d="M252.479 193.863L217.297 228.304L252.479 262.745L260.395 254.898L233.789 228.522L260.614 201.928L252.479 193.863ZM303.546 193.863L338.727 228.304L303.546 262.745L295.63 254.898L322.236 228.522L295.41 201.928L303.546 193.863Z" fill="#1DD48B"/>
<path d="M105.099 90.1852C107.06 90.1852 108.65 88.5955 108.65 86.6346C108.65 84.6736 107.06 83.084 105.099 83.084C103.138 83.084 101.549 84.6736 101.549 86.6346C101.549 88.5955 103.138 90.1852 105.099 90.1852Z" fill="#1DD48B"/>
<path d="M114.33 90.1852C116.291 90.1852 117.88 88.5955 117.88 86.6346C117.88 84.6736 116.291 83.084 114.33 83.084C112.369 83.084 110.779 84.6736 110.779 86.6346C110.779 88.5955 112.369 90.1852 114.33 90.1852Z" fill="#1DD48B"/>
<path d="M123.562 90.1852C125.523 90.1852 127.113 88.5955 127.113 86.6346C127.113 84.6736 125.523 83.084 123.562 83.084C121.601 83.084 120.012 84.6736 120.012 86.6346C120.012 88.5955 121.601 90.1852 123.562 90.1852Z" fill="#1DD48B"/>
<path d="M95.1562 93.0254H459.448V94.4456H95.1562V93.0254Z" fill="#1DD48B"/>
<path opacity="0.1" d="M546.084 297.191C546.084 327.977 527.803 338.727 505.252 338.727C482.701 338.727 464.42 327.977 464.42 297.191C464.42 266.404 505.252 227.238 505.252 227.238C505.252 227.238 546.084 266.404 546.084 297.191Z" fill="#1DD48B"/>
<path d="M503.484 333.556L503.9 307.73L521.228 275.78L503.965 303.679L504.152 292.066L516.095 268.951L504.202 288.993L504.538 268.108L517.327 249.705L504.591 264.823L504.802 226.527L503.48 277.225L503.588 275.134L490.586 255.076L503.38 279.149L502.169 302.474L502.133 301.855L487.143 280.746L502.087 304.042L501.936 306.958L501.908 307.002L501.921 307.242L498.847 366.421H502.953L503.446 335.854L518.354 312.615L503.484 333.556Z" fill="#3F3D56"/>
<path d="M60.2134 362.907C58.9581 363.614 57.6325 364.189 56.258 364.622C53.8024 365.301 51.1771 365.052 48.6959 365.631C47.6805 365.869 46.5748 366.366 46.2517 367.369C46.0152 368.105 46.273 368.9 46.5194 369.633C49.2605 377.771 50.9129 386.413 55.2851 393.784C57.1186 396.875 59.3991 399.678 62.0526 402.102C63.046 403.009 64.1723 403.897 65.503 404.039C66.118 404.104 66.7391 404.003 67.3027 403.749C67.8662 403.494 68.3519 403.094 68.7099 402.59C69.0717 402.083 69.2949 401.49 69.3575 400.87C69.4201 400.249 69.3201 399.624 69.0671 399.054C68.6752 398.171 67.9466 397.488 67.4765 396.647C66.9665 395.572 66.6678 394.41 66.5966 393.223C66.1649 389.742 65.7487 386.104 66.9396 382.81C67.7385 380.601 69.2042 378.717 70.4249 376.715C71.6456 374.712 72.6596 372.419 72.3884 370.082C72.203 368.488 71.4347 367.029 70.623 365.649C69.8099 364.267 68.2029 360.553 66.5689 360.091C64.8732 359.612 61.6925 362.139 60.2134 362.907ZM104.786 391.636C104.811 392.416 104.705 393.194 104.47 393.938C103.966 395.292 102.716 396.221 102.071 397.512C101.173 399.307 101.58 401.477 102.175 403.398C102.548 404.603 103.037 405.856 104.038 406.601C104.892 407.141 105.867 407.459 106.875 407.526C115.466 408.737 124.193 408.043 132.862 408.296C134.442 408.342 136.115 408.399 137.495 407.612C138.874 406.826 139.727 404.849 138.789 403.553C137.947 402.389 136.281 402.4 134.863 402.332C131.158 402.136 127.637 400.658 124.901 398.153C124.357 397.679 123.886 397.127 123.504 396.515C123.209 395.969 122.964 395.398 122.773 394.808C121.559 391.458 120.114 388.197 118.447 385.048C117.98 384.168 117.453 383.251 116.586 382.779C115.953 382.486 115.264 382.333 114.567 382.331C112.406 382.189 106.811 381.439 105.14 383.15C103.596 384.732 104.82 389.628 104.786 391.636Z" fill="#2F2E41"/>
<path d="M118.591 195.993C126.435 195.993 132.793 189.634 132.793 181.79C132.793 173.947 126.435 167.588 118.591 167.588C110.747 167.588 104.389 173.947 104.389 181.79C104.389 189.634 110.747 195.993 118.591 195.993Z" fill="#FBBEBE"/>
<path d="M105.807 194.115C104.983 196.396 103.585 198.538 101.549 199.765L120.722 203.805C120.027 200.911 119.935 197.905 120.454 194.974C120.644 194.263 120.683 193.52 120.568 192.794C120.208 191.357 118.642 190.665 117.241 190.335C113.742 189.511 110.647 189.069 107.395 187.473C106.401 189.23 106.54 192.088 105.807 194.115Z" fill="#FBBEBE"/>
<path d="M101.371 193.791C103.459 192.848 105.733 192.389 108.023 192.449C110.313 192.508 112.56 193.085 114.596 194.135C117.084 195.444 119.144 197.419 121.167 199.367C123.033 201.164 125.023 203.22 125.155 205.804C125.219 207.056 124.828 208.279 124.63 209.518C124.276 212.079 124.728 214.686 125.924 216.978C127.12 219.271 129 221.133 131.303 222.308C132.844 224.871 133.163 227.976 133.186 230.965C133.276 242.291 129.695 253.757 132.252 264.791C132.852 267.382 133.782 269.892 134.3 272.5C134.972 275.878 134.94 279.353 135.29 282.779C135.671 286.49 136.503 290.141 137.766 293.65C136.921 294.99 135.164 295.505 133.582 295.396C131.999 295.287 130.519 294.602 129.107 293.881C122.268 290.388 116.005 285.782 108.923 282.814C104.237 280.851 99.2453 279.627 94.6991 277.359C90.1536 275.091 85.9263 271.491 84.5359 266.612C83.9351 264.503 83.8982 262.28 83.8655 260.087C83.7271 250.849 83.5985 241.512 85.6131 232.496C87.3899 224.544 90.8141 216.937 91.5611 208.824C91.804 206.184 91.8097 203.357 93.2874 201.154C95.3773 198.039 99.888 197.232 101.372 193.79L101.371 193.791Z" fill="#2F2E41"/>
<path d="M109.81 182.645C110.644 181.564 112.252 181.417 113.584 181.736C114.916 182.056 116.145 182.738 117.49 182.997C118.108 183.172 118.772 183.08 119.318 182.742C119.788 182.283 120.069 181.665 120.107 181.01C120.579 178.224 120.689 175.389 120.435 172.576C120.365 172.181 120.392 171.775 120.513 171.392C120.846 170.595 121.862 170.405 122.692 170.15C125.508 169.203 127.321 166.48 127.093 163.534C127.072 162.846 126.781 162.194 126.284 161.719C125.711 161.254 124.907 161.225 124.167 161.219C120.363 161.189 116.558 161.19 112.754 161.222C111.346 161.234 109.868 161.268 108.647 161.966C107.745 162.482 107.074 163.311 106.264 163.961C104.151 165.655 101.293 166 98.7225 166.868C97.4677 167.223 96.3279 167.898 95.4169 168.827C94.5626 169.797 94.1514 171.24 94.6883 172.414C94.9638 172.904 95.2713 173.374 95.61 173.823C97.1261 176.233 96.1163 179.357 96.3429 182.189C96.6255 185.726 101.894 191.463 105.466 192.301C111.232 193.652 107.901 184.966 109.81 182.645ZM102.784 337.154C103.137 339.742 103.59 342.338 103.469 344.948C103.3 348.591 102.019 352.101 101.782 355.74C101.605 358.459 102.014 361.206 101.646 363.904C101.41 365.632 100.861 367.297 100.521 369.006C99.4333 374.634 100.626 380.473 103.827 385.179C104.057 385.575 104.388 385.904 104.785 386.132C105.165 386.276 105.572 386.332 105.974 386.294C109.973 386.21 113.96 385.838 117.906 385.181C118.196 385.169 118.471 385.045 118.673 384.835C118.761 384.696 118.817 384.536 118.838 384.371C119.569 380.513 117.901 376.644 117.477 372.738C117.024 368.567 117.999 364.387 118.968 360.309C119.407 358.298 119.956 356.314 120.612 354.363C121.081 353.053 121.645 351.776 122.051 350.444C122.627 348.349 122.976 346.197 123.095 344.025C123.377 340.597 123.526 337.161 123.543 333.718C123.639 330.456 123.374 327.193 122.754 323.989C121.863 319.936 120.041 316.172 118.233 312.453C117.263 312.692 116.356 313.134 115.57 313.751C113.245 315.296 110.814 316.673 108.294 317.874C106.603 318.679 103.306 319.252 102.233 320.93C101.175 322.585 101.858 325.962 101.939 327.788C102.078 330.922 102.359 334.044 102.784 337.154Z" fill="#2F2E41"/>
<path opacity="0.1" d="M102.782 337.155C103.135 339.742 103.588 342.339 103.468 344.948C103.299 348.591 102.018 352.101 101.78 355.741C101.604 358.459 102.013 361.206 101.645 363.904C101.409 365.632 100.86 367.297 100.52 369.006C99.432 374.634 100.625 380.473 103.826 385.179C104.056 385.576 104.387 385.904 104.784 386.132C105.164 386.276 105.57 386.332 105.973 386.294C109.972 386.211 113.959 385.839 117.904 385.181C118.195 385.169 118.47 385.045 118.671 384.835C118.759 384.696 118.816 384.537 118.837 384.371C119.568 380.513 117.899 376.644 117.475 372.738C117.022 368.567 117.998 364.387 118.967 360.309C119.406 358.299 119.954 356.314 120.611 354.364C121.079 353.053 121.644 351.777 122.05 350.444C122.625 348.35 122.975 346.197 123.094 344.025C123.376 340.597 123.525 337.162 123.541 333.718C123.637 330.456 123.373 327.194 122.752 323.99C121.862 319.936 120.04 316.172 118.232 312.453C117.262 312.692 116.354 313.135 115.569 313.751C113.244 315.296 110.813 316.674 108.293 317.874C106.602 318.679 103.305 319.252 102.232 320.931C101.174 322.585 101.856 325.962 101.937 327.788C102.076 330.922 102.358 334.044 102.782 337.155Z" fill="black"/>
<path d="M83.0578 282.627C81.193 287.635 83.9341 293.046 86.3151 297.831C92.1814 309.619 96.2554 322.198 100.307 334.721C100.611 335.66 100.914 336.683 100.576 337.61C100.283 338.268 99.8091 338.83 99.2088 339.228C96.4145 341.345 92.8575 342.099 89.5291 343.206C86.3133 344.276 83.2327 345.717 80.3494 347.499C77.9379 348.99 75.679 350.71 73.4236 352.428L66.2464 357.896C65.7817 358.209 65.3755 358.602 65.0463 359.055C64.354 360.138 64.6373 361.553 64.9824 362.79C65.8954 366.069 67.0706 369.268 68.4968 372.358C68.7311 373.035 69.1785 373.62 69.7708 374.024C70.8913 374.624 72.2619 373.828 73.1176 372.89C73.9725 371.951 74.7125 370.783 75.919 370.379C77.1233 369.977 78.4491 370.465 79.7068 370.288C81.742 370.003 83.0926 368.133 84.559 366.698C90.551 360.834 100.556 361.259 107.147 356.075C108.1 355.224 109.109 354.438 110.167 353.721C111.282 353.064 112.545 352.704 113.701 352.124C117.217 350.357 119.428 346.705 120.613 342.959C121.796 339.214 122.134 335.26 122.985 331.426C123.425 329.443 124.004 327.482 124.2 325.461C124.326 323.582 124.285 321.694 124.077 319.822L121.699 290.472C121.505 288.083 121.311 285.69 120.936 283.323C113.871 283.574 106.813 283.858 99.7456 283.941C94.1215 284.007 88.3944 284.4 83.0578 282.627Z" fill="#2F2E41"/>
<path d="M80.9278 289.196C81.8886 290.737 84.2256 290.705 85.8354 289.86C87.4452 289.015 88.6958 287.596 90.3092 286.758C92.4772 285.632 95.0428 285.675 97.4856 285.744C101.354 285.852 105.269 285.969 108.99 287.026C112.839 288.12 116.586 290.226 120.566 289.806C121.259 289.733 122.016 289.534 122.393 288.95C122.614 288.527 122.718 288.053 122.694 287.576L122.824 284.107C122.904 283.507 122.808 282.897 122.547 282.35C122.213 281.895 121.755 281.545 121.228 281.342C115.563 278.607 109.103 278.097 102.813 277.882C99.6156 277.773 96.4163 277.728 93.2171 277.747C90.5016 277.764 87.2414 277.372 84.6012 278.096C81.0577 279.067 79.1304 286.312 80.9278 289.195V289.196Z" fill="#2F2E41"/>
<path d="M116.102 198.152C108.775 198.088 102.135 193.283 94.8083 193.165C93.9233 193.105 93.0367 193.257 92.2227 193.609C91.2016 194.12 90.5305 195.108 89.7543 195.942C87.5885 198.273 84.4512 199.517 82.2256 201.793C80.1386 203.925 78.9783 207.104 79.802 209.963C80.6257 212.823 83.7361 215.016 86.6483 214.329C87.8264 210.549 90.2491 207.278 93.5222 205.05C95.2288 203.962 97.0265 203.025 98.895 202.248C102.188 200.766 105.87 199.255 109.308 200.366C110.575 200.841 111.77 201.489 112.86 202.29L118.592 206.116C117.924 203.499 117.323 200.563 116.102 198.152Z" fill="#1DD48B"/>
<path d="M85.6507 211.809C84.6608 213.039 86.0875 214.821 85.8688 216.382C85.7239 217.419 84.8661 218.211 84.5089 219.196C84.1396 220.216 84.3356 221.348 84.195 222.423C84.0543 223.205 83.8461 223.974 83.5729 224.721C82.9448 226.951 82.5062 229.23 82.2621 231.534L80.9561 241.239C80.7297 242.699 80.592 244.172 80.5436 245.649C80.6093 246.753 80.5351 247.86 80.3227 248.946C80.0337 250.007 79.3939 250.934 78.9628 251.946C78.5325 252.958 78.333 254.182 78.9145 255.116C76.9667 256.731 76.3865 259.902 77.75 262.031C78.0084 262.363 78.2115 262.734 78.35 263.132C78.4251 263.687 78.3329 264.252 78.0851 264.754L76.765 268.255C76.427 269.152 76.3205 270.516 77.26 270.721C76.4823 271.524 75.8759 272.477 75.4776 273.522C75.2848 274.047 75.2273 274.611 75.3104 275.163C75.3934 275.715 75.6143 276.238 75.9526 276.682C76.2807 276.969 76.5598 277.307 76.7792 277.682C76.9085 278.205 76.8751 278.754 76.6841 279.257C76.4866 280.022 76.4485 280.819 76.5721 281.599C76.6957 282.379 76.9785 283.126 77.4027 283.792C77.8442 284.451 78.4676 284.967 79.197 285.278C79.9264 285.589 80.7304 285.682 81.5115 285.545C84.1517 284.952 86.5249 284.016 89.1879 284.502C94.9199 285.55 100.67 286.601 106.224 288.365C112.56 290.379 118.696 293.333 125.319 293.952C125.754 294.041 126.207 293.971 126.596 293.755C126.934 293.437 127.143 293.007 127.186 292.546L129.233 282.993C130.058 279.464 130.686 275.891 131.115 272.292C131.348 269.969 131.414 267.633 131.48 265.3L132.008 246.727C132.255 243.989 131.888 241.231 130.934 238.653L127.9 229.01C126.168 223.507 122.196 218.628 120.781 213.036C119.886 209.496 119.225 205.698 116.824 202.94C113.402 199.007 107.481 198.395 102.298 199.072C99.9568 199.377 97.595 199.904 95.5697 201.113C93.2284 202.51 91.5028 204.712 89.8341 206.863C88.4586 208.636 87.0575 210.061 85.6507 211.809Z" fill="#1DD48B"/>
<path d="M97.7569 266.821C98.1716 268.629 99.0422 270.297 99.5748 272.073C100.469 275.049 100.393 278.254 101.284 281.23C101.658 282.48 102.2 283.68 102.469 284.956C103.095 287.933 102.181 291.013 101.045 293.831C99.9093 296.65 98.5266 299.429 98.1581 302.449C97.8989 304.577 98.2717 306.979 99.8929 308.36C101.576 309.793 104.022 309.696 106.214 309.505C107.002 309.483 107.779 309.319 108.509 309.022C110.185 308.22 110.892 306.214 111.284 304.38C112.598 298.236 112.221 291.867 111.84 285.592L110.842 269.182C110.651 266.023 110.445 262.798 109.482 259.766C109.132 258.662 108.521 256.432 107.525 255.728C106.538 255.03 103.719 254.999 102.497 254.94C96.7634 254.668 96.828 262.763 97.7569 266.821Z" fill="#FBBEBE"/>
<path d="M104.198 205.575C102.986 204.951 101.458 205.22 100.286 205.914C99.1581 206.672 98.1673 207.617 97.3565 208.708C94.7376 211.848 91.9646 215.451 92.353 219.492C92.4986 221.008 93.0894 222.442 93.4892 223.911C95.246 230.359 93.3046 237.177 93.5268 243.847C93.6554 247.7 94.5096 251.492 95.3597 255.256C95.5336 256.024 95.8113 256.914 96.5683 257.173C97.1364 257.367 97.7506 257.117 98.3131 256.907C102.567 255.363 107.32 255.951 111.051 258.484C112.457 257.747 111.93 255.418 111.615 253.884C110.678 249.327 111.949 244.626 113.493 240.231C115.036 235.837 116.883 231.447 117.139 226.805C117.429 221.545 115.653 216.412 113.901 211.433C113.519 210.347 113.101 209.207 112.214 208.456C111.453 207.901 110.583 207.511 109.661 207.311C107.801 206.771 105.916 206.459 104.198 205.575Z" fill="#2F2E41"/>
</g>
<defs>
<clipPath id="clip0_1468_528">
<rect width="546.792" height="414" fill="white"/>
</clipPath>
</defs>
</svg>
