<svg width="510" height="414" viewBox="0 0 510 414" fill="none" xmlns="http://www.w3.org/2000/svg">
<g clip-path="url(#clip0_1468_790)">
<path d="M145.19 262.007C144.411 261.716 143.704 261.256 143.122 260.662C142.539 260.068 142.093 259.353 141.817 258.568C141.54 257.783 141.439 256.947 141.52 256.118C141.602 255.29 141.864 254.49 142.288 253.774L129.223 238.324L139.662 237.076L150.469 251.938C151.625 252.731 152.45 253.92 152.788 255.28C153.125 256.64 152.953 258.076 152.302 259.318C151.651 260.559 150.568 261.518 149.257 262.014C147.946 262.51 146.499 262.507 145.19 262.007Z" fill="#FFB6B6"/>
<path d="M91.4001 406.804L98.3412 406.804L101.644 380.029L91.3984 380.03L91.4001 406.804Z" fill="#FFB6B6"/>
<path d="M89.6289 404.538L91.5828 404.538L99.2108 401.436L103.299 404.537H103.3C105.61 404.537 107.826 405.455 109.46 407.089C111.094 408.723 112.011 410.938 112.012 413.249V413.532L89.6293 413.533L89.6289 404.538Z" fill="#2F2E41"/>
<path d="M118.301 402.43L125.072 403.958L134.191 378.569L124.197 376.312L118.301 402.43Z" fill="#FFB6B6"/>
<path d="M117.073 399.829L118.979 400.26L127.103 398.914L130.407 402.84C132.661 403.349 134.621 404.733 135.855 406.686C137.088 408.64 137.496 411.003 136.987 413.257L136.925 413.533L115.092 408.604L117.073 399.829Z" fill="#2F2E41"/>
<path d="M78.6914 269.08L84.9685 339.407C84.9685 339.407 82.6165 381.628 90.2058 396.486H101.212L106.662 335.551L107.346 294.652L130.943 329.157L115.913 395.49L129.46 396.701L153.849 324.715L127.054 257.137L78.6914 269.08Z" fill="#2F2E41"/>
<path d="M85.2662 157.085C94.2067 157.085 101.454 149.838 101.454 140.897C101.454 131.957 94.2067 124.709 85.2662 124.709C76.3258 124.709 69.0781 131.957 69.0781 140.897C69.0781 149.838 76.3258 157.085 85.2662 157.085Z" fill="#FFB8B8"/>
<path d="M119.251 172.514L100.444 166.815L97.9969 159.289L77.8286 162.563L73.5435 169.91L59.6719 182.809L75.9241 256.293L75.4321 272.343C75.4321 272.343 85.8339 277.026 130.945 266.244C131.486 266.115 130.353 265.549 130.353 265.549L119.251 172.514Z" fill="#3F3D56"/>
<path d="M137.11 253.516L115.064 223.994L108.814 171.674L108.997 171.586C110.704 170.764 112.588 170.38 114.481 170.467C116.373 170.555 118.214 171.111 119.838 172.087C121.462 173.062 122.818 174.426 123.784 176.056C124.75 177.686 125.295 179.53 125.371 181.423L126.671 213.753L148.566 242.647L137.11 253.516Z" fill="#3F3D56"/>
<path d="M68.4327 150.083C68.3199 149.929 68.2082 149.774 68.0976 149.617C68.0531 149.711 68.0177 149.808 67.9668 149.9L68.4327 150.083Z" fill="#2F2E41"/>
<path d="M101.369 129.057C100.287 126.7 98.358 124.836 95.9648 123.836C93.5927 122.879 90.9417 122.882 88.5713 123.843C86.4312 122.491 84.0533 121.419 81.5491 121.286C79.0448 121.153 76.3972 122.082 74.8539 124.127C74.5093 124.667 74.1179 125.176 73.6842 125.647C72.4437 126.796 70.5585 126.63 68.9096 126.395C69.6492 127.029 70.3889 127.663 71.1288 128.297C70.2337 128.53 69.3384 128.764 68.443 128.998C69.4877 129.632 70.5324 130.265 71.577 130.899C68.5442 132.719 67.1657 136.693 67.5298 140.301C67.8743 143.717 69.5237 146.841 71.4954 149.618C72.282 147.958 72.1125 145.972 72.0995 144.103C72.086 142.128 72.4354 139.885 74.0182 138.781C75.0859 138.036 76.4588 138.003 77.7463 138.01C84.2407 138.046 90.7278 138.45 97.1762 139.223C98.0513 139.261 98.9044 139.508 99.6639 139.944C101.09 140.917 101.368 142.925 101.511 144.686C102.264 141.778 102.633 138.783 102.608 135.779C102.671 133.477 102.249 131.186 101.369 129.057Z" fill="#2F2E41"/>
<path d="M99.7778 325.565C113.849 325.565 125.257 314.158 125.257 300.086C125.257 286.015 113.849 274.607 99.7778 274.607C85.7062 274.607 74.2988 286.015 74.2988 300.086C74.2988 314.158 85.7062 325.565 99.7778 325.565Z" fill="#F0F0F0"/>
<path d="M99.7776 274.041C98.4679 274.041 97.1601 274.14 95.8651 274.335C95.2027 274.432 94.5574 274.556 93.9174 274.709C89.217 275.793 84.91 278.161 81.4771 281.549C78.0441 284.938 75.6202 289.214 74.4757 293.9C73.3313 298.586 73.5113 303.498 74.9957 308.087C76.4801 312.677 79.2105 316.764 82.8823 319.892C83.3183 320.26 83.7598 320.617 84.2185 320.956C87.524 323.421 91.3675 325.065 95.4326 325.754C99.4978 326.443 103.669 326.157 107.601 324.919C111.534 323.681 115.117 321.527 118.055 318.633C120.992 315.74 123.201 312.191 124.499 308.277C125.797 304.364 126.147 300.198 125.52 296.123C124.894 292.048 123.308 288.179 120.894 284.837C118.481 281.494 115.308 278.772 111.636 276.895C107.965 275.018 103.901 274.04 99.7776 274.041ZM99.7776 324.999C94.4803 325.005 89.3208 323.312 85.0564 320.169C84.5922 319.83 84.1449 319.479 83.7089 319.105C80.1316 316.087 77.4772 312.122 76.0503 307.665C74.6234 303.208 74.4816 298.438 75.6413 293.904C76.801 289.37 79.2153 285.254 82.6071 282.03C85.9989 278.805 90.2309 276.601 94.8178 275.672C95.4518 275.541 96.086 275.44 96.7315 275.36C97.7421 275.235 98.7594 275.173 99.7776 275.173C106.385 275.173 112.722 277.798 117.394 282.47C122.066 287.142 124.69 293.479 124.69 300.086C124.69 306.693 122.066 313.03 117.394 317.702C112.722 322.374 106.385 324.999 99.7776 324.999Z" fill="#3F3D56"/>
<path d="M87.3222 294.99H112.235C113.173 294.99 113.934 294.23 113.934 293.292C113.934 292.354 113.173 291.593 112.235 291.593H87.3222C86.3841 291.593 85.6236 292.354 85.6236 293.292C85.6236 294.23 86.3841 294.99 87.3222 294.99Z" fill="#209D6B"/>
<path d="M87.3222 301.785H112.235C113.173 301.785 113.934 301.025 113.934 300.087C113.934 299.148 113.173 298.388 112.235 298.388H87.3222C86.3841 298.388 85.6236 299.148 85.6236 300.087C85.6236 301.025 86.3841 301.785 87.3222 301.785Z" fill="#209D6B"/>
<path d="M87.3222 308.578H112.235C113.173 308.578 113.934 307.818 113.934 306.88C113.934 305.941 113.173 305.181 112.235 305.181H87.3222C86.3841 305.181 85.6236 305.941 85.6236 306.88C85.6236 307.818 86.3841 308.578 87.3222 308.578Z" fill="#209D6B"/>
<path d="M101.407 281.84C100.585 281.713 99.8 281.407 99.1084 280.944C98.4167 280.481 97.835 279.872 97.4042 279.159C96.9735 278.447 96.7041 277.649 96.6151 276.821C96.5261 275.994 96.6196 275.157 96.8891 274.369L80.9512 261.905L90.9179 258.557L104.525 270.906C105.818 271.447 106.868 272.443 107.475 273.705C108.083 274.968 108.207 276.41 107.822 277.758C107.438 279.105 106.573 280.265 105.39 281.018C104.208 281.77 102.791 282.062 101.407 281.84Z" fill="#FFB6B6"/>
<path d="M69.4852 182.6L59.6701 182.808C57.7447 184.581 56.2125 186.739 55.1724 189.141C54.1323 191.543 53.6074 194.137 53.6317 196.755V243.132L90.4619 273.924L102.371 262.391L74.9581 232.525L69.4852 182.6Z" fill="#3F3D56"/>
<path d="M509.504 72.2324H144.949V305.709H509.504V72.2324Z" fill="#E6E6E6"/>
<path d="M499.081 101.516H155.375V291.896H499.081V101.516Z" fill="white"/>
<path d="M509.349 72.0254H144.795V87.513H509.349V72.0254Z" fill="#209D6B"/>
<path d="M156.304 82.8133C157.889 82.8133 159.175 81.5281 159.175 79.9428C159.175 78.3574 157.889 77.0723 156.304 77.0723C154.719 77.0723 153.434 78.3574 153.434 79.9428C153.434 81.5281 154.719 82.8133 156.304 82.8133Z" fill="white"/>
<path d="M167.199 82.8133C168.784 82.8133 170.069 81.5281 170.069 79.9428C170.069 78.3574 168.784 77.0723 167.199 77.0723C165.613 77.0723 164.328 78.3574 164.328 79.9428C164.328 81.5281 165.613 82.8133 167.199 82.8133Z" fill="white"/>
<path d="M178.095 82.8133C179.68 82.8133 180.966 81.5281 180.966 79.9428C180.966 78.3574 179.68 77.0723 178.095 77.0723C176.51 77.0723 175.225 78.3574 175.225 79.9428C175.225 81.5281 176.51 82.8133 178.095 82.8133Z" fill="white"/>
<path d="M363.763 121.27H290.166V162.799H363.763V121.27Z" fill="#209D6B"/>
<path d="M363.763 174.363H290.166V219.047H363.763V174.363Z" fill="#E6E6E6"/>
<path d="M467.849 121.27H379.533V187.019H467.849V121.27Z" fill="#E6E6E6"/>
<path d="M467.849 206.393H379.533V272.142H467.849V206.393Z" fill="#209D6B"/>
<path d="M275.342 121.27H187.025V187.019H275.342V121.27Z" fill="#E6E6E6"/>
<path d="M351.727 45.0938L326.568 139.736L327.721 140.043L352.644 46.2862L351.727 45.0938Z" fill="#3F3D56"/>
<path d="M424.346 238.705L399.424 332.462L400.34 333.655L425.499 239.011L424.346 238.705Z" fill="#3F3D56"/>
<path d="M273.601 226.846H188.671C188.146 226.846 187.642 226.637 187.27 226.266C186.898 225.894 186.689 225.39 186.689 224.865C186.689 224.339 186.898 223.835 187.27 223.463C187.642 223.092 188.146 222.883 188.671 222.883H273.601C274.127 222.883 274.631 223.092 275.002 223.463C275.374 223.835 275.583 224.339 275.583 224.865C275.583 225.39 275.374 225.894 275.002 226.266C274.631 226.637 274.127 226.846 273.601 226.846Z" fill="#E6E6E6"/>
<path d="M273.601 215.522H188.671C188.146 215.522 187.642 215.313 187.27 214.942C186.898 214.57 186.689 214.066 186.689 213.54C186.689 213.015 186.898 212.511 187.27 212.139C187.642 211.767 188.146 211.559 188.671 211.559H273.601C274.127 211.559 274.631 211.767 275.002 212.139C275.374 212.511 275.583 213.015 275.583 213.54C275.583 214.066 275.374 214.57 275.002 214.942C274.631 215.313 274.127 215.522 273.601 215.522Z" fill="#E6E6E6"/>
<path d="M273.601 238.17H188.671C188.146 238.17 187.642 237.962 187.27 237.59C186.898 237.218 186.689 236.714 186.689 236.189C186.689 235.663 186.898 235.159 187.27 234.787C187.642 234.416 188.146 234.207 188.671 234.207H273.601C274.127 234.207 274.631 234.416 275.002 234.787C275.374 235.159 275.583 235.663 275.583 236.189C275.583 236.714 275.374 237.218 275.002 237.59C274.631 237.962 274.127 238.17 273.601 238.17Z" fill="#E6E6E6"/>
<path d="M273.601 249.495H188.671C188.146 249.495 187.642 249.286 187.27 248.914C186.898 248.543 186.689 248.039 186.689 247.513C186.689 246.987 186.898 246.483 187.27 246.112C187.642 245.74 188.146 245.531 188.671 245.531H273.601C274.127 245.531 274.631 245.74 275.002 246.112C275.374 246.483 275.583 246.987 275.583 247.513C275.583 248.039 275.374 248.543 275.002 248.914C274.631 249.286 274.127 249.495 273.601 249.495Z" fill="#E6E6E6"/>
<path d="M273.601 260.819H188.671C188.146 260.819 187.642 260.61 187.27 260.238C186.898 259.867 186.689 259.363 186.689 258.837C186.689 258.312 186.898 257.808 187.27 257.436C187.642 257.064 188.146 256.855 188.671 256.855H273.601C274.127 256.855 274.631 257.064 275.002 257.436C275.374 257.808 275.583 258.312 275.583 258.837C275.583 259.363 275.374 259.867 275.002 260.238C274.631 260.61 274.127 260.819 273.601 260.819Z" fill="#E6E6E6"/>
<path d="M273.601 272.143H188.671C188.146 272.143 187.642 271.934 187.27 271.563C186.898 271.191 186.689 270.687 186.689 270.161C186.689 269.636 186.898 269.132 187.27 268.76C187.642 268.388 188.146 268.18 188.671 268.18H273.601C274.127 268.18 274.631 268.388 275.002 268.76C275.374 269.132 275.583 269.636 275.583 270.161C275.583 270.687 275.374 271.191 275.002 271.563C274.631 271.934 274.127 272.143 273.601 272.143Z" fill="#E6E6E6"/>
<path d="M362.069 238.17H291.861C291.335 238.17 290.831 237.962 290.459 237.59C290.088 237.218 289.879 236.714 289.879 236.189C289.879 235.663 290.088 235.159 290.459 234.787C290.831 234.416 291.335 234.207 291.861 234.207H362.069C362.595 234.207 363.099 234.416 363.471 234.787C363.842 235.159 364.051 235.663 364.051 236.189C364.051 236.714 363.842 237.218 363.471 237.59C363.099 237.962 362.595 238.17 362.069 238.17Z" fill="#E6E6E6"/>
<path d="M362.069 249.495H291.861C291.335 249.495 290.831 249.286 290.459 248.914C290.088 248.543 289.879 248.039 289.879 247.513C289.879 246.987 290.088 246.483 290.459 246.112C290.831 245.74 291.335 245.531 291.861 245.531H362.069C362.595 245.531 363.099 245.74 363.471 246.112C363.842 246.483 364.051 246.987 364.051 247.513C364.051 248.039 363.842 248.543 363.471 248.914C363.099 249.286 362.595 249.495 362.069 249.495Z" fill="#E6E6E6"/>
<path d="M362.069 260.819H291.861C291.335 260.819 290.831 260.61 290.459 260.238C290.088 259.867 289.879 259.363 289.879 258.837C289.879 258.312 290.088 257.808 290.459 257.436C290.831 257.064 291.335 256.855 291.861 256.855H362.069C362.595 256.855 363.099 257.064 363.471 257.436C363.842 257.808 364.051 258.312 364.051 258.837C364.051 259.363 363.842 259.867 363.471 260.238C363.099 260.61 362.595 260.819 362.069 260.819Z" fill="#E6E6E6"/>
<path d="M362.069 272.143H291.861C291.335 272.143 290.831 271.934 290.459 271.563C290.088 271.191 289.879 270.687 289.879 270.161C289.879 269.636 290.088 269.132 290.459 268.76C290.831 268.388 291.335 268.18 291.861 268.18H362.069C362.595 268.18 363.099 268.388 363.471 268.76C363.842 269.132 364.051 269.636 364.051 270.161C364.051 270.687 363.842 271.191 363.471 271.563C363.099 271.934 362.595 272.143 362.069 272.143Z" fill="#E6E6E6"/>
<path d="M353.436 51.5244C367.508 51.5244 378.915 40.1171 378.915 26.0454C378.915 11.9737 367.508 0.566406 353.436 0.566406C339.364 0.566406 327.957 11.9737 327.957 26.0454C327.957 40.1171 339.364 51.5244 353.436 51.5244Z" fill="#F0F0F0"/>
<path d="M353.436 6.03701e-07C352.126 0.000156556 350.818 0.0985722 349.523 0.294423C348.861 0.390677 348.216 0.515214 347.576 0.668117C342.875 1.75159 338.568 4.11975 335.135 7.50837C331.702 10.897 329.278 15.1728 328.134 19.8588C326.989 24.5447 327.169 29.4565 328.654 34.0461C330.138 38.6357 332.869 42.7226 336.541 45.8509C336.977 46.2189 337.418 46.5756 337.877 46.9153C341.182 49.3799 345.026 51.0242 349.091 51.7131C353.156 52.402 357.327 52.1157 361.26 50.8777C365.193 49.6398 368.775 47.4856 371.713 44.5925C374.651 41.6993 376.859 38.1499 378.157 34.2364C379.455 30.3229 379.805 26.1571 379.178 22.0818C378.552 18.0066 376.966 14.1384 374.553 10.7956C372.139 7.45285 368.966 4.73104 365.295 2.85419C361.623 0.977344 357.559 -0.000887156 353.436 6.03701e-07ZM353.436 50.958C348.139 50.9637 342.979 49.271 338.715 46.1283C338.25 45.7886 337.803 45.4375 337.367 45.0638C333.79 42.0461 331.135 38.0812 329.709 33.6239C328.282 29.1666 328.14 24.3973 329.3 19.8631C330.459 15.3289 332.873 11.2134 336.265 7.98857C339.657 4.76374 343.889 2.56019 348.476 1.63065C349.11 1.50043 349.744 1.39851 350.39 1.31924C351.4 1.1941 352.418 1.1317 353.436 1.1324C360.043 1.1324 366.38 3.75713 371.052 8.42919C375.724 13.1012 378.349 19.4379 378.349 26.0452C378.349 32.6525 375.724 38.9891 371.052 43.6612C366.38 48.3332 360.043 50.958 353.436 50.958Z" fill="#3F3D56"/>
<path d="M340.978 20.9492L365.891 20.9492C366.829 20.9492 367.59 20.1887 367.59 19.2506C367.59 18.3125 366.829 17.552 365.891 17.552L340.978 17.552C340.04 17.552 339.28 18.3125 339.28 19.2506C339.28 20.1887 340.04 20.9492 340.978 20.9492Z" fill="#209D6B"/>
<path d="M340.978 27.7441L365.891 27.7441C366.829 27.7441 367.59 26.9837 367.59 26.0455C367.59 25.1074 366.829 24.3469 365.891 24.3469L340.978 24.3469C340.04 24.3469 339.28 25.1074 339.28 26.0455C339.28 26.9837 340.04 27.7441 340.978 27.7441Z" fill="#209D6B"/>
<path d="M340.978 34.5391H365.891C366.829 34.5391 367.59 33.7786 367.59 32.8405C367.59 31.9024 366.829 31.1419 365.891 31.1419L340.978 31.1419C340.04 31.1419 339.28 31.9024 339.28 32.8405C339.28 33.7786 340.04 34.5391 340.978 34.5391Z" fill="#209D6B"/>
<path d="M396.467 381.052C410.539 381.052 421.946 369.644 421.946 355.573C421.946 341.501 410.539 330.094 396.467 330.094C382.396 330.094 370.988 341.501 370.988 355.573C370.988 369.644 382.396 381.052 396.467 381.052Z" fill="#F0F0F0"/>
<path d="M396.467 329.527C395.157 329.528 393.85 329.626 392.555 329.822C391.892 329.918 391.247 330.043 390.607 330.195C385.906 331.279 381.6 333.647 378.167 337.036C374.734 340.424 372.31 344.7 371.165 349.386C370.021 354.072 370.201 358.984 371.685 363.573C373.17 368.163 375.9 372.25 379.572 375.378C380.008 375.746 380.449 376.103 380.908 376.443C384.213 378.907 388.057 380.552 392.122 381.24C396.187 381.929 400.358 381.643 404.291 380.405C408.224 379.167 411.807 377.013 414.744 374.12C417.682 371.227 419.891 367.677 421.189 363.764C422.486 359.85 422.836 355.684 422.21 351.609C421.583 347.534 419.998 343.666 417.584 340.323C415.17 336.98 411.997 334.258 408.326 332.382C404.655 330.505 400.59 329.526 396.467 329.527ZM396.467 380.485C391.17 380.491 386.01 378.798 381.746 375.656C381.282 375.316 380.834 374.965 380.398 374.591C376.821 371.573 374.167 367.609 372.74 363.151C371.313 358.694 371.171 353.925 372.331 349.39C373.491 344.856 375.905 340.741 379.297 337.516C382.688 334.291 386.92 332.088 391.507 331.158C392.141 331.028 392.775 330.926 393.421 330.847C394.432 330.721 395.449 330.659 396.467 330.66C403.074 330.66 409.411 333.284 414.083 337.957C418.755 342.629 421.38 348.965 421.38 355.573C421.38 362.18 418.755 368.516 414.083 373.189C409.411 377.861 403.074 380.485 396.467 380.485Z" fill="#3F3D56"/>
<path d="M384.01 350.479H408.922C409.861 350.479 410.621 349.718 410.621 348.78C410.621 347.842 409.861 347.081 408.922 347.081H384.01C383.072 347.081 382.311 347.842 382.311 348.78C382.311 349.718 383.072 350.479 384.01 350.479Z" fill="#209D6B"/>
<path d="M384.01 357.271H408.922C409.861 357.271 410.621 356.511 410.621 355.573C410.621 354.635 409.861 353.874 408.922 353.874H384.01C383.072 353.874 382.311 354.635 382.311 355.573C382.311 356.511 383.072 357.271 384.01 357.271Z" fill="#209D6B"/>
<path d="M384.01 364.066H408.922C409.861 364.066 410.621 363.306 410.621 362.368C410.621 361.43 409.861 360.669 408.922 360.669H384.01C383.072 360.669 382.311 361.43 382.311 362.368C382.311 363.306 383.072 364.066 384.01 364.066Z" fill="#209D6B"/>
<path d="M196.746 414.001H0.674169C0.495707 414 0.324736 413.929 0.198727 413.803C0.0727181 413.676 0.00195312 413.505 0.00195312 413.327C0.00195312 413.148 0.0727181 412.977 0.198727 412.85C0.324736 412.724 0.495707 412.653 0.674169 412.652H196.746C196.924 412.653 197.095 412.724 197.221 412.85C197.347 412.977 197.418 413.148 197.418 413.327C197.418 413.505 197.347 413.676 197.221 413.803C197.095 413.929 196.924 414 196.746 414.001Z" fill="#CACACA"/>
</g>
<defs>
<clipPath id="clip0_1468_790">
<rect width="509.504" height="414" fill="white"/>
</clipPath>
</defs>
</svg>
