<svg width="561" height="414" viewBox="0 0 561 414" fill="none" xmlns="http://www.w3.org/2000/svg">
<g clip-path="url(#clip0_1468_670)">
<path opacity="0.1" d="M15.4994 259.938C8.77522 261.031 0.342017 264.158 0.420465 271.425C0.459689 275.112 2.9084 278.256 5.28987 280.951C15.4121 292.485 26.96 302.685 39.6559 311.305C45.7188 315.412 52.2356 319.34 56.2645 325.689C60.2934 332.038 61.3076 340.118 61.627 347.806C62.4127 366.008 60.2672 384.218 55.2727 401.739C75.0137 405.499 97.0296 408.794 113.481 396.92C123.332 389.809 129.995 377.896 140.972 372.965C148.301 369.671 156.6 369.962 164.59 370.382C202.414 372.373 240.144 376.109 277.78 381.589C293.543 383.887 309.608 386.487 325.202 383.517C340.797 380.547 356.139 370.859 361.888 355.152C362.773 352.731 363.569 350.03 365.553 348.574C367.346 347.274 369.694 347.302 371.873 347.38L503.6 351.908C510.817 352.154 518.286 352.356 524.893 349.386C531.297 346.512 536.223 340.981 540.963 335.562C551.806 323.201 563.467 307.993 560.278 291.217C557.729 277.768 546.331 268.371 535.029 261.793C523.727 255.214 511.259 249.83 502.955 239.312C490.319 223.303 490.818 200.39 490.034 179.618C489.319 160.809 487.004 142.095 483.113 123.679C479.69 107.491 474.921 91.2798 466.006 77.6074C457.091 63.9349 443.458 52.9858 428.037 50.9798C407.898 48.3573 387.653 60.9203 367.951 55.5858C351.309 51.103 339.855 35.1724 326.065 24.1336C301.573 4.52151 269.431 0.414182 239.044 0.0387506C206.824 -0.370302 173.752 2.89091 145.034 18.0202C138.456 21.4832 132.023 25.6746 127.468 31.7935C120.486 41.1793 118.793 53.7871 114.227 64.7586C95.8193 108.936 35.952 118.462 16.5192 162.169C9.62134 177.674 9.68858 195.756 14.7149 212.04C20.1222 229.562 35.3412 239.239 41.3761 254.514C34.8817 258.694 23.3722 258.655 15.4994 259.938Z" fill="#1DD48B"/>
<g opacity="0.2">
<path d="M496.215 207.844C496.215 207.844 498.904 172.111 519.099 152.695C527.622 144.606 533.29 133.97 535.254 122.386C536.135 116.878 536.511 111.302 536.375 105.727" stroke="#535461" stroke-width="2" stroke-miterlimit="10"/>
<path d="M549.049 93.415C547.559 97.3374 536.105 106.084 536.105 106.084C536.105 106.084 533.303 91.9581 534.783 88.0189C535.137 87.0817 535.672 86.2236 536.358 85.4934C537.044 84.7632 537.868 84.1753 538.781 83.7632C539.694 83.3511 540.679 83.1229 541.681 83.0916C542.682 83.0603 543.68 83.2266 544.617 83.5809C545.554 83.9352 546.412 84.4707 547.142 85.1566C547.872 85.8426 548.46 86.6656 548.873 87.5788C549.285 88.492 549.513 89.4774 549.544 90.4788C549.575 91.4801 549.409 92.4779 549.055 93.415H549.049Z" fill="#1DD48B"/>
<path d="M552.592 119.701C549.202 122.2 534.84 123.299 534.84 123.299C534.84 123.299 540.158 109.912 543.548 107.413C544.354 106.819 545.27 106.39 546.242 106.15C547.214 105.91 548.225 105.864 549.215 106.014C550.205 106.165 551.156 106.509 552.013 107.026C552.87 107.544 553.617 108.226 554.211 109.032C554.805 109.839 555.234 110.754 555.474 111.727C555.714 112.699 555.76 113.709 555.61 114.699C555.459 115.69 555.115 116.64 554.598 117.498C554.08 118.355 553.398 119.102 552.592 119.696V119.701Z" fill="#1DD48B"/>
<path d="M537.973 156.807C533.782 157.249 520.832 150.951 520.832 150.951C520.832 150.951 532.179 142.081 536.365 141.632C538.377 141.419 540.392 142.014 541.965 143.286C543.539 144.558 544.543 146.403 544.756 148.415C544.969 150.428 544.374 152.442 543.102 154.016C541.83 155.589 539.985 156.593 537.973 156.807Z" fill="#1DD48B"/>
<path d="M520.589 182.392C516.532 183.513 502.703 179.517 502.703 179.517C502.703 179.517 512.386 168.871 516.443 167.711C517.407 167.439 518.415 167.359 519.41 167.476C520.405 167.594 521.366 167.906 522.241 168.395C523.115 168.884 523.884 169.541 524.504 170.327C525.125 171.113 525.584 172.014 525.857 172.978C526.129 173.942 526.209 174.95 526.091 175.945C525.974 176.94 525.662 177.902 525.173 178.776C524.684 179.65 524.027 180.419 523.241 181.04C522.454 181.66 521.553 182.12 520.589 182.392Z" fill="#1DD48B"/>
<path d="M519.569 118.4C521.357 122.216 533.449 130.038 533.449 130.038C533.449 130.038 535.169 115.738 533.382 111.922C532.957 111.015 532.357 110.201 531.617 109.526C530.877 108.851 530.011 108.328 529.069 107.988C528.127 107.647 527.127 107.495 526.126 107.541C525.126 107.587 524.144 107.83 523.237 108.255C522.33 108.68 521.516 109.28 520.84 110.02C520.165 110.76 519.643 111.626 519.302 112.568C518.961 113.51 518.81 114.51 518.856 115.511C518.902 116.511 519.144 117.493 519.569 118.4Z" fill="#1DD48B"/>
<path d="M499.617 148.581C502.463 151.685 516.343 155.535 516.343 155.535C516.343 155.535 513.704 141.375 510.857 138.27C509.49 136.779 507.586 135.892 505.565 135.804C503.544 135.716 501.57 136.435 500.079 137.802C498.588 139.17 497.7 141.073 497.613 143.095C497.525 145.116 498.244 147.089 499.611 148.581H499.617Z" fill="#1DD48B"/>
<path d="M484.251 180.571C486.532 184.112 499.566 190.248 499.566 190.248C499.566 190.248 499.358 175.847 497.078 172.317C495.982 170.616 494.255 169.42 492.277 168.993C490.299 168.565 488.233 168.94 486.532 170.037C484.831 171.133 483.635 172.859 483.208 174.837C482.78 176.815 483.155 178.881 484.251 180.582V180.571Z" fill="#1DD48B"/>
</g>
<path d="M91.9746 49.2148V69.3705V307.534H507.078V69.3705V49.2148H91.9746Z" fill="url(#paint0_linear_1468_670)"/>
<path d="M502.698 51.9434H96.3633V71.6731H502.698V51.9434Z" fill="#F6F7F9"/>
<g opacity="0.2">
<path d="M502.698 51.9434H96.3633V71.6731H502.698V51.9434Z" fill="#1DD48B"/>
</g>
<path d="M502.698 71.6738H96.3633V304.806H502.698V71.6738Z" fill="#F6F7F9"/>
<path d="M106.106 66.0758C108.529 66.0758 110.494 64.1114 110.494 61.6883C110.494 59.2651 108.529 57.3008 106.106 57.3008C103.683 57.3008 101.719 59.2651 101.719 61.6883C101.719 64.1114 103.683 66.0758 106.106 66.0758Z" fill="#F6F7F9"/>
<path d="M117.796 66.0758C120.219 66.0758 122.183 64.1114 122.183 61.6883C122.183 59.2651 120.219 57.3008 117.796 57.3008C115.373 57.3008 113.408 59.2651 113.408 61.6883C113.408 64.1114 115.373 66.0758 117.796 66.0758Z" fill="#F6F7F9"/>
<path d="M129.491 66.0758C131.914 66.0758 133.879 64.1114 133.879 61.6883C133.879 59.2651 131.914 57.3008 129.491 57.3008C127.068 57.3008 125.104 59.2651 125.104 61.6883C125.104 64.1114 127.068 66.0758 129.491 66.0758Z" fill="#F6F7F9"/>
<g opacity="0.2">
<path d="M319.503 100.666H110.488V115.767H319.503V100.666Z" fill="#1DD48B"/>
</g>
<g opacity="0.2">
<path d="M482.716 100.666H373.096V115.767H482.716V100.666Z" fill="#1DD48B"/>
</g>
<g opacity="0.2">
<path d="M165.784 243.42H151.17V291.654H165.784V243.42Z" fill="#1DD48B"/>
<path d="M194.042 208.824H179.428V291.649H194.042V208.824Z" fill="#1DD48B"/>
<path d="M222.299 174.234H207.686V291.649H222.299V174.234Z" fill="#1DD48B"/>
<path d="M250.557 185.441H235.943V291.655H250.557V185.441Z" fill="#1DD48B"/>
<path d="M278.817 218.568H264.203V291.649H278.817V218.568Z" fill="#1DD48B"/>
</g>
<g opacity="0.2">
<path d="M482.474 148.9H372.854V283.613H482.474V148.9Z" fill="#1DD48B"/>
</g>
<path d="M559.141 244.76C558.441 241.196 557.096 237.711 557.063 234.08C557.012 228.185 560.15 221.337 556.026 216.983C555.085 215.992 553.824 215.252 553.123 214.092C552.594 213.089 552.343 211.963 552.395 210.831C552.328 203.955 556.116 196.973 553.846 190.457C553.403 188.994 552.489 187.72 551.246 186.831C549.935 185.979 548.444 185.817 546.836 185.845C545.385 185.845 543.855 186.007 542.353 186.036C541.504 186.036 540.658 185.925 539.838 185.705C538.1 185.212 536.627 184.074 534.906 183.514C534.003 183.221 533.054 183.09 532.105 183.127C528.339 183.004 524.899 185.509 522.22 187.935C520.885 189.059 519.471 190.087 517.99 191.011C518.214 190.854 512.762 194.598 514.813 194.637C516.278 194.68 517.694 195.173 518.869 196.049C517.629 197.962 517.017 200.215 517.117 202.493C517.218 204.771 518.026 206.961 519.43 208.758C518.539 207.883 517.553 206.925 516.544 205.956C513.541 203.003 509.344 199.041 507.371 197.96C504.127 196.217 499.493 192.429 499.493 192.429C499.493 192.429 493.469 195.791 495.324 200.459C496.209 200.733 497.072 201.072 497.907 201.473C497.907 202.093 498.027 202.708 498.26 203.283C500.165 203.884 501.969 204.768 503.611 205.905C503.797 206.163 503.969 206.431 504.127 206.707C504.928 208.108 507.422 210.657 510.47 213.492C512.61 215.639 515.429 218.205 518.236 220.676C517.39 222.357 516.499 224.038 516.342 225.719C516.126 225.634 515.915 225.537 515.709 225.428C511.54 223.186 501.813 223.422 501.813 223.422C501.813 223.422 493.704 219.186 492.085 209.598C492.085 209.598 490.466 203.798 490.925 202.241H490.897L491.104 202.196L493.049 198.671C493.171 198.441 493.234 198.184 493.231 197.924C493.228 197.663 493.16 197.407 493.033 197.18C492.906 196.952 492.724 196.76 492.503 196.622C492.283 196.483 492.031 196.401 491.771 196.385C482.29 195.533 481.842 204.23 481.842 204.23H481.926L481.898 204.303C483.058 209.878 483.982 209.43 483.753 213.89L487.456 223.702C487.456 223.702 487.686 227.064 494.405 231.508C501.123 235.951 508.766 242.883 508.766 242.883C508.766 242.883 504.715 245.001 506.217 254.7C508.055 266.557 505.292 283.468 505.292 283.468V294.395L505.808 294.255C505.741 294.619 505.679 295.006 505.612 295.426C504.756 300.917 504.649 306.498 505.292 312.018C506.682 323.617 512.241 339.475 512.241 339.475C512.241 339.475 514.325 345.05 514.79 349.511C514.864 350.394 515.064 351.262 515.384 352.088C516.429 354.536 516.981 357.165 517.009 359.827C516.989 366.511 518.199 373.142 520.578 379.388C522.926 385.35 523.8 388.847 524.058 390.887C522.377 393.061 520.214 395.431 518.494 395.666C515.25 396.115 508.996 396.557 513.165 401.909C513.31 402.093 513.471 402.264 513.647 402.418C510.481 402.923 507.001 404.032 510.386 408.375C514.555 413.726 539.103 411.272 539.103 411.272C539.103 411.272 539.26 408.296 539.103 405.03C540.824 404.912 541.905 404.806 541.905 404.806C541.905 404.806 542.6 391.873 539.591 390.309C539.035 390.37 538.489 390.502 537.966 390.702C537.641 388.914 537.406 386.69 537.238 385.048L538.431 384.958V384.868H538.504V365.38C538.504 365.38 537.114 353.338 532.021 348.009C531.366 347.338 530.801 346.584 530.34 345.768L530.272 345.627C530.306 344.103 530.306 342.047 530.272 339.688L530.345 339.559C530.435 339.413 530.525 339.284 530.609 339.167C530.727 339.01 530.854 338.86 530.99 338.718L531.063 338.623C531.063 338.623 533.864 335.261 543.34 314.091C549.128 301.17 547.598 293.919 545.525 290.181C545.088 288.5 544.175 284.735 543.031 278.285C542.563 275.548 542.34 272.775 542.365 269.998C543.801 270.356 545.278 270.522 546.758 270.491C549.08 270.543 551.383 270.052 553.482 269.056C551.969 266.849 550.389 264.26 551.151 261.721C552.014 258.83 555.432 257.502 557.404 255.171C559.78 252.352 559.842 248.329 559.141 244.76Z" fill="url(#paint1_linear_1468_670)"/>
<path d="M500.45 194.811C500.45 194.811 494.701 198.128 496.471 202.773C496.471 202.773 502.445 204.544 504.877 208.965C507.309 213.386 526.108 229.311 526.108 229.311L539.837 222.458C539.837 222.458 535.068 216.092 519.984 211.643C519.984 211.643 511.091 202.117 507.992 200.341C504.893 198.565 500.45 194.811 500.45 194.811Z" fill="#797C9C"/>
<path opacity="0.05" d="M503.253 197.611C503.253 197.611 497.504 200.929 499.274 205.574C499.274 205.574 505.247 207.345 507.679 211.766C510.111 216.187 528.911 232.112 528.911 232.112L542.639 225.259C542.639 225.259 537.871 218.893 522.786 214.444C522.786 214.444 513.894 204.918 510.795 203.142C507.696 201.366 503.253 197.611 503.253 197.611Z" fill="black"/>
<path d="M8.75296 360.762C8.75296 360.762 -23.5566 380.256 36.0026 410.268C36.0026 410.268 49.1258 385.904 34.6185 366.04C31.8017 362.168 27.6627 359.464 22.9855 358.439C18.3083 357.415 13.4178 358.141 9.24045 360.481L8.75296 360.762Z" fill="#1DD48B"/>
<path d="M9.12109 360.348C9.12109 360.348 36.7741 381.501 36.0177 410.263" stroke="#535461" stroke-miterlimit="10"/>
<path d="M37.5664 410.621C37.5664 410.621 27.441 376.222 39.4492 350.945C44.5607 340.365 46.1022 328.412 43.8423 316.881C42.7256 311.416 41.1107 306.065 39.0177 300.895" stroke="#535461" stroke-width="2" stroke-miterlimit="10"/>
<path d="M46.5143 284.885C46.5143 289.099 38.888 301.314 38.888 301.314C38.888 301.314 31.2617 289.099 31.2617 284.885C31.2617 282.862 32.0655 280.921 33.4962 279.49C34.927 278.06 36.8675 277.256 38.8908 277.256C40.9142 277.256 42.8547 278.06 44.2854 279.49C45.7161 280.921 46.5199 282.862 46.5199 284.885H46.5143Z" fill="#1DD48B"/>
<path d="M59.1221 308.241C56.8303 311.777 43.791 317.885 43.791 317.885C43.791 317.885 44.0264 303.484 46.3182 299.954C46.8627 299.113 47.5675 298.388 48.3923 297.819C49.2171 297.251 50.1458 296.851 51.1253 296.641C52.1048 296.432 53.116 296.417 54.1011 296.599C55.0862 296.78 56.026 297.154 56.8667 297.698C57.7074 298.243 58.4326 298.948 59.001 299.772C59.5693 300.597 59.9696 301.526 60.179 302.505C60.3885 303.485 60.4029 304.496 60.2216 305.481C60.0402 306.466 59.6666 307.406 59.1221 308.247V308.241Z" fill="#1DD48B"/>
<path d="M58.5735 348.114C54.8136 350.013 40.4688 348.674 40.4688 348.674C40.4688 348.674 47.9438 336.346 51.7037 334.464C53.5101 333.553 55.6044 333.397 57.5258 334.03C59.4473 334.663 61.0386 336.033 61.9496 337.84C62.8606 339.646 63.0167 341.74 62.3835 343.662C61.7504 345.583 60.3799 347.175 58.5735 348.086V348.114Z" fill="#1DD48B"/>
<path d="M51.3614 378.193C47.9993 380.698 33.6152 381.829 33.6152 381.829C33.6152 381.829 38.8993 368.432 42.2894 365.927C43.0948 365.331 44.0096 364.9 44.9817 364.658C45.9537 364.416 46.9639 364.367 47.9546 364.516C48.9453 364.664 49.8971 365.006 50.7557 365.522C51.6142 366.038 52.3627 366.718 52.9584 367.524C53.554 368.329 53.9852 369.244 54.2274 370.216C54.4695 371.188 54.5178 372.198 54.3695 373.189C54.2212 374.18 53.8792 375.132 53.3631 375.99C52.847 376.849 52.1668 377.597 51.3614 378.193Z" fill="#1DD48B"/>
<path d="M27.7767 318.701C30.797 321.638 44.8785 324.68 44.8785 324.68C44.8785 324.68 41.4323 310.672 38.4065 307.758C37.6879 307.059 36.8387 306.508 35.9073 306.137C34.9759 305.766 33.9806 305.583 32.9782 305.596C31.9758 305.61 30.9859 305.821 30.0651 306.218C29.1442 306.614 28.3105 307.188 27.6114 307.906C26.9124 308.625 26.3617 309.474 25.9908 310.406C25.6199 311.337 25.4362 312.332 25.4499 313.335C25.4637 314.337 25.6748 315.327 26.0712 316.248C26.4675 317.169 27.0413 318.002 27.7599 318.701H27.7767Z" fill="#1DD48B"/>
<path d="M19.785 353.987C23.5449 355.886 37.8898 354.547 37.8898 354.547C37.8898 354.547 30.4148 342.219 26.6549 340.337C24.8485 339.426 22.7542 339.27 20.8327 339.903C18.9112 340.536 17.3199 341.906 16.4089 343.713C15.4979 345.519 15.3418 347.613 15.975 349.535C16.6081 351.456 17.9786 353.048 19.785 353.959V353.987Z" fill="#1DD48B"/>
<path d="M16.7328 389.345C20.0949 391.85 34.479 392.982 34.479 392.982C34.479 392.982 29.1949 379.584 25.8048 377.079C24.1782 375.876 22.1404 375.369 20.1396 375.668C18.1388 375.968 16.3388 377.05 15.1358 378.676C13.9328 380.303 13.4252 382.341 13.7247 384.341C14.0242 386.342 15.1062 388.142 16.7328 389.345Z" fill="#1DD48B"/>
<path opacity="0.25" d="M46.5143 284.885C46.5143 289.099 38.888 301.314 38.888 301.314C38.888 301.314 31.2617 289.099 31.2617 284.885C31.2617 282.862 32.0655 280.921 33.4962 279.49C34.927 278.06 36.8675 277.256 38.8908 277.256C40.9142 277.256 42.8547 278.06 44.2854 279.49C45.7161 280.921 46.5199 282.862 46.5199 284.885H46.5143Z" fill="black"/>
<path opacity="0.25" d="M59.1221 308.241C56.8303 311.777 43.791 317.885 43.791 317.885C43.791 317.885 44.0264 303.484 46.3182 299.954C46.8627 299.113 47.5675 298.388 48.3923 297.819C49.2171 297.251 50.1458 296.851 51.1253 296.641C52.1048 296.432 53.116 296.417 54.1011 296.599C55.0862 296.78 56.026 297.154 56.8667 297.698C57.7074 298.243 58.4326 298.948 59.001 299.772C59.5693 300.597 59.9696 301.526 60.179 302.505C60.3885 303.485 60.4029 304.496 60.2216 305.481C60.0402 306.466 59.6666 307.406 59.1221 308.247V308.241Z" fill="black"/>
<path opacity="0.25" d="M58.5735 348.114C54.8136 350.013 40.4688 348.674 40.4688 348.674C40.4688 348.674 47.9438 336.346 51.7037 334.464C53.5101 333.553 55.6044 333.397 57.5258 334.03C59.4473 334.663 61.0386 336.033 61.9496 337.84C62.8606 339.646 63.0167 341.74 62.3835 343.662C61.7504 345.583 60.3799 347.175 58.5735 348.086V348.114Z" fill="black"/>
<path opacity="0.25" d="M51.3614 378.193C47.9993 380.698 33.6152 381.829 33.6152 381.829C33.6152 381.829 38.8993 368.432 42.2894 365.927C43.0948 365.331 44.0096 364.9 44.9817 364.658C45.9537 364.416 46.9639 364.367 47.9546 364.516C48.9453 364.664 49.8971 365.006 50.7557 365.522C51.6142 366.038 52.3627 366.718 52.9584 367.524C53.554 368.329 53.9852 369.244 54.2274 370.216C54.4695 371.188 54.5178 372.198 54.3695 373.189C54.2212 374.18 53.8792 375.132 53.3631 375.99C52.847 376.849 52.1668 377.597 51.3614 378.193Z" fill="black"/>
<path opacity="0.25" d="M27.7767 318.701C30.797 321.638 44.8785 324.68 44.8785 324.68C44.8785 324.68 41.4323 310.672 38.4065 307.758C37.6879 307.059 36.8387 306.508 35.9073 306.137C34.9759 305.766 33.9806 305.583 32.9782 305.596C31.9758 305.61 30.9859 305.821 30.0651 306.218C29.1442 306.614 28.3105 307.188 27.6114 307.906C26.9124 308.625 26.3617 309.474 25.9908 310.406C25.6199 311.337 25.4362 312.332 25.4499 313.335C25.4637 314.337 25.6748 315.327 26.0712 316.248C26.4675 317.169 27.0413 318.002 27.7599 318.701H27.7767Z" fill="black"/>
<path opacity="0.25" d="M19.785 353.987C23.5449 355.886 37.8898 354.547 37.8898 354.547C37.8898 354.547 30.4148 342.219 26.6549 340.337C24.8485 339.426 22.7542 339.27 20.8327 339.903C18.9112 340.536 17.3199 341.906 16.4089 343.713C15.4979 345.519 15.3418 347.613 15.975 349.535C16.6081 351.456 17.9786 353.048 19.785 353.959V353.987Z" fill="black"/>
<path opacity="0.25" d="M16.7328 389.345C20.0949 391.85 34.479 392.982 34.479 392.982C34.479 392.982 29.1949 379.584 25.8048 377.079C24.1782 375.876 22.1404 375.369 20.1396 375.668C18.1388 375.968 16.3388 377.05 15.1358 378.676C13.9328 380.303 13.4252 382.341 13.7247 384.341C14.0242 386.342 15.1062 388.142 16.7328 389.345Z" fill="black"/>
<path d="M60.9939 411.278C60.9939 411.278 50.8684 376.9 62.8935 351.601C68.0049 341.021 69.5465 329.068 67.2866 317.537C66.1699 312.072 64.555 306.721 62.462 301.551" stroke="#535461" stroke-width="2" stroke-miterlimit="10"/>
<path d="M69.9421 285.557C69.9421 289.771 62.3158 301.986 62.3158 301.986C62.3158 301.986 54.6895 289.771 54.6895 285.557C54.6895 283.533 55.4932 281.593 56.924 280.162C58.3547 278.732 60.2952 277.928 62.3186 277.928C64.3419 277.928 66.2824 278.732 67.7131 280.162C69.1439 281.593 69.9477 283.533 69.9477 285.557H69.9421Z" fill="#1DD48B"/>
<path d="M82.5557 308.89C80.2638 312.425 67.2246 318.533 67.2246 318.533C67.2246 318.533 67.46 304.132 69.7518 300.602C70.8515 298.904 72.5807 297.713 74.5589 297.29C76.5371 296.867 78.6024 297.247 80.3003 298.347C81.9982 299.446 83.1897 301.176 83.6126 303.154C84.0356 305.132 83.6554 307.197 82.5557 308.895V308.89Z" fill="#1DD48B"/>
<path d="M82.0012 348.764C78.2413 350.664 63.8965 349.325 63.8965 349.325C63.8965 349.325 71.3715 336.997 75.1314 335.114C76.0277 334.663 77.004 334.393 78.0047 334.319C79.0054 334.246 80.0108 334.37 80.9635 334.685C81.9162 334.999 82.7976 335.499 83.5573 336.154C84.3171 336.81 84.9403 337.608 85.3913 338.505C85.8424 339.401 86.1125 340.377 86.1863 341.378C86.2601 342.378 86.136 343.384 85.8212 344.337C85.5064 345.289 85.007 346.171 84.3516 346.93C83.6962 347.69 82.8975 348.313 82.0012 348.764Z" fill="#1DD48B"/>
<path d="M74.7891 378.849C71.427 381.354 57.043 382.486 57.043 382.486C57.043 382.486 62.327 369.088 65.7171 366.583C66.5225 365.987 67.4373 365.556 68.4094 365.314C69.3814 365.072 70.3916 365.024 71.3824 365.172C72.3731 365.32 73.3249 365.662 74.1834 366.178C75.0419 366.694 75.7904 367.375 76.3861 368.18C76.9818 368.985 77.413 369.9 77.6551 370.872C77.8972 371.844 77.9455 372.855 77.7972 373.845C77.6489 374.836 77.307 375.788 76.7908 376.646C76.2747 377.505 75.5945 378.253 74.7891 378.849Z" fill="#1DD48B"/>
<path d="M51.2162 319.352C54.2364 322.288 68.3179 325.331 68.3179 325.331C68.3179 325.331 64.8718 311.322 61.8459 308.408C61.1274 307.709 60.2781 307.159 59.3468 306.788C58.4154 306.417 57.4201 306.233 56.4177 306.247C55.4152 306.261 54.4254 306.472 53.5045 306.868C52.5837 307.264 51.7499 307.838 51.0509 308.557C50.3518 309.275 49.8011 310.125 49.4303 311.056C49.0594 311.987 48.8756 312.983 48.8894 313.985C48.9032 314.987 49.1143 315.977 49.5106 316.898C49.907 317.819 50.4808 318.653 51.1994 319.352H51.2162Z" fill="#1DD48B"/>
<path d="M43.2147 354.637C46.9746 356.537 61.3195 355.197 61.3195 355.197C61.3195 355.197 53.8445 342.87 50.0845 340.987C48.2781 340.076 46.1839 339.92 44.2624 340.553C42.3409 341.186 40.7496 342.557 39.8386 344.363C38.9276 346.17 38.7715 348.264 39.4047 350.185C40.0378 352.107 41.4083 353.698 43.2147 354.609V354.637Z" fill="#1DD48B"/>
<path d="M40.1605 389.999C43.5226 392.504 57.9067 393.636 57.9067 393.636C57.9067 393.636 52.6226 380.238 49.2325 377.733C47.606 376.53 45.5681 376.023 43.5673 376.322C41.5665 376.622 39.7666 377.704 38.5636 379.33C37.3605 380.957 36.8529 382.995 37.1524 384.996C37.4519 386.997 38.534 388.796 40.1605 389.999Z" fill="#1DD48B"/>
<path d="M547.759 410.078H13.75V414.001H547.759V410.078Z" fill="#1DD48B"/>
<path d="M504.423 190.982H391.25V330.06H504.423V190.982Z" fill="url(#paint2_linear_1468_670)"/>
<path d="M502.648 193.168H393.027V327.881H502.648V193.168Z" fill="#1DD48B"/>
<path d="M422.802 204.99H400.389V227.404H422.802V204.99Z" fill="#E8EAF1"/>
<path d="M491.165 240.854H411.596V245.336H491.165V240.854Z" fill="#E8EAF1"/>
<path d="M491.165 250.379H411.596V254.862H491.165V250.379Z" fill="#E8EAF1"/>
<path d="M491.165 259.904H411.596V264.387H491.165V259.904Z" fill="#E8EAF1"/>
<path d="M491.165 269.432H411.596V273.914H491.165V269.432Z" fill="#E8EAF1"/>
<path d="M491.165 278.957H411.596V283.44H491.165V278.957Z" fill="#E8EAF1"/>
<path d="M491.165 288.482H411.596V292.965H491.165V288.482Z" fill="#E8EAF1"/>
<path d="M491.165 298.008H411.596V302.491H491.165V298.008Z" fill="#E8EAF1"/>
<path d="M536.279 383.445C536.279 383.445 536.94 393.173 538.049 394.282C539.159 395.392 528.098 396.053 528.098 396.053L529.644 383.445H536.279Z" fill="#FFB9B9"/>
<path opacity="0.05" d="M536.279 383.445C536.279 383.445 536.94 393.173 538.049 394.282C539.159 395.392 528.098 396.053 528.098 396.053L529.644 383.445H536.279Z" fill="black"/>
<path d="M538.716 390.964C538.716 390.964 537.17 390.964 531.639 393.839C531.639 393.839 527.879 393.177 526.333 387.865C526.333 387.865 521.687 395.828 518.594 396.27C515.501 396.713 509.528 397.156 513.506 402.462C517.485 407.769 540.929 405.337 540.929 405.337C540.929 405.337 541.585 392.51 538.716 390.964Z" fill="#E4E2F3"/>
<path opacity="0.05" d="M538.716 390.964C538.716 390.964 537.17 390.964 531.639 393.839C531.639 393.839 527.879 393.177 526.333 387.865C526.333 387.865 521.687 395.828 518.594 396.27C515.501 396.713 509.528 397.156 513.506 402.462C517.485 407.769 540.929 405.337 540.929 405.337C540.929 405.337 541.585 392.51 538.716 390.964Z" fill="black"/>
<path d="M535.393 398.483L533.846 402.686L523.676 399.811L524.236 395.642L524.376 394.634L524.763 391.832C524.763 391.832 533.387 389.619 533.387 390.711C533.501 391.623 533.688 392.525 533.947 393.407C534.3 394.768 534.743 396.315 535.068 397.329C535.258 398.041 535.393 398.483 535.393 398.483Z" fill="#FFB9B9"/>
<path d="M529.841 340.808C529.288 341.741 528.996 342.805 528.996 343.89C528.996 344.974 529.288 346.039 529.841 346.972C530.275 347.77 530.81 348.51 531.432 349.174C536.296 354.48 537.624 366.421 537.624 366.421V385.658L534.307 385.91L529 386.319L521.038 353.589C521.038 353.589 516.392 329.707 518.606 325.505C520.819 321.302 522.808 294.988 522.808 294.988L524.646 293.089L529 288.578H541.608C542.617 289.301 543.454 290.236 544.062 291.318C546.18 294.82 548.08 302.105 542.275 315.553C533.208 336.56 530.552 339.878 530.552 339.878C530.28 340.159 530.041 340.472 529.841 340.808Z" fill="#4C4C78"/>
<path opacity="0.05" d="M529.913 340.712C529.36 341.645 529.068 342.71 529.068 343.794C529.068 344.879 529.36 345.943 529.913 346.876C530.348 347.675 530.882 348.415 531.504 349.078C536.368 354.385 537.696 366.326 537.696 366.326V385.562L534.379 385.814L529.072 386.223L521.11 353.494C521.11 353.494 516.465 329.612 518.678 325.409C520.891 321.207 522.88 294.893 522.88 294.893L524.718 292.993L529.072 288.482H541.68C542.689 289.205 543.527 290.141 544.134 291.223C546.253 294.725 548.152 302.009 542.347 315.457C533.28 336.465 530.624 339.782 530.624 339.782C530.352 340.064 530.114 340.376 529.913 340.712Z" fill="black"/>
<path opacity="0.1" d="M533.971 393.435L524.395 394.634L524.781 391.832C524.781 391.832 533.405 389.619 533.405 390.711C533.52 391.633 533.709 392.544 533.971 393.435Z" fill="black"/>
<path d="M529.189 312.46C529.189 312.46 529.75 329.87 529.828 340.808C529.828 343.284 529.828 345.425 529.828 346.971C529.841 347.784 529.781 348.596 529.649 349.398C528.988 351.387 530.31 355.808 530.31 355.808C533.628 364.548 534.987 373.909 534.289 383.231V392.959L523.676 394.287C523.676 394.287 525.446 392.959 520.577 380.133C518.3 373.919 517.145 367.351 517.164 360.734C517.139 358.099 516.612 355.494 515.612 353.057C515.308 352.235 515.12 351.375 515.052 350.502C514.609 346.08 512.62 340.55 512.62 340.55C512.62 340.55 507.314 324.86 505.985 313.351C505.372 307.877 505.476 302.346 506.294 296.899C506.489 295.515 506.754 294.143 507.089 292.786C507.089 292.786 528.707 279.181 536.872 288.583C537.658 289.504 538.281 290.552 538.715 291.682C539.163 292.798 539.512 293.951 539.757 295.128C542.296 307.596 529.189 312.46 529.189 312.46Z" fill="#4C4C78"/>
<path d="M528.534 215.604C534.763 215.604 539.813 210.554 539.813 204.325C539.813 198.095 534.763 193.045 528.534 193.045C522.304 193.045 517.254 198.095 517.254 204.325C517.254 210.554 522.304 215.604 528.534 215.604Z" fill="#FFB9B9"/>
<path d="M522.343 211.397C522.343 211.397 526.989 224.442 522.343 231.3C517.698 238.159 537.159 235.945 537.159 235.945L544.679 226.879C544.679 226.879 535.831 226.879 535.388 211.397C534.946 195.914 522.343 211.397 522.343 211.397Z" fill="#FFB9B9"/>
<path opacity="0.1" d="M544.678 293.884C543.075 294.438 541.427 294.851 539.753 295.117C537.001 295.543 533.751 295.559 531.852 293.884C530.731 292.892 527.929 292.763 524.618 293.088C517.597 293.761 508.099 296.378 506.283 296.893C506.478 295.509 506.744 294.137 507.079 292.78C507.079 292.78 528.697 279.175 536.861 288.578H541.579C542.588 289.3 543.426 290.236 544.034 291.318C544.443 293.077 544.678 293.884 544.678 293.884Z" fill="black"/>
<path opacity="0.1" d="M535.393 398.484L533.846 402.686L523.676 399.812L524.236 395.643C525.984 399.509 528.965 400.036 528.965 400.036C530.907 398.961 532.945 398.068 535.051 397.368C535.258 398.041 535.393 398.484 535.393 398.484Z" fill="black"/>
<path d="M536.054 397.38C536.054 397.38 534.507 397.38 528.977 400.255C528.977 400.255 525.217 399.593 523.67 394.281C523.67 394.281 519.025 402.244 515.932 402.686C512.839 403.129 506.866 403.572 510.844 408.878C514.823 414.185 538.267 411.753 538.267 411.753C538.267 411.753 538.929 398.927 536.054 397.38Z" fill="#E4E2F3"/>
<path d="M483.59 206.482C483.59 206.482 484.021 197.87 493.071 198.71C493.321 198.735 493.561 198.821 493.771 198.961C493.98 199.1 494.152 199.288 494.273 199.509C494.393 199.729 494.458 199.976 494.461 200.228C494.465 200.479 494.407 200.727 494.292 200.951L492.438 204.442L483.59 206.482Z" fill="#FFB9B9"/>
<path d="M535.836 229.528C535.836 229.528 524.999 227.757 522.125 225.549C522.125 225.549 519.911 229.752 515.933 227.538C511.954 225.325 502.664 225.549 502.664 225.549C500.228 224.057 498.139 222.062 496.537 219.697C494.935 217.333 493.856 214.653 493.373 211.838C493.373 211.838 491.827 206.088 492.253 204.553C492.253 204.553 486.503 198.58 483.629 206.542C484.75 212.073 485.618 211.63 485.4 216.068L488.935 225.796C488.935 225.796 489.154 229.113 495.57 233.534C501.986 237.955 509.282 244.814 509.282 244.814C509.282 244.814 505.41 246.915 506.85 256.536C508.609 268.304 505.964 285.064 505.964 285.064V295.901C505.964 295.901 528.081 289.49 531.835 292.802C535.59 296.114 544.662 292.802 544.662 292.802C544.662 292.802 543.541 289.042 542.006 279.976C540.47 270.909 542.224 262.045 542.224 262.045C542.224 262.045 547.973 246.786 550.629 240.595C553.285 234.403 548.64 226.026 543.995 222.904C539.35 219.783 537.624 221.666 537.624 221.666C537.624 221.666 545.788 227.538 535.836 229.528Z" fill="#797C9C"/>
<path opacity="0.05" d="M507.422 261.473C507.422 261.473 509.187 261.048 518.029 259.72C526.871 258.392 542.354 261.49 542.354 261.49" fill="black"/>
<path opacity="0.1" d="M515.064 197.017C520.107 197.124 523.839 203.343 521.603 207.832C520.622 209.804 518.723 211.541 518.919 213.732C519.009 214.73 519.541 215.632 519.771 216.607C520.83 221.09 515.467 225.287 516.694 229.713C517.113 230.9 517.765 231.992 518.611 232.924L527.924 244.658C528.489 245.304 528.957 246.028 529.313 246.809C529.668 247.922 529.805 249.092 529.717 250.256C529.672 255.859 530.036 261.872 533.342 266.416C537.315 271.874 545.412 273.835 551.436 270.792C549.99 268.601 548.483 266.035 549.194 263.508C550.018 260.644 553.279 259.322 555.162 257.013C557.437 254.212 557.493 250.233 556.843 246.697C556.193 243.162 554.887 239.704 554.859 236.107C554.815 230.263 557.807 223.471 553.868 219.156C552.965 218.17 551.766 217.442 551.094 216.287C550.587 215.286 550.348 214.17 550.399 213.049C550.337 206.235 553.952 199.303 551.783 192.843C551.37 191.405 550.498 190.142 549.301 189.245C546.23 187.178 541.971 189.184 538.419 188.125C536.738 187.637 535.354 186.505 533.712 185.95C529.285 184.454 525.189 187.458 522.13 190.338C520.858 191.449 519.507 192.468 518.089 193.386C518.308 193.268 513.102 196.978 515.064 197.017Z" fill="black"/>
<path d="M515.624 197.017C520.667 197.124 524.399 203.343 522.163 207.832C521.183 209.804 519.283 211.541 519.479 213.732C519.569 214.73 520.101 215.632 520.331 216.607C521.39 221.09 516.028 225.287 517.255 229.713C517.674 230.9 518.325 231.992 519.171 232.924L528.484 244.658C529.05 245.304 529.518 246.028 529.874 246.809C530.229 247.922 530.366 249.092 530.277 250.256C530.232 255.859 530.597 261.872 533.903 266.416C537.876 271.874 545.972 273.835 551.996 270.792C550.551 268.601 549.043 266.035 549.755 263.508C550.579 260.644 553.84 259.322 555.723 257.013C557.998 254.212 558.054 250.233 557.404 246.697C556.754 243.162 555.448 239.704 555.42 236.107C555.375 230.263 558.367 223.471 554.428 219.156C553.526 218.17 552.327 217.442 551.654 216.287C551.148 215.286 550.908 214.17 550.96 213.049C550.898 206.235 554.512 199.303 552.344 192.843C551.93 191.405 551.059 190.142 549.861 189.245C546.791 187.178 542.532 189.184 538.979 188.125C537.298 187.637 535.914 186.505 534.272 185.95C529.846 184.454 525.75 187.458 522.69 190.338C521.418 191.449 520.068 192.468 518.65 193.386C518.869 193.268 513.663 196.978 515.624 197.017Z" fill="#B36362"/>
<path d="M346.338 303.68C345.056 302.482 343.942 301.115 343.026 299.618C341.087 296.569 337.843 294.927 335.618 294.109V293.118H335.753L335.691 292.199H335.753L335.596 289.767L334.806 277.618C334.806 277.618 331.948 269.477 336.991 262.024C342.034 254.571 337.305 247.421 332.565 244.625C332.565 244.625 330.323 232.819 332.251 230.023C329.675 228.528 327.018 227.175 324.294 225.971C324.253 225.826 324.214 225.676 324.176 225.523C324.126 224.402 324.058 223.321 323.997 222.223C324.062 221.656 324.166 221.094 324.311 220.542C324.372 220.312 324.44 220.076 324.512 219.836C326.782 218.956 328.734 217.413 330.114 215.408C331.494 213.403 332.239 211.029 332.251 208.595C332.252 207.172 331.997 205.76 331.5 204.426C331.746 204.013 331.934 203.568 332.06 203.104C332.309 201.763 332.041 200.377 331.309 199.226C330.054 196.424 326.888 193.864 324.585 192.928C321.296 191.583 316.343 191.902 312.919 192.311C310.997 192.541 308.8 193.191 308.105 194.967C307.921 195.64 307.775 196.323 307.668 197.013C306.951 199.725 303.841 200.991 301.919 203.064C300.238 204.897 299.476 207.373 298.927 209.789C297.35 216.709 296.97 223.848 297.806 230.897C298.002 232.522 298.26 234.136 298.535 235.749C297.38 237.374 296.338 240.232 296.814 245.275L293.021 263.296L291.441 273.858C291.227 275.335 291.375 276.841 291.87 278.249C292.366 279.656 293.195 280.922 294.287 281.939C296.708 284.314 299.644 288.332 301.454 290.938C300.665 293.242 300.275 295.664 300.3 298.099C300.339 299.22 300.401 300.279 300.479 301.299C300.642 303.448 301.048 305.572 301.69 307.63C302.132 311.968 303.012 317.515 304.727 321.079L305.36 340.03C305.36 340.03 304.413 357.428 302.513 360.846C300.614 364.265 306.626 393.162 306.626 393.162V397.202L305.612 400.16L305.36 399.97C300.614 405.876 305.36 408.05 305.36 408.05C305.36 408.05 306.649 408.112 308.722 408.19C308.545 409.016 308.648 409.878 309.015 410.64C309.381 411.401 309.989 412.02 310.745 412.398C310.745 412.398 337.641 413.642 342.382 412.398C347.122 411.154 345.862 406.795 343.329 407.114C342.047 407.159 340.767 406.99 339.541 406.615C341.02 404.884 339.838 402.536 337.955 402.766C335.422 403.074 329.729 400.822 329.729 400.822V400.861C329.546 400.792 329.359 400.736 329.169 400.693C327.054 400.212 324.965 399.623 322.91 398.928C321.688 396.311 318.875 389.273 320.893 383.798C321.806 381.333 322.103 378.049 322.103 374.866C322.151 365.27 323.552 355.729 326.266 346.524L330.06 333.485C330.06 333.485 335.439 317.638 335.753 313.312L335.708 306.969C340.157 309.833 343.687 308.964 345.946 307.636C346.284 307.443 346.571 307.172 346.783 306.846C346.994 306.519 347.125 306.147 347.163 305.759C347.202 305.372 347.147 304.981 347.003 304.619C346.86 304.258 346.631 303.936 346.338 303.68ZM304.116 270.72C304.222 270.267 304.312 269.768 304.39 269.247C305.137 269.247 305.885 269.247 306.632 269.247C307.557 271.144 307.945 273.258 307.752 275.36C306.038 274.8 303.471 273.466 304.116 270.72Z" fill="url(#paint3_linear_1468_670)"/>
<path d="M307.126 395.749L305.91 399.403L309.866 403.359L322.956 406.402L332.392 405.488L331.781 402.126C331.6 401.407 331.225 400.752 330.696 400.232C330.167 399.712 329.505 399.348 328.783 399.179C324.906 398.265 317.509 396.192 315.952 393.301L307.126 395.749Z" fill="#DB8B8B"/>
<path opacity="0.1" d="M307.126 395.749L305.91 399.403L309.866 403.359L322.956 406.402L332.392 405.488L331.781 402.126C331.6 401.407 331.225 400.752 330.696 400.232C330.167 399.712 329.505 399.348 328.783 399.179C324.906 398.265 317.509 396.192 315.952 393.301L307.126 395.749Z" fill="black"/>
<path d="M329.348 404.58L327.521 402.143L329.348 399.341C329.348 399.341 334.828 401.554 337.26 401.246C339.692 400.938 340.913 405.202 336.346 406.424C331.779 407.645 305.903 406.424 305.903 406.424C305.903 406.424 301.336 404.294 305.903 398.512L309.859 401.554C309.859 401.554 316.583 405.208 319.906 404.597L329.348 404.58Z" fill="#474463"/>
<path d="M337.553 409.753L328.117 410.666L315.038 407.601L311.082 403.679L311.407 402.709L311.861 401.353L312.304 400.025L321.129 397.588C321.576 398.317 322.189 398.931 322.917 399.381C325.785 401.342 330.935 402.743 333.955 403.466C334.083 403.495 334.208 403.533 334.331 403.578C334.971 403.793 335.546 404.165 336.004 404.66C336.463 405.156 336.789 405.759 336.953 406.413L337.553 409.753Z" fill="#DB8B8B"/>
<path opacity="0.1" d="M337.553 409.753L328.117 410.666L315.038 407.601L311.082 403.678L311.407 402.709L315.044 405.511C315.044 405.511 321.768 409.164 325.091 408.553H334.527L332.7 406.116L334.342 403.583C334.982 403.798 335.557 404.17 336.016 404.666C336.474 405.161 336.8 405.764 336.964 406.418L337.553 409.753Z" fill="black"/>
<path d="M334.519 408.838L332.693 406.401L334.519 403.599C334.519 403.599 340 405.812 342.432 405.504C344.863 405.196 346.085 409.46 341.518 410.682C336.951 411.903 311.075 410.682 311.075 410.682C311.075 410.682 306.508 408.552 311.075 402.77L315.031 405.812C315.031 405.812 321.755 409.466 325.078 408.855L334.519 408.838Z" fill="#474463"/>
<path d="M326.905 232.281C326.905 232.281 312.291 233.805 314.426 227.714C315.021 225.988 315.175 224.141 314.874 222.34C314.495 220.107 313.612 217.989 312.291 216.148L325.991 218.278C325.171 219.65 324.547 221.131 324.137 222.676C322.506 229.137 326.905 232.281 326.905 232.281Z" fill="#DB8B8B"/>
<path d="M301.947 301.695C301.947 301.695 302.25 314.785 305.309 321.179L305.92 339.748C305.92 339.748 305.007 356.794 303.18 360.145C301.353 363.496 307.136 391.804 307.136 391.804V396.674C307.136 396.674 316.864 400.316 319.621 396.057L316.88 359.831L318.096 309.602L301.947 301.695Z" fill="#474463"/>
<path opacity="0.1" d="M301.947 301.695C301.947 301.695 302.25 314.785 305.309 321.179L305.92 339.748C305.92 339.748 305.007 356.794 303.18 360.145C301.353 363.496 307.136 391.804 307.136 391.804V396.674C307.136 396.674 316.864 400.316 319.621 396.057L316.88 359.831L318.096 309.602L301.947 301.695Z" fill="black"/>
<path d="M295.862 259.67L294.036 264.539L292.511 274.889C292.306 276.331 292.448 277.8 292.924 279.177C293.401 280.553 294.199 281.795 295.252 282.801C298.905 286.454 303.774 294.064 303.774 294.064L309.557 276.693C309.557 276.693 303.774 275.78 304.688 271.824C305.601 267.868 305.299 260.561 305.299 260.561L295.862 259.67Z" fill="#CBCDDA"/>
<path opacity="0.05" d="M295.862 259.109L294.036 263.979L292.511 274.328C292.306 275.77 292.448 277.24 292.924 278.616C293.401 279.992 294.199 281.235 295.252 282.24C298.905 285.894 303.774 293.503 303.774 293.503L309.557 276.133C309.557 276.133 303.774 275.219 304.688 271.263C305.601 267.307 305.299 260 305.299 260L295.862 259.109Z" fill="black"/>
<path opacity="0.1" d="M322.915 399.369C318.992 405.533 312.935 402.031 311.854 401.336L312.296 400.008L321.122 397.57C321.57 398.302 322.184 398.918 322.915 399.369Z" fill="black"/>
<path d="M335.13 313.558C334.827 317.823 329.65 333.344 329.65 333.344L326.002 346.12C323.385 355.154 322.035 364.508 321.99 373.913C321.99 377.029 321.704 380.245 320.824 382.66C318.387 389.384 323.262 398.49 323.262 398.49C318.998 406.099 311.696 400.927 311.696 400.927V396.058C311.696 396.058 305.914 369.576 307.432 364.399C308.951 359.221 309.561 345.218 309.561 345.218V319.952C304.685 315.092 301.719 308.64 301.207 301.774C301.134 300.777 301.078 299.729 301.039 298.642C300.792 291.772 305.488 283.72 307.32 280.851C307.763 280.156 308.037 279.77 308.037 279.77L334.934 290.416H334.996V291.458V293.761L335.13 313.558Z" fill="#474463"/>
<path opacity="0.1" d="M325.997 218.278C325.177 219.65 324.553 221.131 324.143 222.676C322.655 223.242 321.068 223.504 319.477 223.446C317.886 223.388 316.323 223.012 314.88 222.34C314.501 220.107 313.617 217.989 312.297 216.148L325.997 218.278Z" fill="black"/>
<path d="M319.907 222.843C326.465 222.843 331.781 217.527 331.781 210.969C331.781 204.412 326.465 199.096 319.907 199.096C313.349 199.096 308.033 204.412 308.033 210.969C308.033 217.527 313.349 222.843 319.907 222.843Z" fill="#DB8B8B"/>
<path opacity="0.1" d="M335.132 293.773H335.003C322.239 296.395 306.213 283.092 306.213 283.092C306.645 282.376 307.02 281.627 307.334 280.851C307.776 280.156 308.051 279.77 308.051 279.77L334.947 290.416L335.015 291.481L335.132 293.773Z" fill="black"/>
<path d="M331.78 231.972C331.78 231.972 314.734 221.623 309.254 225.882L301.645 235.62C301.645 235.62 296.775 237.144 297.689 246.883L294.035 264.54L304.996 267.28C304.996 267.28 311.389 273.371 306.211 282.196C306.211 282.196 322.344 295.588 335.131 292.843L334.189 278.548C334.189 278.548 331.449 270.636 336.319 263.329C341.188 256.023 336.621 249.024 332.055 246.284C332.088 246.284 329.953 234.713 331.78 231.972Z" fill="#CBCDDA"/>
<path d="M332.694 294.074C332.694 294.074 339.087 295.29 342.13 300.165C343.009 301.629 344.081 302.967 345.318 304.144C345.596 304.397 345.81 304.711 345.945 305.061C346.08 305.412 346.131 305.789 346.094 306.162C346.058 306.536 345.935 306.896 345.735 307.214C345.535 307.532 345.264 307.799 344.943 307.993C342.528 309.444 338.588 310.341 333.613 306.251C325.084 299.252 332.694 294.074 332.694 294.074Z" fill="#DB8B8B"/>
<path opacity="0.1" d="M323.258 237.76C323.258 237.76 317.167 237.149 315.648 252.979C314.13 268.809 311.692 272.462 311.692 272.462C311.692 272.462 310.168 280.683 313.822 285.552C317.475 290.422 324.468 300.771 324.468 300.771C324.468 300.771 332.078 302.9 333.602 295.291L324.166 277.634C324.166 277.634 322.641 271.544 326.295 267.285C329.948 263.026 332.694 234.712 323.258 237.76Z" fill="black"/>
<path d="M323.869 236.846C323.869 236.846 317.778 236.235 316.26 252.065C314.741 267.895 312.304 271.548 312.304 271.548C312.304 271.548 310.779 279.768 314.433 284.638C318.086 289.507 325.079 299.857 325.079 299.857C325.079 299.857 332.689 301.986 334.213 294.377L324.777 276.72C324.777 276.72 323.258 270.635 326.906 266.393C330.554 262.151 333.305 233.798 323.869 236.846Z" fill="#CBCDDA"/>
<path opacity="0.1" d="M328.889 248.262C328.889 248.262 329.5 257.698 326.76 262.876C324.02 268.053 324.02 274.749 326.76 278.403" fill="black"/>
<path opacity="0.1" d="M330.413 236.695C330.413 236.695 327.975 234.258 320.977 233.955C313.978 233.652 310.93 231.518 310.93 231.518" fill="black"/>
<path opacity="0.1" d="M313.458 195.629C311.609 195.859 309.497 196.492 308.83 198.229C308.652 198.889 308.512 199.559 308.41 200.235C307.72 202.897 304.728 204.157 302.879 206.163C301.248 207.956 300.531 210.383 299.999 212.753C298.483 219.538 298.121 226.53 298.928 233.435C299.522 238.478 300.738 243.454 301.075 248.525C301.411 253.597 300.794 258.931 298.021 263.19C296.827 265.022 295.258 266.63 294.412 268.647C296.16 270.065 298.564 270.267 300.817 270.329C303.432 270.418 306.047 270.418 308.662 270.329C310.035 270.284 311.463 270.194 312.657 269.499C313.533 268.941 314.254 268.17 314.753 267.258C316.249 264.714 316.63 261.654 316.563 258.713C316.495 255.771 316.03 252.835 316.002 249.882C315.974 248.273 316.097 246.57 317.022 245.253C317.689 244.3 318.703 243.662 319.572 242.894C322.833 240.008 323.948 235.374 324.054 231.02C324.161 226.666 323.444 222.307 323.813 217.97C323.959 216.289 324.592 214.232 326.262 213.902C326.797 213.88 327.33 213.812 327.854 213.7C329.193 213.184 329.064 211.296 329.445 209.912C329.876 208.36 331.199 207.161 331.574 205.592C332.448 201.91 327.764 197.512 324.693 196.228C321.538 194.912 316.775 195.231 313.458 195.629Z" fill="black"/>
<path d="M313.177 195.018C311.328 195.248 309.215 195.881 308.549 197.618C308.371 198.278 308.231 198.948 308.128 199.624C307.439 202.286 304.447 203.546 302.598 205.552C300.967 207.345 300.25 209.772 299.717 212.142C298.202 218.927 297.84 225.919 298.647 232.824C299.241 237.867 300.457 242.843 300.793 247.914C301.13 252.986 300.513 258.32 297.739 262.579C296.546 264.411 294.977 266.019 294.131 268.036C295.879 269.454 298.283 269.656 300.536 269.717C303.151 269.807 305.765 269.807 308.38 269.717C309.753 269.673 311.182 269.583 312.376 268.888C313.252 268.33 313.973 267.559 314.471 266.647C315.968 264.103 316.349 261.043 316.281 258.102C316.214 255.16 315.749 252.224 315.721 249.27C315.693 247.662 315.816 245.959 316.741 244.642C317.408 243.689 318.422 243.051 319.29 242.283C322.552 239.397 323.667 234.763 323.773 230.409C323.88 226.055 323.162 221.696 323.532 217.359C323.678 215.678 324.311 213.621 325.981 213.291C326.516 213.269 327.049 213.201 327.572 213.089C328.911 212.573 328.783 210.685 329.164 209.301C329.595 207.749 330.918 206.55 331.293 204.981C332.167 201.299 327.483 196.901 324.412 195.617C321.235 194.301 316.472 194.614 313.177 195.018Z" fill="#472727"/>
</g>
<defs>
<linearGradient id="paint0_linear_1468_670" x1="299.527" y1="307.534" x2="299.527" y2="49.2148" gradientUnits="userSpaceOnUse">
<stop stop-color="#808080" stop-opacity="0.25"/>
<stop offset="0.54" stop-color="#808080" stop-opacity="0.12"/>
<stop offset="1" stop-color="#808080" stop-opacity="0.1"/>
</linearGradient>
<linearGradient id="paint1_linear_1468_670" x1="520.685" y1="411.754" x2="520.685" y2="183.133" gradientUnits="userSpaceOnUse">
<stop stop-color="#808080" stop-opacity="0.25"/>
<stop offset="0.54" stop-color="#808080" stop-opacity="0.12"/>
<stop offset="1" stop-color="#808080" stop-opacity="0.1"/>
</linearGradient>
<linearGradient id="paint2_linear_1468_670" x1="447.834" y1="330.06" x2="447.834" y2="190.982" gradientUnits="userSpaceOnUse">
<stop stop-color="#808080" stop-opacity="0.25"/>
<stop offset="0.54" stop-color="#808080" stop-opacity="0.12"/>
<stop offset="1" stop-color="#808080" stop-opacity="0.1"/>
</linearGradient>
<linearGradient id="paint3_linear_1468_670" x1="319.256" y1="412.953" x2="319.256" y2="191.942" gradientUnits="userSpaceOnUse">
<stop stop-color="#808080" stop-opacity="0.25"/>
<stop offset="0.54" stop-color="#808080" stop-opacity="0.12"/>
<stop offset="1" stop-color="#808080" stop-opacity="0.1"/>
</linearGradient>
<clipPath id="clip0_1468_670">
<rect width="560.788" height="414" fill="white"/>
</clipPath>
</defs>
</svg>
