<svg xmlns="http://www.w3.org/2000/svg" width="60" height="60" viewBox="0 0 60 60" fill="none">
  <g clip-path="url(#clip0_1483_559)">
    <path d="M32.5007 46.834H27.6673C26.834 46.834 26.1673 46.334 26.0007 45.5006L25.1673 42.5007L24.5007 42.1673L21.834 43.6673C21.1673 44.0007 20.334 44.0007 19.834 43.334L16.334 39.834C15.834 39.334 15.6673 38.5007 16.0007 37.834L17.5007 35.1673L17.1673 34.5007L14.1673 33.6673C13.5007 33.5007 12.834 32.834 12.834 32.0007V27.1673C12.834 26.334 13.334 25.6673 14.1673 25.5007L17.1673 24.6673L17.5007 24.0006L16.0007 21.334C15.6673 20.6673 15.6673 19.834 16.334 19.334L19.834 15.834C20.334 15.334 21.1673 15.1673 21.834 15.5007L24.5007 17.0007L25.1673 16.6673L26.0007 13.6673C26.1673 13.0007 26.834 12.334 27.6673 12.334H32.5007C33.334 12.334 34.0007 12.834 34.1673 13.6673L35.0007 16.6673L35.6673 17.0007L38.334 15.5007C39.0007 15.1673 39.834 15.1673 40.334 15.834L43.834 19.334C44.334 19.834 44.5006 20.6673 44.1673 21.334L42.6673 24.0006L43.0006 24.6673L46.0007 25.5007C46.6673 25.6673 47.334 26.334 47.334 27.1673V32.0007C47.334 32.834 46.834 33.5007 46.0007 33.6673L43.0006 34.5007L42.6673 35.1673L44.1673 37.834C44.5006 38.5007 44.5006 39.334 43.834 39.834L40.334 43.334C39.834 43.834 39.0007 44.0007 38.334 43.6673L35.6673 42.1673L35.0007 42.5007L34.1673 45.5006C33.834 46.334 33.1673 46.834 32.5007 46.834ZM28.834 43.5007H31.1673L32.0007 40.0007L32.834 39.6673C33.5007 39.5006 34.0006 39.1673 34.6673 39.0007L35.5006 38.5007L38.6673 40.334L40.334 38.6673L38.5007 35.5006L39.0007 34.6673C39.334 34.1673 39.5006 33.5007 39.6673 32.834L40.0006 32.0007L43.5007 31.1673V28.834L40.0006 28.0007L39.6673 27.1673C39.5006 26.5007 39.1673 26.0007 39.0007 25.334L38.5007 24.5007L40.334 21.334L38.6673 19.6673L35.5006 21.5007L34.6673 21.0007C34.1673 20.6673 33.5007 20.5007 32.834 20.334L32.0007 20.0007L31.1673 16.5007H28.834L28.0006 20.0007L27.1673 20.334C26.5006 20.5007 26.0007 20.834 25.334 21.0007L24.5007 21.5007L21.334 19.6673L19.6673 21.334L21.5007 24.5007L21.0007 25.334C20.6673 25.834 20.5007 26.5007 20.334 27.1673L20.0007 28.0007L16.5007 28.834V31.1673L20.0007 32.0007L20.334 32.834C20.5007 33.5007 20.834 34.0006 21.0007 34.6673L21.5007 35.5006L19.6673 38.6673L21.334 40.334L24.5007 38.5007L25.334 39.0007C25.834 39.334 26.5006 39.5006 27.1673 39.6673L28.0006 40.0007L28.834 43.5007Z" fill="#1dd48b"/>
    <path d="M30.0007 37.1673C26.0007 37.1673 22.834 34.0007 22.834 30.0007C22.834 26.0007 26.0007 22.834 30.0007 22.834C34.0007 22.834 37.1673 26.0007 37.1673 30.0007C37.1673 34.0007 34.0007 37.1673 30.0007 37.1673ZM30.0007 26.1673C27.834 26.1673 26.1673 27.834 26.1673 30.0007C26.1673 32.1673 27.834 33.834 30.0007 33.834C32.1673 33.834 33.834 32.1673 33.834 30.0007C33.834 27.834 32.1673 26.1673 30.0007 26.1673Z" fill="#1dd48b"/>
    <path d="M30.0007 3.33398C29.0007 3.33398 28.334 4.00065 28.334 5.00065C28.334 6.00065 29.0007 6.66732 30.0007 6.66732C42.834 6.66732 53.334 17.1673 53.334 30.0007C53.334 42.834 42.834 53.334 30.0007 53.334C17.1673 53.334 6.66732 42.834 6.66732 30.0007C6.66732 25.334 8.00065 20.834 10.6673 17.0007V19.0007C10.6673 20.0007 11.334 20.6673 12.334 20.6673C13.334 20.6673 14.0007 20.0007 14.0007 19.0007V10.6673H5.66732C4.66732 10.6673 4.00065 11.334 4.00065 12.334C4.00065 13.334 4.66732 14.0007 5.66732 14.0007H8.66732C5.16732 18.5007 3.33398 24.1673 3.33398 30.0007C3.33398 44.6673 15.334 56.6673 30.0007 56.6673C44.6673 56.6673 56.6673 44.6673 56.6673 30.0007C56.6673 15.334 44.6673 3.33398 30.0007 3.33398Z" fill="#1dd48b"/>
  </g>
  <defs>
    <clipPath id="clip0_1483_559">
      <rect width="60" height="60" fill="#1dd48b"/>
    </clipPath>
  </defs>
</svg>