<svg width="60" height="60" viewBox="0 0 60 60" fill="none" xmlns="http://www.w3.org/2000/svg">
<g id="tabler:world-search">
<g id="Group">
<path id="Vector" d="M52.5 30C52.5 25.5499 51.1804 21.1998 48.7081 17.4997C46.2357 13.7996 42.7217 10.9157 38.6104 9.21272C34.499 7.50975 29.9751 7.06417 25.6105 7.93234C21.2459 8.80051 17.2368 10.9434 14.0901 14.0901C10.9434 17.2368 8.80051 21.2459 7.93234 25.6105C7.06417 29.9751 7.50975 34.499 9.21272 38.6104C10.9157 42.7217 13.7996 46.2357 17.4997 48.7081C21.1998 51.1804 25.5499 52.5 30 52.5M9.00001 22.5H51M9.00001 37.5H28.75" stroke="#1dd48b" stroke-width="4.16667" stroke-linecap="round" stroke-linejoin="round"/>
<path id="Vector_2" d="M28.7492 7.5C24.5375 14.249 22.3047 22.0447 22.3047 30C22.3047 37.9553 24.5375 45.751 28.7492 52.5M31.2492 7.5C35.2904 13.9752 37.5132 21.4192 37.6842 29.05M50.4992 50.5L54.9992 55M37.4992 45C37.4992 46.9891 38.2894 48.8968 39.6959 50.3033C41.1024 51.7098 43.0101 52.5 44.9992 52.5C46.9883 52.5 48.896 51.7098 50.3025 50.3033C51.709 48.8968 52.4992 46.9891 52.4992 45C52.4992 43.0109 51.709 41.1032 50.3025 39.6967C48.896 38.2902 46.9883 37.5 44.9992 37.5C43.0101 37.5 41.1024 38.2902 39.6959 39.6967C38.2894 41.1032 37.4992 43.0109 37.4992 45Z" stroke="#1dd48b" stroke-width="4.16667" stroke-linecap="round" stroke-linejoin="round"/>
</g>
</g>
</svg>
